#define AnchoredImage_width 40
#define AnchoredImage_height 10
static char AnchoredImage_bits[] = {
   0x00, 0x00, 0x00, 0x80, 0x01, 0x00, 0x00, 0x00, 0x80, 0x03, 0x00, 0x00,
   0x00, 0x80, 0x07, 0xfc, 0xff, 0xff, 0xff, 0x0f, 0xfc, 0xff, 0xff, 0xff,
   0x1f, 0xfc, 0xff, 0xff, 0xff, 0x1f, 0xfc, 0xff, 0xff, 0xff, 0x0f, 0x00,
   0x00, 0x00, 0x80, 0x07, 0x00, 0x00, 0x00, 0x80, 0x03, 0x00, 0x00, 0x00,
   0x80, 0x01};
