#define NoImage_width 64
#define NoImage_height 64
static char NoImage_bits[] = {
   0x00, 0x00, 0x40, 0x55, 0x55, 0x55, 0x55, 0x04, 0x00, 0x00, 0x10, 0x00,
   0x00, 0x00, 0x00, 0x01, 0x00, 0x00, 0x44, 0x44, 0x44, 0x44, 0x44, 0x0c,
   0x00, 0x00, 0x11, 0x11, 0x11, 0x11, 0x11, 0x1d, 0x00, 0x40, 0xc4, 0xff,
   0xff, 0xff, 0x7f, 0x1e, 0x00, 0x10, 0xfd, 0xff, 0xff, 0xff, 0xff, 0x0f,
   0x00, 0x40, 0xfe, 0x00, 0x00, 0x00, 0x50, 0x06, 0x00, 0x88, 0x0f, 0x55,
   0x55, 0x55, 0x05, 0x01, 0x00, 0xc0, 0x57, 0x00, 0x00, 0x00, 0x40, 0x01,
   0x00, 0xf2, 0x03, 0x11, 0x11, 0x11, 0x11, 0x03, 0x00, 0x70, 0x44, 0x44,
   0x44, 0x44, 0x44, 0x03, 0x00, 0xb5, 0xf0, 0xff, 0xff, 0xff, 0x9f, 0x03,
   0x00, 0x18, 0xfc, 0xff, 0xff, 0xff, 0xff, 0x03, 0x80, 0x2c, 0x7f, 0x50,
   0x55, 0x55, 0xc1, 0x01, 0x00, 0x4d, 0x4f, 0x05, 0x00, 0x00, 0x20, 0x00,
   0x80, 0x94, 0x13, 0x10, 0x11, 0x11, 0x31, 0x00, 0x00, 0xc1, 0x44, 0x44,
   0x44, 0x44, 0x64, 0x00, 0x40, 0x76, 0x10, 0xf1, 0xff, 0xff, 0x71, 0x00,
   0x00, 0x23, 0xc5, 0xff, 0xff, 0xff, 0x7f, 0x00, 0x40, 0x30, 0xf8, 0x3f,
   0x00, 0x00, 0x7c, 0x00, 0x00, 0x55, 0xfc, 0x01, 0x00, 0x00, 0x10, 0x00,
   0x00, 0x08, 0x1f, 0x54, 0x05, 0x00, 0x00, 0x00, 0x00, 0x5d, 0x0f, 0x01,
   0x10, 0x00, 0x00, 0x00, 0x00, 0x84, 0x43, 0x10, 0x01, 0x00, 0x00, 0x00,
   0x00, 0xcc, 0x01, 0x44, 0x24, 0x00, 0x00, 0x00, 0x00, 0xd0, 0x10, 0x10,
   0x51, 0x00, 0x00, 0x00, 0x00, 0x64, 0x00, 0x44, 0x84, 0x00, 0x00, 0x00,
   0x00, 0x70, 0x08, 0x11, 0x91, 0x00, 0x00, 0x00, 0x00, 0x24, 0x00, 0x44,
   0x44, 0x01, 0x00, 0x00, 0x00, 0x18, 0x08, 0x11, 0x11, 0x01, 0x00, 0x00,
   0x00, 0x14, 0x40, 0x44, 0x44, 0x03, 0x00, 0x00, 0x00, 0x10, 0x08, 0x11,
   0x11, 0x03, 0x00, 0x00, 0x00, 0x10, 0x40, 0x44, 0x44, 0x03, 0x00, 0x00,
   0x00, 0x00, 0x08, 0x11, 0x11, 0x03, 0x02, 0x00, 0x00, 0x00, 0x40, 0x44,
   0xc4, 0x03, 0x0c, 0x00, 0x00, 0x00, 0x10, 0x11, 0x91, 0x03, 0x09, 0x00,
   0x00, 0x00, 0x00, 0x44, 0xc4, 0x01, 0x0c, 0x00, 0x00, 0x00, 0x40, 0x11,
   0xf1, 0x81, 0x65, 0x00, 0x00, 0x00, 0x00, 0x44, 0xf4, 0x00, 0x04, 0x00,
   0x00, 0x00, 0x00, 0x11, 0x79, 0x20, 0x4f, 0x00, 0x00, 0x00, 0x00, 0x46,
   0x3e, 0x40, 0x33, 0x00, 0x00, 0x00, 0x00, 0xfc, 0x1f, 0x88, 0x27, 0x00,
   0x00, 0x00, 0x00, 0xe0, 0x07, 0xc2, 0x11, 0x00, 0x00, 0x0a, 0x00, 0x00,
   0x80, 0xf0, 0x16, 0x00, 0x80, 0xa0, 0xaa, 0xaa, 0x2a, 0xf4, 0x90, 0x00,
   0x00, 0x10, 0x00, 0x00, 0x00, 0x7d, 0x4d, 0x00, 0x40, 0x44, 0x44, 0x44,
   0x44, 0x3f, 0xa9, 0x00, 0x00, 0x11, 0x11, 0x11, 0xd1, 0x4f, 0x5c, 0x00,
   0x80, 0xfc, 0xff, 0xff, 0xff, 0x13, 0x46, 0x00, 0x00, 0xfe, 0xff, 0xff,
   0xff, 0x44, 0x5b, 0x00, 0x40, 0x1c, 0x00, 0x00, 0x00, 0xd1, 0x27, 0x00,
   0x10, 0x55, 0x55, 0x55, 0x55, 0xe4, 0x31, 0x00, 0x40, 0x00, 0x00, 0x00,
   0x40, 0x78, 0x35, 0x00, 0x08, 0x11, 0x11, 0x11, 0x11, 0x7e, 0x18, 0x00,
   0x40, 0x44, 0x44, 0x44, 0xc4, 0x5f, 0x1c, 0x00, 0x90, 0xff, 0xff, 0xff,
   0xff, 0x17, 0x0f, 0x00, 0xc0, 0xff, 0xff, 0xff, 0xff, 0x45, 0x07, 0x00,
   0x94, 0x01, 0x00, 0x00, 0x00, 0xd1, 0x03, 0x00, 0x40, 0x55, 0x55, 0x55,
   0x55, 0xf4, 0x01, 0x00, 0x11, 0x00, 0x00, 0x00, 0x00, 0xf9, 0x00, 0x00,
   0x44, 0x44, 0x44, 0x44, 0x44, 0x3f, 0x00, 0x00, 0x11, 0x11, 0x11, 0x11,
   0xf1, 0x1f, 0x00, 0x00, 0xf4, 0xff, 0xff, 0xff, 0xff, 0x03, 0x00, 0x00,
   0xf0, 0xff, 0xff, 0xff, 0x7f, 0x00, 0x00, 0x00};
