/* XPM */
static char *icon9[] = {
/* width height ncolors chars_per_pixel */
"64 64 15 1",
/* colors */
"` c None",
"a c #78706B",
"b c #A3B1D7",
"c c #5A5357",
"d c #717FCA",
"e c #2A218B",
"f c #CDE1F9",
"g c #929ED3",
"h c #311FB3",
"i c #6F76A0",
"j c #9F8762",
"k c #25244A",
"l c #29256F",
"m c #51518C",
"n c #4B51B1",
/* pixels */
"````````````````````````````````````````````````````````````````",
"````````````````````````````````````````````````````````````````",
"````````````````````````````````````````````````````````````````",
"```````````````````````````````````````````````````kll``````````",
"`````````````````````````````````````````````````kkkllll````````",
"````````````````````````````````````````````````kkkllllll```````",
"```````````````````````````````````````````````kkkkllmllll``````",
"``````````````````eeiddgbfffffbgdinmllllllllllllkkklngilll``````",
"```````````````lllenddgbfffffffbgdddnnnniiiddddikkklmdmllk``````",
"`````````````llleeeniiddgbfffbgddmmlllllllllllllkkkklllllk``````",
"```````````emlelllllmmmmiiiiiimmmllllllllllllllkkkkkklllkk``````",
"``````````eleellkkll```````````````````````````kkkkkkkkkkk``````",
"``````````lelllkl```````````````````````````````kkkkkkkkk```````",
"`````````llelkl``````````````````````````````````kkkkkkk````````",
"````````elelll`````````````````````````````````````kkk``````````",
"````````lemll```````````````````````````````````````````````````",
"````````lmel````````````````````````````````````````````````````",
"```````elmll`````````````````aaaaaa`````````````````````````````",
"```````llnl```````````````aaammmeellme``````````````````````````",
"```````llnl`````````````aaaimeeellllllle````````````````````````",
"```````llnl````````````acammhleeeeeeelllm```````````````````````",
"```````llil```````````caaameleeeeeeeeeeeel``````````````````````",
"```````eldl``````````caaacneeeeeeeeeeeehlll`````````````````````",
"````````lnne````````aaaacmmeleeeeeeeeeeeeelm````````````````````",
"````````lldl```````ccaaamnmeeeeeeeeeeeeeeeele```````````````````",
"`````````lnim``````caaaiineeeeeeeeeeeeeeeeeel```````````````````",
"`````````llimm````ccaaaineeeeeeeeeeeeeeeeeeeee``````````````````",
"``````````llimi```acaaaiheeeeeeeehhhheeeeeeeee``````````````````",
"```````````llidmi`cacaaneeeeeeeehhhhheeeeeeeel``````````````````",
"`````````````llinmcccameleeeeehhhhhhhheeeeeeeee`````````````````",
"```````````````llkcccmemeleeehhhhhhhhheeeeeeeee`````````````````",
"`````````````````ccccmemmeeeehhhhhhhhheeeeeeeee`````````````````",
"`````````````````klcccenmmeeeehhhhhhhhhheheeeee`````````````````",
"`````````````````kkmccemeeeenmmnnnhhhhheheeeelemi```````````````",
"`````````````````kklcmmccmnnmaaaineehhheheeellllmnm`````````````",
"``````````````````kkcmmacmmnniddnehhhhhheeelll`lllimi```````````",
"``````````````````kklcccmmeemiidinnnnhheeellll```llini``````````",
"``````````````````kkklcmmeemiaiajaimmhhhelelll````lline`````````",
"```````````````````kkkllllemajjjjjjamheheelll``````llde`````````",
"```````````````````kkkkllleajjjjjjjjmeeemelll```````kmie````````",
"````````````````````kkkkklmajjjjjjjamlleeell````````lldl````````",
"`````````````````````kkkkllaaaaaaaammllelll``````````lnee```````",
"``````````````````````kkkklkccclllllllllll```````````kmme```````",
"```````````````````````kkkkkllkllllllllll````````````klne```````",
"````````````````````````kkkkkkkllllllllk`````````````klme```````",
"``````````````````````````kkkkkkkkkkkk```````````````lmee```````",
"`````````````````````````````kkkkkk`````````````````llmee```````",
"````````````````````````````````````````````````````klml````````",
"```````````````````````````````````````````````````lllem````````",
"``````````kkl`````````````````````````````````````lllmll````````",
"````````klkkkll``````````````````````````````````lllmem`````````",
"```````kkkllllkl```````````````````````````````llllmel``````````",
"``````kkkllllllkl```````````````````````````lllllenell``````````",
"``````kklllmlllklllllllllllllididgbffbbgddinmlemnmlll```````````",
"``````kkllmgdlllleeeeeeeeeeeniddgbffffffbgddiinelll`````````````",
"``````kkllmdillkleeeeeemmmmmndddbffffffbgddnmllll```````````````",
"``````lkkllllllkklllllllllllllmiddgbbbgdiiiiee``````````````````",
"``````kkkkllllkkl```````````````````````````````````````````````",
"```````kkkkkkkkk````````````````````````````````````````````````",
"````````kkkkkkk`````````````````````````````````````````````````",
"``````````kkk```````````````````````````````````````````````````",
"````````````````````````````````````````````````````````````````",
"````````````````````````````````````````````````````````````````",
"````````````````````````````````````````````````````````````````"
};
