/* XPM */
static char *icon15[] = {
/* width height ncolors chars_per_pixel */
"64 64 17 1",
/* colors */
"` c None",
"a c #78706B",
"b c #A3B1D7",
"c c #5A5357",
"d c #717FCA",
"e c #2A218B",
"f c #B5C0D1",
"g c #CDE1F9",
"h c #929ED3",
"i c #9796A0",
"j c #311FB3",
"k c #6F76A0",
"l c #9F8762",
"m c #25244A",
"n c #29256F",
"o c #51518C",
"p c #4B51B1",
/* pixels */
"````````````````````````````````````````````````````````````````",
"````````````````````````````````````````````````````````````````",
"````````````````````````````````````````````````````````````````",
"```````````````````````````````````````````````````mnn``````````",
"`````````````````````````````````````````````````mmnnnnn````````",
"````````````````````````````````````````````````mmmnnnnnn```````",
"```````````````````````````````````````````````mmmnnnonnnn``````",
"``````````````````eeeeeeennnnnnnnnnnnnnnnnnnnnnmmmnnphpnnn``````",
"```````````````nnnneeooooooooooopppppppppkkkkkkkmmmnodpnnm``````",
"`````````````nneeeeennnnnnnnnnnnnnnnnnnnnnnnnnnmmmmnnnnnnm``````",
"```````````noneennmmmmmmmmmmmmmmmmmmmmmmmmmmmmmmmmmmnnnnmm``````",
"``````````nooonnmmmm```````````````````````````mmmmmmmmmmm``````",
"``````````kkpemmm```````````````````````````````mmmmmmmmm```````",
"`````````kddpnm``````````````````````````````````mmmmmmm````````",
"````````ihhdom`````````````````````````````````````mmm``````````",
"````````hfbdk```````````````````````````````````````````````````",
"````````fggh````````````````````````````````````````````````````",
"```````bgggb`````````````````aaaaaa`````````````````````````````",
"```````hggg```````````````caccaaaaaaaa``````````````````````````",
"```````hbgb`````````````cccaaalllllllaaa````````````````````````",
"```````kdhd````````````accaallllllllaaaaa```````````````````````",
"```````kddk```````````cccalllllllllllaaaoo``````````````````````",
"```````kodo``````````cccaalllllllllllaakpen`````````````````````",
"````````nppe````````accaailllllllllllalkpoeo````````````````````",
"````````nndn```````ccccalalllllllllkoaaaoooen```````````````````",
"`````````mpko``````cccaalllllallllaojpdkkopoo```````````````````",
"`````````nndoo````acoocalakkoopkalkojjpdkpaoon``````````````````",
"``````````nndok```ccooaallllaejjkikpjjjkkkaaoo``````````````````",
"```````````nmkkok`ccaaaaalllojjjjddpjjjooakooo``````````````````",
"`````````````nnkpoccaaaaallpjjjjjjjjjjjeepopjoo`````````````````",
"```````````````nnmcaaaaaaaopejjjjjjjjjeeeeeeeoa`````````````````",
"`````````````````ccaaaaaallaeejjjjjjjeeeeeeeoaa`````````````````",
"`````````````````cccaaaaallaeeejjjjjjeeeeeneoaa`````````````````",
"`````````````````cccaaaaaaaoeeejjjjjeeeeeeneaacok```````````````",
"`````````````````ccccccaaaceeeejjjjeeeeeeenecacnopo`````````````",
"``````````````````mccccccaoeeeejjjjeeeeeeeeecc`nnnkok```````````",
"``````````````````mmccccaaceeeeejjjeeeeeeeennn```nmkpk``````````",
"``````````````````mmmccccacooooeeeeeeeeeeennnn````nmkpe`````````",
"```````````````````mmmccccacocaeeeeeeeeeeennn``````nnde`````````",
"```````````````````mmmcccaccoocneneeeeeeeennn```````moke````````",
"````````````````````mmmccaacoeeeeeenneeeennn````````nnke````````",
"`````````````````````mmmcaaaceeeeennneennnn``````````ndpd```````",
"``````````````````````mmmcaccnnnnnnnneennn```````````oddd```````",
"```````````````````````mmmccnnnnnnnnnnnnn````````````kdhh```````",
"````````````````````````mmmmmmmnnnnnmmnm`````````````dbgb```````",
"``````````````````````````mmmmmmmmmmmm```````````````bggf```````",
"`````````````````````````````mmmmmm`````````````````kgggf```````",
"````````````````````````````````````````````````````kfgg````````",
"```````````````````````````````````````````````````kdbgb````````",
"``````````mmn`````````````````````````````````````oodhhb````````",
"````````mnmmmmn``````````````````````````````````nnpddd`````````",
"```````mmmnnnnmn```````````````````````````````nnnokkk``````````",
"``````mmmnnnnnnmn```````````````````````````nnnnnopooo``````````",
"``````mmnnnonnnnmmmmmmmmmmmmmmmmmmmmnmmmnnnnnneoponoo```````````",
"``````mmnnohdnnnneeeeeeeeeeeeeeeoooooooppppppppenno`````````````",
"``````mmnnodknnnneeeeeooooooooooooooooooenennnmoo```````````````",
"``````nmnnnnnnnmmmmmmmmmmmmmmmmmmmmmmmmmmmmmmm``````````````````",
"``````mmmnnnnnnmn```````````````````````````````````````````````",
"```````mmmmnnmmm````````````````````````````````````````````````",
"````````mmmmmmm`````````````````````````````````````````````````",
"``````````mmm```````````````````````````````````````````````````",
"````````````````````````````````````````````````````````````````",
"````````````````````````````````````````````````````````````````",
"````````````````````````````````````````````````````````````````"
};
