/* XPM */
static char *icon24[] = {
/* width height ncolors chars_per_pixel */
"64 64 14 1",
/* colors */
"` c None",
"a c #78706B",
"b c #5A5357",
"c c #717FCA",
"d c #2A218B",
"e c #929ED3",
"f c #9796A0",
"g c #311FB3",
"h c #6F76A0",
"i c #9F8762",
"j c #25244A",
"k c #29256F",
"l c #51518C",
"m c #4B51B1",
/* pixels */
"````````````````````````````````````````````````````````````````",
"````````````````````````````````````````````````````````````````",
"````````````````````````````````````````````````````````````````",
"```````````````````````````````````````````````````jkk``````````",
"`````````````````````````````````````````````````jkkkkkk````````",
"````````````````````````````````````````````````jjkkkkkkk```````",
"```````````````````````````````````````````````jjjkkklkkkk``````",
"``````````````````ddddddkkkkkkkkkkkkkkkkkkkkkkkkjjkklemkkk``````",
"```````````````kkkkddddlmlllmmlmmmmmmmmmmmmccccmjjkkbclkkj``````",
"`````````````kkkdddddkkkkkkkkkkkkkkkkkkkkkkkkkkkjjkkkkkkkj``````",
"```````````kkkddkkkkjjjjjjjjjjjjjjjjjjjjjjjjjjjjjjjkkkkkkj``````",
"``````````kkddkkjjjj```````````````````````````jjjjjjkkkjj``````",
"``````````kddkkjj```````````````````````````````jjjjjjjjj```````",
"`````````dkdkjj``````````````````````````````````jjjjjjj````````",
"````````dkdkkj`````````````````````````````````````jjj``````````",
"````````kdlkk```````````````````````````````````````````````````",
"````````kldk````````````````````````````````````````````````````",
"```````dklkk`````````````````dddddd`````````````````````````````",
"```````kkmk```````````````aalddddddlai``````````````````````````",
"```````kkmk`````````````allldddddddkblai````````````````````````",
"```````kkmk````````````alaaammddddddddaaa```````````````````````",
"```````kkmk```````````bbaaahmdddddddddlaii``````````````````````",
"```````dkck``````````bbbbaamdddddddddddaaii`````````````````````",
"````````kmmk````````abbbaalkddddddddddddaiia````````````````````",
"````````kkck```````bbbbaalddddddddddddddlaaai```````````````````",
"`````````jmml``````baaaaaldddddddddddddddllbb```````````````````",
"`````````kkcll````abaaaahmddddddddgddddddddddi``````````````````",
"``````````kkclh```bbaaalmmmddddgggggdddddddddb``````````````````",
"```````````kkhchf`jbaaldmmmdddgmmmmggddddddddk``````````````````",
"`````````````kkcchjbbblmldmgdmhceeeccmdddddddkl`````````````````",
"```````````````llhjkbbbllmmmaaaiiiicchaldddddkl`````````````````",
"`````````````````jjjkkllllmlaaaaaiaaaiaalddddkl`````````````````",
"`````````````````jjjkkdddddlbaaaaiaaaaaldddddkl`````````````````",
"`````````````````jjjkkkdddgdbaaaaaaaaaaadddddklhh```````````````",
"`````````````````jjjjkkddddlbaaaaaaaaiaaddkddklflml`````````````",
"``````````````````jjjkkdddddlaaaaaiiaaaldddddk`flkclm```````````",
"``````````````````jjjjkkkkdddlaaaiiiiaadddddkk```kkhmm``````````",
"``````````````````jjjjkkkkkdkkllaiiiiamdddddkk````kkcmd`````````",
"```````````````````jjjkkkkkkkdddbaiiaaldkkkkk``````kkcd`````````",
"```````````````````jjjjkkkkkkdddbaaiahdkkkkkk```````jlcd````````",
"````````````````````jjjjjkkkkkdkkbaiilkkkkkk````````kkck````````",
"`````````````````````jjjjjkkkkkkkbaahldkkkk``````````kmdd```````",
"``````````````````````jjjjkkkkkkkbbammkkkk```````````jdmd```````",
"```````````````````````jjjjjjjkkkkbblddkk````````````jdmd```````",
"````````````````````````jjjjjjjjjjkkkkjj`````````````jdld```````",
"``````````````````````````jjjjjjjjjjjj```````````````kldd```````",
"`````````````````````````````jjjjjj`````````````````kkldk```````",
"````````````````````````````````````````````````````jklk````````",
"```````````````````````````````````````````````````kkddk````````",
"``````````jjk`````````````````````````````````````kkklkk````````",
"````````jjjkkjk``````````````````````````````````kkkldk`````````",
"```````jjkkkkkkk```````````````````````````````kkkkldk``````````",
"``````jjkkkkkkkkk```````````````````````````kkkkkdmdkk``````````",
"``````jjkkklkkkkjjjjjjjjjjjjjjjjjjjjkkkkkkkkkkdlmlkkk```````````",
"``````kkkkbeckkkkdddddddddddddddddlddllmmmmmmmmdkkk`````````````",
"``````jkkklchkkkdddddddlldddllllllllllllddkkkkkkk```````````````",
"``````kjkkkkkkkkjkkkkkkkkkkkkkkkkkkkkkjkjjjjjj``````````````````",
"``````jjkkkkkkkjk```````````````````````````````````````````````",
"```````jjkkkkkjj````````````````````````````````````````````````",
"````````jjjjjjj`````````````````````````````````````````````````",
"``````````jjj```````````````````````````````````````````````````",
"````````````````````````````````````````````````````````````````",
"````````````````````````````````````````````````````````````````",
"````````````````````````````````````````````````````````````````"
};
