/* XPM */
static char *icon16[] = {
/* width height ncolors chars_per_pixel */
"64 64 17 1",
/* colors */
"` c None",
"a c #78706B",
"b c #A3B1D7",
"c c #5A5357",
"d c #717FCA",
"e c #2A218B",
"f c #B5C0D1",
"g c #CDE1F9",
"h c #929ED3",
"i c #9796A0",
"j c #311FB3",
"k c #6F76A0",
"l c #9F8762",
"m c #25244A",
"n c #29256F",
"o c #51518C",
"p c #4B51B1",
/* pixels */
"````````````````````````````````````````````````````````````````",
"````````````````````````````````````````````````````````````````",
"````````````````````````````````````````````````````````````````",
"```````````````````````````````````````````````````mnn``````````",
"`````````````````````````````````````````````````mmmnnnn````````",
"````````````````````````````````````````````````mmnnnnnnn```````",
"```````````````````````````````````````````````mmmmnnonnnn``````",
"``````````````````eeeeeeennnnnnnnnnnnnnnnnnnnnnnmmmnphpnnn``````",
"```````````````nnnneeoooooooooppoppppppppppkkkkpmmnncdonnm``````",
"`````````````nnneeeennnnnnnnnnnnnnnnnnnnnnnnnnnnmmnmnnnnnm``````",
"```````````nnnennnnnmmmmmmmmmmmmmmmmmmmmmmmmmmmmmmmnmnnnnm``````",
"``````````nneennmmmm```````````````````````````mmmmmmnnnmm``````",
"``````````neenmmm```````````````````````````````mmmmmmmmm```````",
"`````````oeenmm``````````````````````````````````mmmmmmm````````",
"````````iopenm`````````````````````````````````````mmm``````````",
"````````hkkoo```````````````````````````````````````````````````",
"````````hddo````````````````````````````````````````````````````",
"```````hhbdk`````````````````alllll`````````````````````````````",
"```````hbgb```````````````aacaaaalllll``````````````````````````",
"```````bfgg`````````````aacaaallllllllaa````````````````````````",
"```````bggg````````````accaallllllllllaaa```````````````````````",
"```````iggg```````````cccaailllllllllllaaa``````````````````````",
"```````ihfh``````````cccaaaiilllllllllaaako`````````````````````",
"````````kddk````````cccaaalllllllllllakpaaok````````````````````",
"````````hpdo```````ccccaaallllllkkkllapjpkppp```````````````````",
"`````````nppo``````ccccooallliiapjppaaoejpppo```````````````````",
"`````````nnkoo````acccooaaallllapjjjpapjjokkap``````````````````",
"``````````nndok```ccaaallaalllapjjjjjjjeeeokkk``````````````````",
"```````````nnkkok`mcaaalllaakakpjjjjjjjeeeeooo``````````````````",
"`````````````nnppocaaaalllllakikjjjjjjeeeeeeeee`````````````````",
"```````````````nnmcaaaalllllllldjjjjjjeeeeeenee`````````````````",
"`````````````````ccaaallllaalllpjjjjjjjeeeeenee`````````````````",
"`````````````````ccaaaaaaaaalaoejpjjjjeeeeennne`````````````````",
"`````````````````cccaaacaaaaaapejjjpjjeeeeennneok```````````````",
"`````````````````mmcccccaaaaaaoeejjjjjeeeeeennenopo`````````````",
"``````````````````mcnnccaaaaaaojopejjjeeeeeeen`nnnkok```````````",
"``````````````````mmnncccaaaaaaopaceeeeeeeeenn```nnkpk``````````",
"``````````````````mmmnncccaaaaaooaceeeeeeeennn````nnkpp`````````",
"```````````````````mmmnnccaaaaapcooeeeeeeeenn``````nndp`````````",
"```````````````````mmmmnncaaaaaceeeeeenneennn```````ppdd````````",
"````````````````````mmmmncaaaaaceeeeennnennn````````pkhd````````",
"`````````````````````mmmmncaalaceeeeenneenn``````````dbbb```````",
"``````````````````````mmmmnncaonnneennnnnn```````````dggf```````",
"```````````````````````mmmmmnnnnnnnnnnnnn````````````bggf```````",
"````````````````````````mmmmmmmmmnnnmmnm`````````````hggg```````",
"``````````````````````````mmmmmmmmmmmm```````````````dggb```````",
"`````````````````````````````mmmmmm`````````````````kdbbb```````",
"````````````````````````````````````````````````````kddd````````",
"```````````````````````````````````````````````````eopdk````````",
"``````````mmn`````````````````````````````````````emnpoo````````",
"````````mmmnnnn``````````````````````````````````nnnoeo`````````",
"```````mmnnnnnnn```````````````````````````````nnnnoen``````````",
"``````mmnnnnnnnnn```````````````````````````nnnnneoene``````````",
"``````mmnnnonnnmnmmmmmmmmmmmmmmmmmmmnnnnnnnnnneooonoe```````````",
"``````mnnnchdnnnneeeeeeeeeeeeeeeeoooooopopppppoenne`````````````",
"``````mnnnndknnmneeeeeeoooooooooooooooooenennnnee```````````````",
"``````nmmnnnnnnnmnnnnnnnnnnnnnnnnnnnnnmmmmmmmm``````````````````",
"``````mmnnnnnnmmn```````````````````````````````````````````````",
"```````mmnnmmnmm````````````````````````````````````````````````",
"````````mmmmmmm`````````````````````````````````````````````````",
"``````````mmm```````````````````````````````````````````````````",
"````````````````````````````````````````````````````````````````",
"````````````````````````````````````````````````````````````````",
"````````````````````````````````````````````````````````````````"
};
