/* XPM */
static char *icon8[] = {
/* width height ncolors chars_per_pixel */
"64 64 16 1",
/* colors */
"` c None",
"a c #78706B",
"b c #A3B1D7",
"c c #5A5357",
"d c #717FCA",
"e c #2A218B",
"f c #B5C0D1",
"g c #CDE1F9",
"h c #929ED3",
"i c #311FB3",
"j c #6F76A0",
"k c #9F8762",
"l c #25244A",
"m c #29256F",
"n c #51518C",
"o c #4B51B1",
/* pixels */
"````````````````````````````````````````````````````````````````",
"````````````````````````````````````````````````````````````````",
"````````````````````````````````````````````````````````````````",
"```````````````````````````````````````````````````lmm``````````",
"`````````````````````````````````````````````````lllmmmm````````",
"````````````````````````````````````````````````lllmmmmmm```````",
"```````````````````````````````````````````````llllmmmmmmm``````",
"``````````````````eeeenjjddhbggggfbdddoemmmmmmmmlllmohommm``````",
"```````````````mmmmeeenoddhbggggggfbhddjooojjjjolllmndnmml``````",
"`````````````mmmeeeeemmnojddhbgggbhddonemmmmmmmmllllmmmmml``````",
"```````````emmeemmmmllllmmjddjjjjjdddmmmmmmmmmmllllllmmmll``````",
"``````````emeemmllmm```````````````````````````lllllllllll``````",
"``````````meemmlm```````````````````````````````lllllllll```````",
"`````````mmemlm``````````````````````````````````lllllll````````",
"````````ememmm`````````````````````````````````````lll``````````",
"````````meemm```````````````````````````````````````````````````",
"````````mnel````````````````````````````````````````````````````",
"```````emnmm`````````````````aaaaaa`````````````````````````````",
"```````mmnm```````````````aaaaoeemmmee``````````````````````````",
"```````mmom`````````````aaaneeeeeeeeemee````````````````````````",
"```````mmom````````````aaaneemmmeeeeeeeee```````````````````````",
"```````mmom```````````aanneemeeeeeeeeeeeem``````````````````````",
"```````emjm``````````aaaneeeeeeeeeeeeeeeeee`````````````````````",
"````````mooe````````aaacnmmeeeeeeeeeeeeeeeen````````````````````",
"````````mmdm```````ccacnemeeeeeeeeeeeeeeeeeee```````````````````",
"`````````moon``````cccnnemeeeeeeeiieeeeeeeeee```````````````````",
"`````````mmjnn````ccaaneeeeeeeeiiieeeeeeeeeeee``````````````````",
"``````````mmdnj```ccaoemeeeeeeeiiiiieeiieeeeee``````````````````",
"```````````mmjjnj`ccaneeeeeeeeiiiiiiieeeeeeeem``````````````````",
"`````````````mmoocccnemmeeeeeeiiiiiiieeeeeeeeee`````````````````",
"```````````````mmcccnmmmeeeeeeiiiiiiieeeeeeeeee`````````````````",
"`````````````````accemmmeeeeeiiiiiiiieeeeeeeeee`````````````````",
"`````````````````acmmmmmeeeeeiiiiiiiiieeeeeeeee`````````````````",
"`````````````````almeemmeeeeeiiiiiiiiiieeeeeeeenj```````````````",
"`````````````````lmmemmeeeeiiiiiiieiiieeeeeeemmmnon`````````````",
"``````````````````lmmceenncanneeieiiiiieeeeemm`mmmjnj```````````",
"``````````````````lmcccennaaaneeiiiieieeeemmmm```mmjoj``````````",
"``````````````````llccneenoojniiiiiiieeeemmmmm````mmjne`````````",
"```````````````````lmcmeenaaaajjniieiieeemmmm``````mmde`````````",
"```````````````````lllmmeaakkkkanniiiieeemmmm```````lnje````````",
"````````````````````lllmcakkkkkkaceeeeeemmmm````````mmjm````````",
"`````````````````````lllcaaakkkkkcmeeeemmmm``````````moee```````",
"``````````````````````lllcccaaaaanmmmeemmm```````````lene```````",
"```````````````````````lllmcmmmmmmmmmmmmm````````````lene```````",
"````````````````````````lllllllmmmmmmmml`````````````lene```````",
"``````````````````````````llllllllllll```````````````meee```````",
"`````````````````````````````llllll`````````````````mmnee```````",
"````````````````````````````````````````````````````lmnm````````",
"```````````````````````````````````````````````````mmeem````````",
"``````````llm`````````````````````````````````````mmmnmm````````",
"````````llllllm``````````````````````````````````mmmnen`````````",
"```````lllmmmmlm```````````````````````````````mmmmnem``````````",
"``````lllmmmmmmlm```````````````````````````mmmmmenemm``````````",
"``````llmmmnmmmlmmmmmmmmmmjjdhbbgfbhddonemmmmmenonmmm```````````",
"``````llmmnhdmmmmeeeeeeenoddhbgggggbbdddjooooooemmm`````````````",
"``````llmmmdjmmleeeeeeeenoddhbgggggfbddjoeemmmmmm```````````````",
"``````mllmmmmmmllmmmmmmmmmnjddhbbbhdjjoneeeeee``````````````````",
"``````lllmmmmmllm```````````````````````````````````````````````",
"```````lllllllll````````````````````````````````````````````````",
"````````lllllll`````````````````````````````````````````````````",
"``````````lll```````````````````````````````````````````````````",
"````````````````````````````````````````````````````````````````",
"````````````````````````````````````````````````````````````````",
"````````````````````````````````````````````````````````````````"
};
