/* XPM */
static char *icon10[] = {
/* width height ncolors chars_per_pixel */
"64 64 16 1",
/* colors */
"` c None",
"a c #78706B",
"b c #A3B1D7",
"c c #5A5357",
"d c #717FCA",
"e c #2A218B",
"f c #B5C0D1",
"g c #CDE1F9",
"h c #929ED3",
"i c #311FB3",
"j c #6F76A0",
"k c #9F8762",
"l c #25244A",
"m c #29256F",
"n c #51518C",
"o c #4B51B1",
/* pixels */
"````````````````````````````````````````````````````````````````",
"````````````````````````````````````````````````````````````````",
"````````````````````````````````````````````````````````````````",
"```````````````````````````````````````````````````lmm``````````",
"`````````````````````````````````````````````````llmmmmm````````",
"````````````````````````````````````````````````llmmmmmmm```````",
"```````````````````````````````````````````````llmmmmemmmm``````",
"``````````````````bbbgggggbhddoeemmmmmmmmmmmmmmllmmmnhommm``````",
"```````````````jjjdhgggggggbhddjoooooooooojjjjdollmmndnmml``````",
"`````````````mmojddhbggggbhddjnemmmmmmmmmmmmmmmmllmmmmmmml``````",
"```````````emmnooojnnjdddjnmmmmmmmmmmmmmmmmmmmmllllmmmmmml``````",
"``````````emeemmmmnn```````````````````````````lllllmmmmll``````",
"``````````memmmlm```````````````````````````````lllllllll```````",
"`````````meemlm``````````````````````````````````lllllll````````",
"````````emnmlm`````````````````````````````````````lll``````````",
"````````menmm```````````````````````````````````````````````````",
"````````mnem````````````````````````````````````````````````````",
"```````emnmm`````````````````aaaaaa`````````````````````````````",
"```````mmom```````````````aaaacneemmne``````````````````````````",
"```````mmom`````````````aaaaaoeemmmmmmme````````````````````````",
"```````mmom````````````acaaaaoeeeeeeeemmn```````````````````````",
"```````mmom```````````ccakaanoemeeeeeeeeem``````````````````````",
"```````emje``````````ccakaaconeeeeeeeeeeemm`````````````````````",
"````````mooe````````aaakkajooneeeeeeeeeeeemn````````````````````",
"````````mmdm```````aaakkajdjoieeeeeeeeeeeeeme```````````````````",
"`````````loon``````caakaajdoeeeeeeeeeeeeeeeem```````````````````",
"`````````mmdnn````aaaaaaaajieeeeieeeeeeeeeeeee``````````````````",
"``````````mmdnj```aaaaaaajoeeeeeiieeeeeeeeeeee``````````````````",
"```````````mljjnj`caaaaajoieeeeiiiiiiieeeeeeem``````````````````",
"`````````````mmoonccaaajoeooeeeiiiiiiiieeeeeeme`````````````````",
"```````````````mmlccccaaoeoooniiiiiiiiiieeeeeee`````````````````",
"`````````````````lccccaaneooneeiioooooiiieieeme`````````````````",
"`````````````````lccmnaaooooiooddjjajoiiiiieeme`````````````````",
"`````````````````lllmenoooaanoooddddoiiiiiiimmmnj```````````````",
"`````````````````lllmenjjjaaaoeoojddoiiiiiiemmlmnon`````````````",
"``````````````````lmmmmnjjoooioodjdjadooiieemm`mmmjnj```````````",
"``````````````````lmlmmmcnaoeiojakkkkkaoiieemm```mmjoj``````````",
"``````````````````lllmmmmmemeeoakkkkkkkceieemm````mldoe`````````",
"```````````````````lllmmmmmmmojkkkkkkkkneeeem``````mmdm`````````",
"```````````````````llllmmmmmeakkkkkkkkameeemm```````lnje````````",
"````````````````````lllmmmmmmnaaaaanaaneeemm````````mmjm````````",
"`````````````````````llllmmmmmcccnemmeemmmm``````````moee```````",
"``````````````````````llllmmmmmmmmmmmmmmmm```````````lnoe```````",
"```````````````````````llllmmmmmmmmmmmmmm````````````lmoe```````",
"````````````````````````lllllmmmmmmmmmml`````````````lmoe```````",
"``````````````````````````llllllllllll```````````````mnne```````",
"`````````````````````````````llllll`````````````````mmnee```````",
"````````````````````````````````````````````````````mmom````````",
"```````````````````````````````````````````````````mlmnm````````",
"``````````llm`````````````````````````````````````mmmomm````````",
"````````llmmmlm``````````````````````````````````mmmnem`````````",
"```````llmmmmmmm```````````````````````````````mmmmnem``````````",
"``````llmmmmmmmlm```````````````````````````jjmemeoemm``````````",
"``````lmmmmemmmmmmmmmmmmmmmmmmmmmjjddhbfgfbhddddoommm```````````",
"``````mmmmnhdmmmmeeeeeeeeeeeeennodddhggggggfbhdjnmm`````````````",
"``````lmmmedjmmmmeeeenennnnnnnnnoddhbgggggfbhdjjj```````````````",
"``````mlmmmmmmmmlmmmmmmmmmmmmmmmmmnjddhbbbbhhh``````````````````",
"``````llmmmmmmmlm```````````````````````````````````````````````",
"```````llmmmmmll````````````````````````````````````````````````",
"````````lllllll`````````````````````````````````````````````````",
"``````````lll```````````````````````````````````````````````````",
"````````````````````````````````````````````````````````````````",
"````````````````````````````````````````````````````````````````",
"````````````````````````````````````````````````````````````````"
};
