/* XPM */
static char *icon13[] = {
/* width height ncolors chars_per_pixel */
"64 64 17 1",
/* colors */
"` c None",
"a c #78706B",
"b c #A3B1D7",
"c c #5A5357",
"d c #717FCA",
"e c #2A218B",
"f c #B5C0D1",
"g c #CDE1F9",
"h c #929ED3",
"i c #9796A0",
"j c #311FB3",
"k c #6F76A0",
"l c #9F8762",
"m c #25244A",
"n c #29256F",
"o c #51518C",
"p c #4B51B1",
/* pixels */
"````````````````````````````````````````````````````````````````",
"````````````````````````````````````````````````````````````````",
"````````````````````````````````````````````````````````````````",
"```````````````````````````````````````````````````mnn``````````",
"`````````````````````````````````````````````````mmmnnnn````````",
"````````````````````````````````````````````````mmnnnnnnn```````",
"```````````````````````````````````````````````mmmmnnonnnn``````",
"``````````````````eeeeeeenneennnnnnnnnnnnnnnnnnnmmmnohpnnn``````",
"```````````````hddppeepoooooppppppppppppppkkkkdpmmnnodonnm``````",
"`````````````bhhddkpennnnnnnnnnnnnnnnnnnnnnnnnnnmmmmnnnnnm``````",
"```````````fffgbddonnmmmmmmmmmmmmmmmmmmmmmmmmmmmmmmmmnnnmm``````",
"``````````bgggghkcee```````````````````````````mmmmmmmmmmm``````",
"``````````ggggbkk```````````````````````````````mmmmmmmmm```````",
"`````````hggfbi``````````````````````````````````mmmmmmm````````",
"````````hdbbhh`````````````````````````````````````mmm``````````",
"````````kdddk```````````````````````````````````````````````````",
"````````oddk````````````````````````````````````````````````````",
"```````eeppp`````````````````aaaaaa`````````````````````````````",
"```````nnpn```````````````cacaalaaooon``````````````````````````",
"```````nnpn`````````````cccaaalllacooenn````````````````````````",
"```````nepn````````````accallllllkkkpjeno```````````````````````",
"```````nnpn```````````ccallllllllakkpeeeen``````````````````````",
"```````enkn``````````ccallllllllllakpeeeeen`````````````````````",
"````````nppe````````acalllllllllllakpeeeeeno````````````````````",
"````````nndn```````ccallllllllllladppjeeeeeen```````````````````",
"`````````mppo``````caalllllllllllkdpppoeeeeee```````````````````",
"`````````nndoo````acaaallllllaalladpjppoeeeeen``````````````````",
"``````````nndok```ccaaalllllkpkkiidppppjjjjjee``````````````````",
"```````````nnkkok`ccaaaaallapjpddddpkkopppocoe``````````````````",
"`````````````nnppoccaaoepalopejpdhddiaakpppkoee`````````````````",
"```````````````nnmccaaoeeoaopejjdddhiddpjppkkee`````````````````",
"`````````````````accaceeeeopoeejpddidkppppkakoe`````````````````",
"`````````````````acccneeeeeeeeeeejppppeepalllkk`````````````````",
"`````````````````accccneeeeeeeeeeeeeeeeekllllankk```````````````",
"`````````````````accccnneeeeeeeeeeeeeeepallllannppo`````````````",
"``````````````````ccccnneeeeeeeeeeeeeeeklllllc`nnnkok```````````",
"``````````````````cccmneeeeeeeeeeeeeeeeallaaac```nnkpk``````````",
"``````````````````cccmmeeeeeeeeeeeeeeeeoaceocn````nndpe`````````",
"```````````````````cccnneeeeeeeeeeeeeeennneen``````nnde`````````",
"```````````````````cccmnneeeeeeeeeeeeeeeennnn```````moke````````",
"````````````````````cccccneneeeeeeeeeeeennnn````````nnkn````````",
"`````````````````````ccmnmmnnnneeeeeeeeennn``````````npee```````",
"``````````````````````ccmnnnnnnneeeeennnnn```````````meoe```````",
"```````````````````````cmmnnnnnnneennnnnn````````````mepe```````",
"````````````````````````mmmmnnnnmennnnnm`````````````meoe```````",
"``````````````````````````mmmmmmmmnmmm```````````````neee```````",
"`````````````````````````````mmmmmm`````````````````ooppe```````",
"````````````````````````````````````````````````````okdp````````",
"```````````````````````````````````````````````````kdddd````````",
"``````````mmn`````````````````````````````````````idbbhh````````",
"````````mmmmmnn``````````````````````````````````hbfggh`````````",
"```````mmmnnnnmn```````````````````````````````ihbgggf``````````",
"``````mmmnnnnnnmn```````````````````````````kkkdbfgggb``````````",
"``````mmnnnonnnmnnnnnnnnnnnnnnnnneeennnnnnneokdhbffgf```````````",
"``````mmnnohdnnnneeeeeeeeeeeeeeeeeoepopppppkdddddhh`````````````",
"``````mmnnndknnmeeeeeeooeeeeoooooopppoooeeenopkkk```````````````",
"``````nmmnnnnnnmmnnnnnnnnnnnnnnnnnnnnnmnnnnnnn``````````````````",
"``````mmmnnnnnmmn```````````````````````````````````````````````",
"```````mmmnmmmmm````````````````````````````````````````````````",
"````````mmmmmmm`````````````````````````````````````````````````",
"``````````mmm```````````````````````````````````````````````````",
"````````````````````````````````````````````````````````````````",
"````````````````````````````````````````````````````````````````",
"````````````````````````````````````````````````````````````````"
};
