/* XPM */
static char *icon11[] = {
/* width height ncolors chars_per_pixel */
"64 64 17 1",
/* colors */
"` c None",
"a c #78706B",
"b c #A3B1D7",
"c c #5A5357",
"d c #717FCA",
"e c #2A218B",
"f c #B5C0D1",
"g c #CDE1F9",
"h c #929ED3",
"i c #9796A0",
"j c #311FB3",
"k c #6F76A0",
"l c #9F8762",
"m c #25244A",
"n c #29256F",
"o c #51518C",
"p c #4B51B1",
/* pixels */
"````````````````````````````````````````````````````````````````",
"````````````````````````````````````````````````````````````````",
"````````````````````````````````````````````````````````````````",
"```````````````````````````````````````````````````mnn``````````",
"`````````````````````````````````````````````````mmnnnnn````````",
"````````````````````````````````````````````````mmnnnnnnn```````",
"```````````````````````````````````````````````mmnnnnonnnn``````",
"``````````````````fffbbhddpnnnnnnnnnnnnnnnnnnnnnmnnnphpnnn``````",
"```````````````bbggggggbdddpppooopppppppppkddddkmmnnodonnm``````",
"`````````````ddhbgggffbddkponnnnnnnnnnnnnnnnnnnnmmnnnnnnnm``````",
"```````````okddhhbbbbdkoonmmmmmmmmmmmmmmmmmmmmmmmmmnnnnnnm``````",
"``````````eopddddoko```````````````````````````mmmmmnnnnmm``````",
"``````````nepoooo```````````````````````````````mmmmmmmmm```````",
"`````````nnenmn``````````````````````````````````mmmmmmm````````",
"````````enonnn`````````````````````````````````````mmm``````````",
"````````neonn```````````````````````````````````````````````````",
"````````noem````````````````````````````````````````````````````",
"```````enonn`````````````````aaaaaa`````````````````````````````",
"```````nnpn```````````````aaaakoeennnn``````````````````````````",
"```````nnon`````````````aaaaaakojnnnnnnn````````````````````````",
"```````nepn````````````acaaalaopoennnnnnn```````````````````````",
"```````nnpn```````````ccaallaaopoennnnnnnn``````````````````````",
"```````endn``````````caalllakkdpjeennnnnenn`````````````````````",
"````````nope````````aaalllladddpjeeeeeeeennn````````````````````",
"````````nndn```````caallllaakkpeeeeeeeeeeennn```````````````````",
"`````````mppo``````callllaalkdpeeeeeeeeeeeenn```````````````````",
"`````````nndoo````acalalaaaaapjeeeeeeeeeeeenen``````````````````",
"``````````nndok```aaaaaaaaakpjpjeejjjjeeeeeene``````````````````",
"```````````nnkdok`caaaaaaaadjjpppjjjjeeejjeenn``````````````````",
"`````````````nnkpmcaaaaaaaapojpddpjjjjjjjjjeene`````````````````",
"```````````````nnmccaaooaaakpppppppppkpppjeeene`````````````````",
"`````````````````mmcccejpkkpjkkpppddkkakpeeeeee`````````````````",
"`````````````````mmncceeekkkpaakdpppdddpejejeee`````````````````",
"`````````````````mmmccneekkkkkakppppkddkppjjennok```````````````",
"`````````````````mmnnnnneooakkkppppdlalakkpeennnooo`````````````",
"``````````````````mmnnnnneeoopoeejkllllllaojen`nnndok```````````",
"``````````````````mnnnnnnnnnenenepkllllllaojen```nnkpk``````````",
"``````````````````mmmnnnnnnnnnnepklllllllaneen````nndpe`````````",
"```````````````````mmnnnnnnnnnnekllllllllcenn``````nnde`````````",
"```````````````````mmnnnnnnnnnnnoaaaaooccennn```````mode````````",
"````````````````````mmmmnnnnnnnnnocoennnnnnn````````nndn````````",
"`````````````````````mnmnnnnnnnnnnnnnnnnnnn``````````npee```````",
"``````````````````````mmmnnnnnnnnnnnnnnnnn```````````mope```````",
"```````````````````````mmmmnnnnnnnnnnnnnn````````````mnpe```````",
"````````````````````````mmmmmnnnnnnnmnnm`````````````mnoe```````",
"``````````````````````````mmmmmnmmmmmm```````````````nooe```````",
"`````````````````````````````mmmmmm`````````````````nnoee```````",
"````````````````````````````````````````````````````mnon````````",
"```````````````````````````````````````````````````nneon````````",
"``````````mmn`````````````````````````````````````nmnonn````````",
"````````mnnnnmn``````````````````````````````````nnnoen`````````",
"```````mmnnnnnnn```````````````````````````````pppopen``````````",
"``````mmnnnnnnnnn```````````````````````````bbdddddpon``````````",
"``````mnnnnonnnnmnnnnnnnnnnnnnnnneeeeekkdhbgggfbbdkkn```````````",
"``````mnnnohdnnnneeeeeeeeeeeeeooooeopddhbgfggggbhdk`````````````",
"``````mnnnndknnnneeeeoeeoooooooooooppdddhbggfgbhi```````````````",
"``````nmnnnnnnnnmnnnnnnnnnnnnnnnnnnnneeekdhbbb``````````````````",
"``````mmnnnnnnnmn```````````````````````````````````````````````",
"```````mmnnnnnmm````````````````````````````````````````````````",
"````````mmmmmmm`````````````````````````````````````````````````",
"``````````mmm```````````````````````````````````````````````````",
"````````````````````````````````````````````````````````````````",
"````````````````````````````````````````````````````````````````",
"````````````````````````````````````````````````````````````````"
};
