/* XPM */
static char *icon7[] = {
/* width height ncolors chars_per_pixel */
"64 64 16 1",
/* colors */
"` c None",
"a c #78706B",
"b c #A3B1D7",
"c c #5A5357",
"d c #717FCA",
"e c #2A218B",
"f c #B5C0D1",
"g c #CDE1F9",
"h c #929ED3",
"i c #311FB3",
"j c #6F76A0",
"k c #9F8762",
"l c #25244A",
"m c #29256F",
"n c #51518C",
"o c #4B51B1",
/* pixels */
"````````````````````````````````````````````````````````````````",
"````````````````````````````````````````````````````````````````",
"````````````````````````````````````````````````````````````````",
"```````````````````````````````````````````````````lmm``````````",
"`````````````````````````````````````````````````lllmmmm````````",
"````````````````````````````````````````````````llmmmmmmm```````",
"```````````````````````````````````````````````llmlmmnmmmm``````",
"``````````````````eeeeeemmennddhbgfggbhddonemmmllmlmnhommm``````",
"```````````````mmmmeennnnnnoddhbgfggfggbhdddjddollmmndnmml``````",
"`````````````mmmeeeemmmmmmmnnjddhbgggbhddnnmmmmmllmlmmmmmm``````",
"```````````emmeemmlmllllllllnnnjjjjjjjjnnnnnnmmllllmlmmmml``````",
"``````````emeemmllmm```````````````````````````lllllmmmmll``````",
"``````````meemmlm```````````````````````````````lllllllll```````",
"`````````mmemlm``````````````````````````````````lllllll````````",
"````````emnmmm`````````````````````````````````````lll``````````",
"````````menmm```````````````````````````````````````````````````",
"````````mnem````````````````````````````````````````````````````",
"```````emnmm`````````````````aaaaaa`````````````````````````````",
"```````mmom```````````````naacnmmnnaaa``````````````````````````",
"```````mmnm`````````````aannneeeeeeecaaa````````````````````````",
"```````mmom````````````aaneemeeeeeeeeenca```````````````````````",
"```````mmom```````````cnnemmmmeeeeeeeeeeen``````````````````````",
"```````emdm``````````ccnmmmmeeeeeeeeeeeeeen`````````````````````",
"````````mooe````````cccmmmeeeeeeeeeeeeeeeeen````````````````````",
"````````mmdm```````cccmmmeeeeeeeeieeeeeeeeeee```````````````````",
"`````````moon``````ccmmmmemeeeeeeeeeeeeeeeeee```````````````````",
"`````````mmdnn````ccnmmmmmeeeeeieeeeeeeeeeeeee``````````````````",
"``````````mmdnj```ccmmmmmeeeeeiiiiiiieeeeeeeee``````````````````",
"```````````mljjnj`cnemmmeeeeeeeiiiiiiieeeeeeee``````````````````",
"`````````````mmoolcmmmemeeeeeeeiiiiiiieeeeeeeee`````````````````",
"```````````````mmlcmmmeemeeeeiiiiiiiiieeeeeeeee`````````````````",
"`````````````````llmmmemmeeeeeiiiiiiieeeeeeeeee`````````````````",
"`````````````````lmmmmmeeeeeeeiiiiiiiieeeiieeee`````````````````",
"`````````````````lllmmeeeeeeeeeeeiiiieeeiieeeeenj```````````````",
"`````````````````llmlmmeeeiiiieeeiieeeeeeeeeeemmnon`````````````",
"``````````````````mmmmmmeeeeeeeeieieeeeeeeeeem`mmmjnj```````````",
"``````````````````llmmmccnneeeiiieeeeeeeeeeemn```mmjoj``````````",
"``````````````````llmmmccnneeeeeiiieeeeeeemmmm````mmdoe`````````",
"```````````````````llmmnnneeeeeeeeeeeeemmmmmm``````mmde`````````",
"```````````````````llmmcnacnneeeieeeemmmmmmmm```````lnje````````",
"````````````````````llmccaaaanneeeeeeemmmmmm````````mmdm````````",
"`````````````````````llccakaacneeeenemmmmmm``````````moee```````",
"``````````````````````lcccakkacmmeenemmmmm```````````lnne```````",
"```````````````````````llccccccmmmmemmmmm````````````lene```````",
"````````````````````````lllllllmmmmmmmml`````````````lene```````",
"``````````````````````````llllllllmlll```````````````mnee```````",
"`````````````````````````````llllll`````````````````mmnee```````",
"````````````````````````````````````````````````````lmnm````````",
"```````````````````````````````````````````````````mlenm````````",
"``````````llm`````````````````````````````````````mmmnmm````````",
"````````llmmmmm``````````````````````````````````mmmnen`````````",
"```````llmmmmmmm```````````````````````````````mmmmnem``````````",
"``````llmmmmmmmmm```````````````````````````mmmmmenemm``````````",
"``````lmmmmnmmmlmmeeeejjdhbbgfbhddjjnmlmmmmmmmennnmmm```````````",
"``````lmmmnhdmmmmeeeeoddhbgfgfggbdddonnonooooonemmm`````````````",
"``````lmmmmdjmmlmeeenoddhbgfgfggbhddonnnememmmmmm```````````````",
"``````mllmmmmmmmlmmmmmnjjdhbbbhdddnnmmlmeeeeee``````````````````",
"``````llmlmmmmllm```````````````````````````````````````````````",
"```````llmmllmll````````````````````````````````````````````````",
"````````lllllll`````````````````````````````````````````````````",
"``````````lll```````````````````````````````````````````````````",
"````````````````````````````````````````````````````````````````",
"````````````````````````````````````````````````````````````````",
"````````````````````````````````````````````````````````````````"
};
