/* XPM */
static char *icon5[] = {
/* width height ncolors chars_per_pixel */
"64 64 15 1",
/* colors */
"` c None",
"a c #78706B",
"b c #A3B1D7",
"c c #5A5357",
"d c #717FCA",
"e c #2A218B",
"f c #CDE1F9",
"g c #929ED3",
"h c #311FB3",
"i c #6F76A0",
"j c #9F8762",
"k c #25244A",
"l c #29256F",
"m c #51518C",
"n c #4B51B1",
/* pixels */
"````````````````````````````````````````````````````````````````",
"````````````````````````````````````````````````````````````````",
"````````````````````````````````````````````````````````````````",
"```````````````````````````````````````````````````kll``````````",
"`````````````````````````````````````````````````kklllll````````",
"````````````````````````````````````````````````kklllllll```````",
"```````````````````````````````````````````````nkllllmllll``````",
"``````````````````eeeeeellllllllllemnddgfffffgdnklllmgnlll``````",
"```````````````lllleemmmmmmmmmmmnnndddbfffffffbdkkllmdnlll``````",
"`````````````llleeeelllllllllllllllmmddgbfffbddmkkllllllll``````",
"```````````ellelllllklkkkkkkkkkkkkkkkmddiiiiiddnkkkllllllk``````",
"``````````eleellkkll```````````````````````````nkkkkllllkk``````",
"``````````leellkl```````````````````````````````kkkkkkkkk```````",
"`````````llelkl``````````````````````````````````kkkkkkk````````",
"````````elmlll`````````````````````````````````````kkk``````````",
"````````lemll```````````````````````````````````````````````````",
"````````lmel````````````````````````````````````````````````````",
"```````elmll`````````````````aaaaaa`````````````````````````````",
"```````llnl```````````````aaaaaaaaacaa``````````````````````````",
"```````llnl`````````````aacccmcaajjaaaaa````````````````````````",
"```````llnl````````````ammeeeeemajjjjjaaa```````````````````````",
"```````llnl```````````cmmleeeeeeemmajjammm``````````````````````",
"```````elil``````````cllllleeeeeeeemnmaammm`````````````````````",
"````````lnne````````clllllleeeeeeeeeeeemmmma````````````````````",
"````````lldl```````klkllllleeeeeeeeeeeeeheema```````````````````",
"`````````lnnm``````lkllllleeeeeeeeeeeeeeeeeec```````````````````",
"`````````lldmm````kkklllleeeeeeeeeeeeeeeeeeela``````````````````",
"``````````lldmi```kkkllleeeeeeeehhhheeeeeeeeec``````````````````",
"```````````lliimi`kkklleeeeeeeehhhhhheeeeeeeel``````````````````",
"`````````````llnnkkkklleeeeeeeehhhhhhheeeeeeela`````````````````",
"```````````````llkkklleeeeeeeeehhhhhheeeeeeeeea`````````````````",
"`````````````````kkkllllleeeeeehhhhhheeeeeeeeea`````````````````",
"`````````````````kkkkllllleeeeehhhhhheeeeeeeeea`````````````````",
"`````````````````kkkkllllleeeeeeeehhheeeeeeeeelmi```````````````",
"`````````````````kkkllllllleeeeeeeeeeeeeeeeeelllmnm`````````````",
"``````````````````kkllllllleeeeeeehhheeeeeeeel`lllimi```````````",
"``````````````````kkllllllleeeeeeeeeeeeeeeeeec```llini``````````",
"``````````````````kkllellleeeeeeeeeeeeeeeeeela````lldne`````````",
"```````````````````kklleeeeeeeeeeeeeeeeeeeell``````llde`````````",
"```````````````````kklllleeeellleeeeeeeeeeela```````kmie````````",
"````````````````````kklllleeellllllllllllllc````````llil````````",
"`````````````````````kklllllellllllllllllll``````````lnee```````",
"``````````````````````kkklllllllllllllllll```````````kmme```````",
"```````````````````````kkklllllllllllllkl````````````leme```````",
"````````````````````````kkkklllllkkklklk`````````````keme```````",
"``````````````````````````kkkkkkkkkkkk```````````````lmee```````",
"`````````````````````````````kkkkkk`````````````````llmee```````",
"````````````````````````````````````````````````````klml````````",
"```````````````````````````````````````````````````llemm````````",
"``````````kkl`````````````````````````````````````lllmll````````",
"````````kklllll``````````````````````````````````lllmlm`````````",
"```````kklllllll```````````````````````````````llllmel``````````",
"``````kkllllllllm```````````````````````````lllllemlll``````````",
"``````kllllmllllmdgbbfbbgidnnmllllllllllllllllemnmlml```````````",
"``````klllmgdlllddbfffffbgddnmeeemmmmmmnnnnnnnnelll`````````````",
"``````klllmdilllddbfffffbgddnmmmmmmmmmmmellllllll```````````````",
"``````lkllllllllmddgbfbgdiimllllllllllkleeeeee``````````````````",
"``````kklllllllkm```````````````````````````````````````````````",
"```````kklllllkk````````````````````````````````````````````````",
"````````kkkkkkk`````````````````````````````````````````````````",
"``````````kkk```````````````````````````````````````````````````",
"````````````````````````````````````````````````````````````````",
"````````````````````````````````````````````````````````````````",
"````````````````````````````````````````````````````````````````"
};
