/* XPM */
static char *icon1[] = {
/* width height ncolors chars_per_pixel */
"64 64 13 1",
/* colors */
"` c None",
"a c #78706B",
"b c #5A5357",
"c c #717FCA",
"d c #2A218B",
"e c #929ED3",
"f c #311FB3",
"g c #6F76A0",
"h c #9F8762",
"i c #25244A",
"j c #29256F",
"k c #51518C",
"l c #4B51B1",
/* pixels */
"````````````````````````````````````````````````````````````````",
"````````````````````````````````````````````````````````````````",
"````````````````````````````````````````````````````````````````",
"```````````````````````````````````````````````````ijj``````````",
"`````````````````````````````````````````````````iiijjjj````````",
"````````````````````````````````````````````````iijjjjjjj```````",
"```````````````````````````````````````````````iiiijjkjjjj``````",
"``````````````````dddddddjjjjjjjjjjjjjjjjjjjjjjjiiijleljjj``````",
"```````````````jjjdddkkkllkkllkkkllllllllllccccliijjkckjji``````",
"`````````````jjddddddjjjjjjjjjjjjjjjjjjjjjjjjjjjiijijjjjjj``````",
"```````````djdddjjjjiiiiiiiiiiiiiiiiiiiiiiiiiiiiiiijijjjji``````",
"``````````djddjjiijj```````````````````````````iiiiiijjjii``````",
"``````````jddjjij```````````````````````````````iiiiiiiii```````",
"`````````jddjij``````````````````````````````````iiiiiii````````",
"````````djkdjj`````````````````````````````````````iii``````````",
"````````jdkjj```````````````````````````````````````````````````",
"````````jkdi````````````````````````````````````````````````````",
"```````djkjj`````````````````kkklll`````````````````````````````",
"```````jjlj```````````````kakkkblldddd``````````````````````````",
"```````jjkj`````````````abkgaaaalldjdddd````````````````````````",
"```````jjlj````````````abbbaaaagldddddddd```````````````````````",
"```````jjlj```````````bbbaaaaaagddddddddjd``````````````````````",
"```````djcd``````````bbaaaaaaaakdddddddddjd`````````````````````",
"````````jkld````````bjbaaahhaaaglddddddddddd````````````````````",
"````````jjcj```````ijjbahhhhaglcllfdfddddddjd```````````````````",
"`````````jlld``````iijbahhhhgfllllldffffddddd```````````````````",
"`````````jjckg````iiijbaahhaklglllfllggggldjdd``````````````````",
"``````````jjgkg```iiijdkkaaaagagcclgaaaaaggkdd``````````````````",
"```````````jjgckg`iijjddddkbkkklccgaaaaaaaaabj``````````````````",
"`````````````jjlliiijjjddddddffffllaaaaaaaaabjj`````````````````",
"```````````````jjiiijjjddddddffffflgaaaaaaaabjj`````````````````",
"`````````````````iiiijjjdddddffffflgaaaaaaaabdj`````````````````",
"`````````````````iiiijjjdddddfffffllaaaaaaaabjj`````````````````",
"`````````````````iiiijjjddddddffffffkaaahhhakdjkl```````````````",
"`````````````````iiiijjjjddddddddddddkkahhabdjjjkkk`````````````",
"``````````````````iiijjjjdddddddddddddkahhhkdj`jjjckl```````````",
"``````````````````iiiijjjjddddddddddddkahhakjj```jjgll``````````",
"``````````````````iiiijjjjjddddddddddddbahkdjj````jjcld`````````",
"```````````````````iiiijjjjddddddddddddbhhkjj``````jjcd`````````",
"```````````````````iiiijjjjjdddddddddddbagjij```````ikcd````````",
"````````````````````iiiijjjjdddddddddjdkaljj````````jjcj````````",
"`````````````````````iiiijjjjdddddddjdjkkdj``````````jldd```````",
"``````````````````````iiiiijjjjjjjjjjjjbdj```````````ikld```````",
"```````````````````````iiiiiiijjjjjjjijjj````````````idld```````",
"````````````````````````iiiiiiiijjiiiiji`````````````idld```````",
"``````````````````````````iiiiiiiiiiii```````````````jkdd```````",
"`````````````````````````````iiiiii`````````````````jjkdd```````",
"````````````````````````````````````````````````````ijlj````````",
"```````````````````````````````````````````````````jjdkj````````",
"``````````iij`````````````````````````````````````jjjldj````````",
"````````iiijjij``````````````````````````````````jjjkdj`````````",
"```````iijjjjjjj```````````````````````````````jjjjkdj``````````",
"``````iijjjjjjjjj```````````````````````````jjjjjdldjj``````````",
"``````iijjjkjjjiijjjjjjjjjjjjjjjjjjjjjjjjjjjjjdklkjjj```````````",
"``````ijjjkecjjjjddddddddddddddddkkklkkkklllllkdjjj`````````````",
"``````ijjjjcgjjidddddddkkkkkkkkkkkkkkkkkdddjjjjjj```````````````",
"``````jiijjjjjjjijjjjjjjjjjjjjjjjjjjjjijdddddd``````````````````",
"``````iijjjjjjiii```````````````````````````````````````````````",
"```````iijjiijii````````````````````````````````````````````````",
"````````iiiiiii`````````````````````````````````````````````````",
"``````````iii```````````````````````````````````````````````````",
"````````````````````````````````````````````````````````````````",
"````````````````````````````````````````````````````````````````",
"````````````````````````````````````````````````````````````````"
};
