/* XPM */
static char *icon14[] = {
/* width height ncolors chars_per_pixel */
"64 64 17 1",
/* colors */
"` c None",
"a c #78706B",
"b c #A3B1D7",
"c c #5A5357",
"d c #717FCA",
"e c #2A218B",
"f c #B5C0D1",
"g c #CDE1F9",
"h c #929ED3",
"i c #9796A0",
"j c #311FB3",
"k c #6F76A0",
"l c #9F8762",
"m c #25244A",
"n c #29256F",
"o c #51518C",
"p c #4B51B1",
/* pixels */
"````````````````````````````````````````````````````````````````",
"````````````````````````````````````````````````````````````````",
"````````````````````````````````````````````````````````````````",
"```````````````````````````````````````````````````mnn``````````",
"`````````````````````````````````````````````````mmnnnnn````````",
"````````````````````````````````````````````````mmnnnnnnn```````",
"```````````````````````````````````````````````mmmnnncnnnn``````",
"``````````````````eeeeeeennnnnnnnnnnnnnnnnnnnnnmmmnnphonnn``````",
"```````````````konneeeeoooooppoppppppppppppdddkpmmnncdonnm``````",
"`````````````kppeeeennnnnnnnnnnnnnnnnnnnnnnnnnnmmmnnnnnnnm``````",
"```````````bddkpenmmmmmmmmmmmmmmmmmmmmmmmmmmmmmmmmmnnnnnnm``````",
"``````````hddddonmmm```````````````````````````mmmmmmnnnmm``````",
"``````````bbbdkoo```````````````````````````````mmmmmmmmm```````",
"`````````fggbdk``````````````````````````````````mmmmmmm````````",
"````````bgggbi`````````````````````````````````````mmm``````````",
"````````bgggh```````````````````````````````````````````````````",
"````````hggb````````````````````````````````````````````````````",
"```````ddbhh`````````````````aaaaaa`````````````````````````````",
"```````kddd```````````````caccaaaaacan``````````````````````````",
"```````kodo`````````````cccaaalllllaapon````````````````````````",
"```````nede````````````acaallllllllakkpeo```````````````````````",
"```````nnpn```````````ccallllllllllllkoenn``````````````````````",
"```````ende``````````ccalllllllllllaaaoeenn`````````````````````",
"````````mppe````````acaalllllllllllaadpeeeeo````````````````````",
"````````nndn```````cccaallllllllllllkkpppenen```````````````````",
"`````````mppo``````cccalllllllllkaallappppeee```````````````````",
"`````````nndoo````accaallllllllkjpkdkkppooeeen``````````````````",
"``````````nndok```cccaaaakpkallpjjpddkppaoppoo``````````````````",
"```````````nmkdok`ccaallaoeppllppjjpdkdkaaoopc``````````````````",
"`````````````nnppocccallaoeejpkdpjjpddkkkppeppa`````````````````",
"```````````````nnmcacaaaoeeeejpjjjjjepkkkpepaaa`````````````````",
"`````````````````ccaaaaoeeeeejjjjjjjjeeeeeepaaa`````````````````",
"`````````````````ccaaaaaceeeeejjjjjjeeeeeeoalla`````````````````",
"`````````````````cccaaaaceeeeeeeeeeeeeeeeeklllcok```````````````",
"`````````````````ccccaaaceeeeejeeeeeeeeeeellllcnopo`````````````",
"``````````````````mcccccneeeeeeeeeeeeeeeeeaaaa`nnndok```````````",
"``````````````````mcccccneeeeeeeeeeeeeeeeeocna```nmkpk``````````",
"``````````````````mmccccneeeeeeeeeeeeeeeeeennn````nmkpe`````````",
"```````````````````mccccceceneeeeeeeeeeennnnn``````nnde`````````",
"```````````````````mmcccccccneeeeeeeeeeennnnn```````mode````````",
"````````````````````mmccccccnnnnnneeeeeeennn````````nndn````````",
"`````````````````````mccccnnnnnnnnneeeennnn``````````mpee```````",
"``````````````````````mcccnnnnnnnnneennnnn```````````mope```````",
"```````````````````````mmccmnnnnnneennnnn````````````nopk```````",
"````````````````````````mmmnmmnnnnmnnnnm`````````````kkdk```````",
"``````````````````````````mmmmmmmmnmmm```````````````kddh```````",
"`````````````````````````````mmmmmm`````````````````kdbhh```````",
"````````````````````````````````````````````````````dbgb````````",
"```````````````````````````````````````````````````igggf````````",
"``````````mmn`````````````````````````````````````ihgggf````````",
"````````mnmnnmn``````````````````````````````````idbggg`````````",
"```````mmnnnnnnn```````````````````````````````kkkdbbb``````````",
"``````mmnnnnnnnmn```````````````````````````nnnnpddddh``````````",
"``````mmnnncnnnnnnnnnnnnnnnnnnnnneeenmmmnnnnnnepddddb```````````",
"``````mnnnchdnnnneeeeeeeeeeeeeeeeeeeoooppppppppoook`````````````",
"``````mnnncdknnneeeeeeeeeeeooooooooooooeenennnmoo```````````````",
"``````nmnnnnnnnnmmmmmmmmmmmmmmmmmmmmmmmmmmmmmm``````````````````",
"``````mmnnnnnnnmn```````````````````````````````````````````````",
"```````mmnnnnnmm````````````````````````````````````````````````",
"````````mmmmmmm`````````````````````````````````````````````````",
"``````````mmm```````````````````````````````````````````````````",
"````````````````````````````````````````````````````````````````",
"````````````````````````````````````````````````````````````````",
"````````````````````````````````````````````````````````````````"
};
