/* XPM */
static char *icon21[] = {
/* width height ncolors chars_per_pixel */
"64 64 16 1",
/* colors */
"` c None",
"a c #78706B",
"b c #A3B1D7",
"c c #5A5357",
"d c #717FCA",
"e c #2A218B",
"f c #CDE1F9",
"g c #929ED3",
"h c #9796A0",
"i c #311FB3",
"j c #6F76A0",
"k c #9F8762",
"l c #25244A",
"m c #29256F",
"n c #51518C",
"o c #4B51B1",
/* pixels */
"````````````````````````````````````````````````````````````````",
"````````````````````````````````````````````````````````````````",
"````````````````````````````````````````````````````````````````",
"```````````````````````````````````````````````````lmm``````````",
"`````````````````````````````````````````````````lmmmmmm````````",
"````````````````````````````````````````````````llmmmmmmm```````",
"```````````````````````````````````````````````lllmmmmmmmm``````",
"``````````````````eeeeeemmmmmmmmmmmmmmmmmmmmmmmlllmmngommm``````",
"```````````````mmmmeeennnnnnnonnnooooooooojjjddollmmndnmml``````",
"`````````````mmeeemmmmmmmmmmmmmmmmmmmmmmmmmmmmmmllmmmmmmml``````",
"```````````mmmeemmlmlllllllllllllllllllllllllllllllmmmmmml``````",
"``````````mmeemmllll```````````````````````````llllllmmmll``````",
"``````````memmmll```````````````````````````````lllllllll```````",
"`````````eemmll``````````````````````````````````lllllll````````",
"````````ememml`````````````````````````````````````lll``````````",
"````````meemm```````````````````````````````````````````````````",
"````````mnem````````````````````````````````````````````````````",
"```````emnmm`````````````````nnkkkk`````````````````````````````",
"```````mmom```````````````nnnnjaaaaaak``````````````````````````",
"```````mmnm`````````````nneinjjaaaaaaaak````````````````````````",
"```````mmom````````````mneeeennanooonaakk```````````````````````",
"```````mmom```````````cemeeeemakakkakkkkaa``````````````````````",
"```````emde``````````cmeeeeeeenakkkkkkkkkka`````````````````````",
"````````mnom````````ccneeeieeinakkkkkkkkkkaa````````````````````",
"````````mmdm```````ccneeeeeeeenkkkkkkkkkkkkaa```````````````````",
"`````````mooj``````cmmmeeeeeeejkkkkkkkkkkkkac```````````````````",
"`````````mmddg````lcmmmeeeeeeeokkkkkkkkaaakacc``````````````````",
"``````````nngbb```llmmmeeeeeeiiakkkkkaaaaakacc``````````````````",
"```````````ddfffb`lmmmmeeeeeeeijghkkjnonakkaam``````````````````",
"`````````````gffbjmmmmmeeeeeeeeioddoeeinakkaacc`````````````````",
"```````````````hjmmmmmmeeeeeeeeiiiiiieeenakkacc`````````````````",
"`````````````````lmmmemeeeeeeeeiiiiiieeenakkacc`````````````````",
"`````````````````llmmemmeeeeeeeeiiiieeeeeakkanc`````````````````",
"`````````````````lmmmnnneeeeeeeeeeiieeeeeakkamngb```````````````",
"`````````````````lllccccnjnnneeeeeeeeeeeenakamcdfff`````````````",
"``````````````````llcccccaaaaceeeeeeeeeeenakcm`ggffbg```````````",
"``````````````````llcccccccccneeeeeeeeeeeenamm```ddgdj``````````",
"``````````````````lllccccccccneeeeeeeeeeeeeemm````dmdnn`````````",
"```````````````````llccccccccceeeeeeeeeeeeemm``````mmdm`````````",
"```````````````````lllcccccccceeeeeeeeeemmmmm```````lnjn````````",
"````````````````````llcccccccneeeeeeeeeemmmm````````mmdm````````",
"`````````````````````lllcccccmeeeeeeeeeemmm``````````moee```````",
"``````````````````````lllccccmmmmmmmmmmmmm```````````lnne```````",
"```````````````````````lllccccmmmmmmmmmmm````````````lmoe```````",
"````````````````````````lllcccmlmmmmmmml`````````````lmne```````",
"``````````````````````````llllmmmmllll```````````````meee```````",
"`````````````````````````````llllll`````````````````mmnem```````",
"````````````````````````````````````````````````````lmnm````````",
"```````````````````````````````````````````````````mlmem````````",
"``````````llm`````````````````````````````````````mmmnmm````````",
"````````lmlmmmm``````````````````````````````````mmmnem`````````",
"```````llmmmmmmm```````````````````````````````mmlmnem``````````",
"``````llmmmmmmmmm```````````````````````````mmmmmenemm``````````",
"``````llmmmmmmmmmlllllllllllllllllllmmllmmmmmmennnmmm```````````",
"``````lmmmngdmmmmeeeeeeeeeeemmeeeeennnnnnooooonmmmm`````````````",
"``````lmmmmdjmmmeeemmeeeennnnnnnnnnnnnnemmemmmlmm```````````````",
"``````mlmmmmmmmmlmmmmmmmmmmmmmmmmmmmmmlmllllll``````````````````",
"``````llmmmmmmmlm```````````````````````````````````````````````",
"```````llmmmmmml````````````````````````````````````````````````",
"````````lllllll`````````````````````````````````````````````````",
"``````````lll```````````````````````````````````````````````````",
"````````````````````````````````````````````````````````````````",
"````````````````````````````````````````````````````````````````",
"````````````````````````````````````````````````````````````````"
};
