/* XPM */
static char *icon6[] = {
/* width height ncolors chars_per_pixel */
"64 64 16 1",
/* colors */
"` c None",
"a c #78706B",
"b c #A3B1D7",
"c c #5A5357",
"d c #717FCA",
"e c #2A218B",
"f c #B5C0D1",
"g c #CDE1F9",
"h c #929ED3",
"i c #311FB3",
"j c #6F76A0",
"k c #9F8762",
"l c #25244A",
"m c #29256F",
"n c #51518C",
"o c #4B51B1",
/* pixels */
"````````````````````````````````````````````````````````````````",
"````````````````````````````````````````````````````````````````",
"````````````````````````````````````````````````````````````````",
"```````````````````````````````````````````````````lmm``````````",
"`````````````````````````````````````````````````lllmmmm````````",
"````````````````````````````````````````````````lllmmmmmm```````",
"```````````````````````````````````````````````llllmmnmmmm``````",
"``````````````````eeeeeemmmmmmenoddhbggggbhdnnemlllmnhommm``````",
"```````````````mmmmeeennnnnnnnodddhbggggggbhdddolllmndnmml``````",
"`````````````mmmeeeemmmmmmmmmmmnojddbbggbbdddnmmllllmmmmmm``````",
"```````````emmeemmmmlllllllllllllljddjjjjdddnmmllllllmmmll``````",
"``````````emeemmllmm```````````````````````````lllllllllll``````",
"``````````meemmlm```````````````````````````````lllllllll```````",
"`````````mmemlm``````````````````````````````````lllllll````````",
"````````ememmm`````````````````````````````````````lll``````````",
"````````meemm```````````````````````````````````````````````````",
"````````mnml````````````````````````````````````````````````````",
"```````emnmm`````````````````aaaaaa`````````````````````````````",
"```````mmnm```````````````nacccaaaaaaa``````````````````````````",
"```````mmom`````````````nnanneemenakkaaa````````````````````````",
"```````mmom````````````nnnneeeeeeeecaaaaa```````````````````````",
"```````mmom```````````nneeemeeeeeeeeeenacn``````````````````````",
"```````emdm``````````mmmmmmmeeeeeeeeeeeeecn`````````````````````",
"````````mooe````````mmmmmmmmeeeeeeeeeeeeeeee````````````````````",
"````````mmdm```````mmmmmmeeeeeeeeeeeeeeeeeeee```````````````````",
"`````````moon``````mmmmmeeeeeeeeeeeeeeeeeeeee```````````````````",
"`````````mmdnn````mlmmmmmeeeeeeeeeeeeeeeeeeeee``````````````````",
"``````````mmdnj```mmmmmmmeeeeeeeeiieeeeeeeeeee``````````````````",
"```````````mmjdnj`mmmmmmmeeeeeeiiiiiieeeeeeeee``````````````````",
"`````````````mmoolmmmmmmeeeeeeiiiiiiiieeeeeeeee`````````````````",
"```````````````mmllmmmmmeeeeeeeiiiiiiieeeeeeeee`````````````````",
"`````````````````llmmmmmeeeeeeeiiiiiieeeeeeeeee`````````````````",
"`````````````````llmmmmeeeeeeeeeiiiieeeeeeeeeee`````````````````",
"`````````````````lllmmmeeeeeeeeeeieeeeiieeeeeemnj```````````````",
"`````````````````lllmmeeeeeeeeeeeeeeeiieeeeeeemenon`````````````",
"``````````````````lllmmeeeeeeeeeeeeeeeeeeeeeem`mmmdnj```````````",
"``````````````````llmmeeeeeeeeeeeeeeeeeeeeeeem```mmjoj``````````",
"``````````````````llmmmeeeeeeeeeeeeeeeeeeeeemm````mmdne`````````",
"```````````````````llmcmeeeeeeeeemeeeeeeeemmm``````mmde`````````",
"```````````````````llmcmmeeeeeeeemmmmmmmmmmmm```````lnde````````",
"````````````````````clccceeeeeeeemmmmmmmmmmm````````mmdm````````",
"`````````````````````cccccceeeeeemmmmmmmmmm``````````moee```````",
"``````````````````````ccccccmeeeeeemmmmmmm```````````lnne```````",
"```````````````````````ccccccmmmeemmmmmmm````````````lene```````",
"````````````````````````alllllmmmmmmmmll`````````````lene```````",
"``````````````````````````acllllllmlll```````````````meee```````",
"`````````````````````````````llllll`````````````````mmnee```````",
"````````````````````````````````````````````````````lmnm````````",
"```````````````````````````````````````````````````mmeem````````",
"``````````llm`````````````````````````````````````mmmnmm````````",
"````````llllllm``````````````````````````````````mmmnen`````````",
"```````lllmmmmlm```````````````````````````````mmmmnem``````````",
"``````lllmmmmmmlm```````````````````````````mmmmmenemm``````````",
"``````llmmmnemmlmmmmjdhbfgbbhdjmmmmmmmmmmmmmmmenonmmm```````````",
"``````llmmnhdmmmmnoddhbgggggbddjonennnnooooooooemmm`````````````",
"``````llmmndjmmlenoddhgggggfbhddonnnnnneemmmmmmmm```````````````",
"``````mllmmmmmmllmmnjjdbbbbdddonmmmmmmlmeeeeee``````````````````",
"``````lllmmmmmllm```````````````````````````````````````````````",
"```````lllllllll````````````````````````````````````````````````",
"````````lllllll`````````````````````````````````````````````````",
"``````````lll```````````````````````````````````````````````````",
"````````````````````````````````````````````````````````````````",
"````````````````````````````````````````````````````````````````",
"````````````````````````````````````````````````````````````````"
};
