/* XPM */
static char *icon22[] = {
/* width height ncolors chars_per_pixel */
"64 64 17 1",
/* colors */
"` c None",
"a c #78706B",
"b c #A3B1D7",
"c c #5A5357",
"d c #717FCA",
"e c #2A218B",
"f c #B5C0D1",
"g c #CDE1F9",
"h c #929ED3",
"i c #9796A0",
"j c #311FB3",
"k c #6F76A0",
"l c #9F8762",
"m c #25244A",
"n c #29256F",
"o c #51518C",
"p c #4B51B1",
/* pixels */
"````````````````````````````````````````````````````````````````",
"````````````````````````````````````````````````````````````````",
"````````````````````````````````````````````````````````````````",
"```````````````````````````````````````````````````mnn``````````",
"`````````````````````````````````````````````````mnnnnnn````````",
"````````````````````````````````````````````````mmnnnnnnn```````",
"```````````````````````````````````````````````mmnnnnnnnnn``````",
"``````````````````eeeeeennnnnnnnnnnnnnnnnnnnnnnnmnnnohpnnn``````",
"```````````````nnneeeeeooooooopppppppppppppkkkdpmnnncdonnm``````",
"`````````````nneeeeeennnnnnnnnnnnnnnnnnnnnnnnnnnmmnnnnnnnm``````",
"```````````nneeennnnmmmmmmmmmmmmmmmmmmmmmmmmmmmmmmmnnnnnnm``````",
"``````````nneennmmmm```````````````````````````mmmmmnnnnmm``````",
"``````````neennmm```````````````````````````````mmmmmmmmm```````",
"`````````eeenmm``````````````````````````````````mmmmmmm````````",
"````````eneenm`````````````````````````````````````mmm``````````",
"````````neenn```````````````````````````````````````````````````",
"````````noen````````````````````````````````````````````````````",
"```````enonn`````````````````oooooo`````````````````````````````",
"```````nnpn```````````````aaeookkaaaal``````````````````````````",
"```````nnpn`````````````aaoeeeepooooooal````````````````````````",
"```````nnpn````````````aoeneeeeeoaaaaaaal```````````````````````",
"```````nnpn```````````cceeneeeeeeoalllllla``````````````````````",
"```````enke``````````ccopeneejeeeoallllllla`````````````````````",
"````````nppn````````accpeeeeeeeejollllllllll````````````````````",
"````````nndn```````cccoeneeeeeeejoalllllllaaa```````````````````",
"`````````nppo``````ccoenneeeeeeejjkllllllaaaa```````````````````",
"`````````nnkoo````accnnnneeeeeeejjpalllaoaaaac``````````````````",
"``````````nndpi```ccnennneeeeeeejjjpkaapjoaaaa``````````````````",
"```````````nndbbf`ccnnnnneeeeeeejjjjeejeeeoaaa``````````````````",
"`````````````hhggbcnennneeeeeeejjjjjjeeeeeecaaa`````````````````",
"```````````````hbkmneeeeneeeeejjjjjjjjeeeeecaaa`````````````````",
"`````````````````mmnneeejeeejeejjjjjeeeeeeecaaa`````````````````",
"`````````````````mmneenookkappjjjjjeeeeeeeenala`````````````````",
"`````````````````mmnnnccccaakkkakoeeeeeeeeeeaahgf```````````````",
"`````````````````mmnnccccccaaaaaaoeeeeeeeeeeoadggbd`````````````",
"``````````````````mmnncccccccaaaceeeeeeeeeeeoc`bkddpp```````````",
"``````````````````mmnncccccccaaacpeeeeeeeeenen```knkpp``````````",
"``````````````````mmnnccccccccaaaoeeeeeeeeennn````nndpe`````````",
"```````````````````mmnnccccaaaaaaoeeeeeeeennn``````nnde`````````",
"```````````````````mmmnncccalaaaoeeeeeeeeennn```````mope````````",
"````````````````````mmmmnmcaaaacoeeeeeeeennn````````nnkn````````",
"`````````````````````mmmnnncaaacnnnnnnnnnnn``````````npee```````",
"``````````````````````mmmmnccaaoennnnnnnnn```````````mooe```````",
"```````````````````````mmmmmccaonnnnnnnmn````````````mepe```````",
"````````````````````````mmmmncconennnnmm`````````````meoe```````",
"``````````````````````````mmmmmmnnnnmm```````````````neee```````",
"`````````````````````````````mmmmmm`````````````````nnoen```````",
"````````````````````````````````````````````````````mnon````````",
"```````````````````````````````````````````````````nneen````````",
"``````````mmn`````````````````````````````````````nnnoen````````",
"````````mnnnnmn``````````````````````````````````nnnoen`````````",
"```````mmnnnnnnn```````````````````````````````nnnnoen``````````",
"``````mmnnnnnnnnn```````````````````````````nnnnneoenn``````````",
"``````mnnnnnnnnnmmmmmmmmmmmmmmmmmmmmnnnnnnnnnneoponnn```````````",
"``````mnnnchdnnnneeeeeeeeeeeeeeeeeeeoooppppppppennn`````````````",
"``````mnnnndknnneeeeeeeeeeeooooooooooooeeeennnnnn```````````````",
"``````nnnnnnnnnnmnnnnnnnnnnnnnnnnnnnnnmnmmmmmm``````````````````",
"``````mmnnnnnnnmn```````````````````````````````````````````````",
"```````mmnnnnnnm````````````````````````````````````````````````",
"````````mmmmmmm`````````````````````````````````````````````````",
"``````````mmm```````````````````````````````````````````````````",
"````````````````````````````````````````````````````````````````",
"````````````````````````````````````````````````````````````````",
"````````````````````````````````````````````````````````````````"
};
