/* XPM */
static char *icon23[] = {
/* width height ncolors chars_per_pixel */
"64 64 15 1",
/* colors */
"` c None",
"a c #78706B",
"b c #A3B1D7",
"c c #5A5357",
"d c #717FCA",
"e c #2A218B",
"f c #929ED3",
"g c #9796A0",
"h c #311FB3",
"i c #6F76A0",
"j c #9F8762",
"k c #25244A",
"l c #29256F",
"m c #51518C",
"n c #4B51B1",
/* pixels */
"````````````````````````````````````````````````````````````````",
"````````````````````````````````````````````````````````````````",
"````````````````````````````````````````````````````````````````",
"```````````````````````````````````````````````````kll``````````",
"`````````````````````````````````````````````````kllllll````````",
"````````````````````````````````````````````````kklllllll```````",
"```````````````````````````````````````````````kkkllllllll``````",
"``````````````````eeeeeellllllllllllllllllllllllkkllmfnlll``````",
"```````````````lllleeeemmmmmnnmnnnnnnnnnnniiiddnkkllmdmllk``````",
"`````````````llleeeellllllllllllllllllllllllllllkklllllllk``````",
"```````````llleellllkklkkkkkkkkkkkkkkkkkkkkkkkkkkkkllllllk``````",
"``````````lleellkkkk```````````````````````````kkkkkklllkk``````",
"``````````leellkk```````````````````````````````kkkkkkkkk```````",
"`````````elelkk``````````````````````````````````kkkkkkk````````",
"````````elellk`````````````````````````````````````kkk``````````",
"````````leell```````````````````````````````````````````````````",
"````````lmel````````````````````````````````````````````````````",
"```````elmll`````````````````eeeeee`````````````````````````````",
"```````llnl```````````````aimeeemmccaj``````````````````````````",
"```````llnl`````````````ammeeeeeeemaacaj````````````````````````",
"```````llnl````````````amceeeeeeeelmajjaa```````````````````````",
"```````llnl```````````cccmnneeehheeemjjjjj``````````````````````",
"```````eldl``````````ccccmmleeeheeeeiajjjjj`````````````````````",
"````````lnnl````````acccmeeeeeeeeeelnjjjjjjj````````````````````",
"````````lldl```````ccccmeeeeeeeeeeehenjjjjaaj```````````````````",
"`````````lnnm``````ccccmeeeeeeeeeeeeheaaaaaca```````````````````",
"`````````lldmm````ccccceeeeeeeeeeeeeeeenmmeccj``````````````````",
"``````````lldmi```ccccmlleeeeehhhhhheeeeeeheca``````````````````",
"```````````llidib`cccmneeeeeeehhhhhhhheeeeeeec``````````````````",
"`````````````nnfbfcclenmeeeehehhhhhhhheeeeeeeca`````````````````",
"```````````````ificcmmeeeeennnnnnhhhheeeeeeeecj`````````````````",
"`````````````````kkcccneemaaaajdddddnheeeeeeecj`````````````````",
"`````````````````kkllcmmcccaaaaaiajjaeeeeeeeecj`````````````````",
"`````````````````kkllleeccccccaaaajameeeeeeeecfbf```````````````",
"`````````````````kkllleelccccccaaajamheeeeeeemdfddm`````````````",
"``````````````````kkllllcccccccaaajamheeeeeell`gmmimn```````````",
"``````````````````kklleeccccccaaaaaamleeeeeell```llinn``````````",
"``````````````````kkkllllmcccajjjjaameeeeeeell````lldne`````````",
"```````````````````kkklllelccajjjaameeeeeeell``````llde`````````",
"```````````````````kkkllllelmcajaaamleeeeeell```````kmie````````",
"````````````````````kkkllllllcaaaaamelllllll````````lldl````````",
"`````````````````````kkkllllelcaaamelllllll``````````lnee```````",
"``````````````````````kkkllllllcaamlllllll```````````kene```````",
"```````````````````````kkkkllllccmnelllkl````````````kene```````",
"````````````````````````kkkkkkllccmlllkk`````````````kene```````",
"``````````````````````````kkkkkkkkkkkk```````````````leee```````",
"`````````````````````````````kkkkkk`````````````````llmel```````",
"````````````````````````````````````````````````````llnl````````",
"```````````````````````````````````````````````````lleel````````",
"``````````kkl`````````````````````````````````````lllmll````````",
"````````kkkllkl``````````````````````````````````lllmel`````````",
"```````kklllllll```````````````````````````````llllmel``````````",
"``````kklllllllll```````````````````````````lllllenell``````````",
"``````kklllmlllllkkkkkkkkkkkkkkkkkkkllllllllllemnmlll```````````",
"``````llllmfdlllleeeeeeeeeeeeeeeeeeeemmnnnnnnnnelll`````````````",
"``````klllmdilllleeeeeeeeeeemmmmmmmmmmmeelellllll```````````````",
"``````lkllllllllklllllllllllllllllllllklkkkkkk``````````````````",
"``````kklllllllkl```````````````````````````````````````````````",
"```````kklllllkk````````````````````````````````````````````````",
"````````kkkkkkk`````````````````````````````````````````````````",
"``````````kkk```````````````````````````````````````````````````",
"````````````````````````````````````````````````````````````````",
"````````````````````````````````````````````````````````````````",
"````````````````````````````````````````````````````````````````"
};
