/* XPM */
static char *icon20[] = {
/* width height ncolors chars_per_pixel */
"64 64 17 1",
/* colors */
"` c None",
"a c #78706B",
"b c #A3B1D7",
"c c #5A5357",
"d c #717FCA",
"e c #2A218B",
"f c #B5C0D1",
"g c #CDE1F9",
"h c #929ED3",
"i c #9796A0",
"j c #311FB3",
"k c #6F76A0",
"l c #9F8762",
"m c #25244A",
"n c #29256F",
"o c #51518C",
"p c #4B51B1",
/* pixels */
"````````````````````````````````````````````````````````````````",
"````````````````````````````````````````````````````````````````",
"````````````````````````````````````````````````````````````````",
"```````````````````````````````````````````````````mnn``````````",
"`````````````````````````````````````````````````mnnnnnn````````",
"````````````````````````````````````````````````mmnnnnnnn```````",
"```````````````````````````````````````````````mmnnnnonnnn``````",
"``````````````````eeeeeennnnnnnnnnnnnnnnnnnnnnnnmnnnphpnnn``````",
"```````````````nnneneooooooooooooppppppppppkkddpmnnnodonnm``````",
"`````````````nneeeeeeennnnnnnnnnnnnnnnnnnnnnnnnnmmnnnnnnnm``````",
"```````````nneeennnnmmmmmmmmmmmmmmmmmmmmmmmmmmmmmmmnnnnnnm``````",
"``````````nneennmmmm```````````````````````````mmmmmnnnnmm``````",
"``````````nnennmm```````````````````````````````mmmmmmmmm```````",
"`````````eeenmm``````````````````````````````````mmmmmmm````````",
"````````enoenm`````````````````````````````````````mmm``````````",
"````````neonn```````````````````````````````````````````````````",
"````````nonm````````````````````````````````````````````````````",
"```````enonn`````````````````llllll`````````````````````````````",
"```````nnon```````````````oooaaaaaaaal``````````````````````````",
"```````nnon`````````````ooopaaaaaaaaaall````````````````````````",
"```````nnpn````````````nenokaaaaakkaallla```````````````````````",
"```````nnpn```````````neeeopocppppkaalllaa``````````````````````",
"```````ende``````````nneeencaaalllllllaallo`````````````````````",
"````````nopo````````nnneeeeoallllllllllaaaop````````````````````",
"````````eedo```````nneneeejoallllllllllllaace```````````````````",
"`````````nddd``````nemeeeeeolllllllllllllllce```````````````````",
"`````````ddbbf````mnnneeeeoalllllllllllllllone``````````````````",
"``````````khgfb```mmnneeeeealllllllllaalllaoee``````````````````",
"```````````igggdd`mmnnnneeeolllllllllaalllaoen``````````````````",
"`````````````ddddmmmnnnneeeoallllhddallllllonee`````````````````",
"```````````````kommmnnnneeeepkaidpjpkllllaacoee`````````````````",
"`````````````````mmmnnnnneeeeeojjjjjpaalllaaoce`````````````````",
"`````````````````mmnnnnneeeeeeejjjjjjoalllaooce`````````````````",
"`````````````````mmnnnneeeeeeeejjjeeeoallllocenkk```````````````",
"`````````````````mmnnneeeeeeeeeeeeeeeeallllcennodhb`````````````",
"``````````````````mmccoeeeeeeeeeeeeeeeokllaoen`dkhgff```````````",
"``````````````````mmccccccnnneeeeeeeeeoallanen```ibggb``````````",
"``````````````````mmmcccccnnneeeeeeeeeeoaaeenn````idbdo`````````",
"```````````````````mmcccccnenneeeeeeeeeeoeeen``````oodp`````````",
"```````````````````mmmccccceenneeeeeeeeennnnn```````oodo````````",
"````````````````````mmcccccnnnnneeeeeennnnnn````````ondn````````",
"`````````````````````mcccccennnneeeeennnnnn``````````npeo```````",
"``````````````````````ccccnnnnnnnneennnnnn```````````mooo```````",
"```````````````````````cmccmnnnnnnnnnnnmn````````````meoo```````",
"````````````````````````mccmmmmmmnnnmmmm`````````````meoo```````",
"``````````````````````````ccmmmnnnmnmm```````````````nooo```````",
"`````````````````````````````mmmmmm`````````````````nnoen```````",
"````````````````````````````````````````````````````mnon````````",
"```````````````````````````````````````````````````nneon````````",
"``````````mmn`````````````````````````````````````nnnoen````````",
"````````mmnnnmn``````````````````````````````````nnnoen`````````",
"```````mmnnnnnnn```````````````````````````````nnneoen``````````",
"``````mmnnnnnnnnn```````````````````````````nnnnneoenn``````````",
"``````mnnnnonnnnnmmmmmmmmmmmmmmmmmmmnnnnnnnnnneooonnn```````````",
"``````mnnnohdnnnneeeeeeeeeeeeeooooeoooooopppppoennn`````````````",
"``````mnnncdknnneeeeeoeeoooooooooooooooeeeennnnnn```````````````",
"``````nnnnnnnnnnmnnnnnnnnnnnnnnnnnnnnnmnmmmmmm``````````````````",
"``````mmnnnnnnnmn```````````````````````````````````````````````",
"```````mmnnnnnnm````````````````````````````````````````````````",
"````````mmmmmmm`````````````````````````````````````````````````",
"``````````mmm```````````````````````````````````````````````````",
"````````````````````````````````````````````````````````````````",
"````````````````````````````````````````````````````````````````",
"````````````````````````````````````````````````````````````````"
};
