/* XPM */
static char *icon19[] = {
/* width height ncolors chars_per_pixel */
"64 64 16 1",
/* colors */
"` c None",
"a c #78706B",
"b c #A3B1D7",
"c c #5A5357",
"d c #717FCA",
"e c #2A218B",
"f c #B5C0D1",
"g c #CDE1F9",
"h c #929ED3",
"i c #9796A0",
"j c #6F76A0",
"k c #9F8762",
"l c #25244A",
"m c #29256F",
"n c #51518C",
"o c #4B51B1",
/* pixels */
"````````````````````````````````````````````````````````````````",
"````````````````````````````````````````````````````````````````",
"````````````````````````````````````````````````````````````````",
"```````````````````````````````````````````````````lmm``````````",
"`````````````````````````````````````````````````llmmmmm````````",
"````````````````````````````````````````````````llmmmmmmm```````",
"```````````````````````````````````````````````llmmmmnmmmm``````",
"``````````````````eeeeeemmmmmmmmmmmmmmmmmmmmmmmmlmmmohommm``````",
"```````````````mmmmeennnnnnnnnnnoooooooooooddddollmmndnmml``````",
"`````````````mmmeeeemmmmmmmmmmmmmmmmmmmmmmmmmmmmllmmmmmmml``````",
"```````````mmmeemmmmlllllllllllllllllllllllllllllllmmmmmml``````",
"``````````mmeemmllll```````````````````````````lllllmmmmll``````",
"``````````meemmll```````````````````````````````lllllllll```````",
"`````````ememll``````````````````````````````````lllllll````````",
"````````emnmml`````````````````````````````````````lll``````````",
"````````menmm```````````````````````````````````````````````````",
"````````mnem````````````````````````````````````````````````````",
"```````emnmm`````````````````kkkkkk`````````````````````````````",
"```````mmnm```````````````aacacaaaakkk``````````````````````````",
"```````mmom`````````````nnnaaaaaaaaiakkk````````````````````````",
"```````mmom````````````mnojaaaaaaakkkkkkk```````````````````````",
"```````mmom```````````menjaaaajjjjakkkaaaa``````````````````````",
"```````emdn``````````mmenncnnnnojakakkkannn`````````````````````",
"````````nddd````````mmmmnaaaajjkkkkaakkknene````````````````````",
"````````jdbh```````mmmmmnakkkkkkkkkkkajjnemee```````````````````",
"`````````dggf``````mmmmenakkkkkkkkkkkkkkaneee```````````````````",
"`````````ibggb````lmmmmenakkkkkkkkkkkkkkkneeee``````````````````",
"``````````hfgbi```lmmmmeakkkkkkkkkkkkkkkaeeeee``````````````````",
"```````````fdddnn`lmmmenakkkkkkkkkkkkkkkceeeee``````````````````",
"`````````````mnoonlmmmmeakkkkkkkkkkkkkkkneeeeee`````````````````",
"```````````````mmllmmmmeckkkkkkaikkkkkkkceeeeee`````````````````",
"`````````````````llmmmmenaakannodkkkkkkkannneee`````````````````",
"`````````````````llmmmmmennnneenojkkkkkkananeee`````````````````",
"`````````````````llmmmmmeeeeeeeeenjkkkkkaonnemenj```````````````",
"`````````````````lllmmmmmmeeeeeeeenkkkkkanneemmmnod`````````````",
"``````````````````lmmmmmmmeeeeeeeenakkkkaeeemm`mmnhbb```````````",
"``````````````````llmmmmmmeeeeeeeeeakkkkceeemm```ndggg``````````",
"``````````````````lllccmmmmeeeemmeenjkkkneeemm````ibggf`````````",
"```````````````````llcccmmmmeeemmeeenakneeemm``````jbgh`````````",
"```````````````````llcccmmmmmeemmeeeennemeemm```````jdhh````````",
"````````````````````llccmmmmmmemmemmmemmmmmm````````jjdo````````",
"`````````````````````cccmmmmmmemmmmmmmmmmmm``````````mdnn```````",
"``````````````````````clmmmmmmmmmmmmmmmmmm```````````lnnn```````",
"```````````````````````lllmmmmmmmmmmmmmmm````````````lenn```````",
"````````````````````````lllllllmmmmmmlll`````````````lenn```````",
"``````````````````````````llllllllllll```````````````mnnn```````",
"`````````````````````````````llllll`````````````````mmnem```````",
"````````````````````````````````````````````````````lmnm````````",
"```````````````````````````````````````````````````mmenm````````",
"``````````llm`````````````````````````````````````mmmnmm````````",
"````````llmmmmm``````````````````````````````````mmmnem`````````",
"```````llmmmmmlm```````````````````````````````mmmmnem``````````",
"``````llmmmmmmmmm```````````````````````````mmmmmnnemm``````````",
"``````lmmmmnmmmmmlllllllllllllllllllmmmmmmmmmmenonmmm```````````",
"``````lmmmnhdmmmmeeeeeeeeeeeeeeennnnnnnnoooooooemmm`````````````",
"``````lmmmmdjmmmeeeeeennnnnnnnnnnnnnnnnnemmmmmmmm```````````````",
"``````mlmmmmmmmmlmmmmmmmmmmmmmmmmmmmmmlmllllll``````````````````",
"``````llmmmmmmmlm```````````````````````````````````````````````",
"```````llmmmmmll````````````````````````````````````````````````",
"````````lllllll`````````````````````````````````````````````````",
"``````````lll```````````````````````````````````````````````````",
"````````````````````````````````````````````````````````````````",
"````````````````````````````````````````````````````````````````",
"````````````````````````````````````````````````````````````````"
};
