/* XPM */
static char *icon25[] = {
/* width height ncolors chars_per_pixel */
"64 64 14 1",
/* colors */
"` c None",
"a c #78706B",
"b c #5A5357",
"c c #717FCA",
"d c #2A218B",
"e c #929ED3",
"f c #9796A0",
"g c #311FB3",
"h c #6F76A0",
"i c #9F8762",
"j c #25244A",
"k c #29256F",
"l c #51518C",
"m c #4B51B1",
/* pixels */
"````````````````````````````````````````````````````````````````",
"````````````````````````````````````````````````````````````````",
"````````````````````````````````````````````````````````````````",
"```````````````````````````````````````````````````jkk``````````",
"`````````````````````````````````````````````````jkkkkkk````````",
"````````````````````````````````````````````````jjkkkkkkk```````",
"```````````````````````````````````````````````jjkkkklkkkk``````",
"``````````````````ddddddkkkkkkkkkkkkkkkkkkkkkkkkjkkklemkkk``````",
"```````````````kkkkdddlllmllmmllmmmmmmmmmmmccchmjjkklclkkj``````",
"`````````````kkkddddkkkkkkkkkkkkkkkkkkkkkkkkkkkkjjkkkkkkkj``````",
"```````````kkkddkkkkjjjjjjjjjjjjjjjjjjjjjjjjjjjjjjjkkkkkkj``````",
"``````````kkddkkjjjj```````````````````````````jjjjjkkkkjj``````",
"``````````kddkkjj```````````````````````````````jjjjjjjjj```````",
"`````````dkdkjj``````````````````````````````````jjjjjjj````````",
"````````dkdkkj`````````````````````````````````````jjj``````````",
"````````kdlkk```````````````````````````````````````````````````",
"````````kldk````````````````````````````````````````````````````",
"```````dklkk`````````````````dddddd`````````````````````````````",
"```````kkmk```````````````hhlldddddkba``````````````````````````",
"```````kkmk`````````````allalammgdddddla````````````````````````",
"```````kkmk````````````abhaaaammdddddddka```````````````````````",
"```````kkmk```````````bbbaaaalgdddddddddla``````````````````````",
"```````dkck``````````bbbbbaaaldddddddddddlb`````````````````````",
"````````kmmk````````abbbaaaaldddddddddddddbb````````````````````",
"````````kkck```````bkaaaaaaamgdddddddddddddbi```````````````````",
"`````````kmml``````kbaaaaaahhmggddddddddddddb```````````````````",
"`````````kkcll````jkbaaaihmmmmmmgggdgddddddddk``````````````````",
"``````````kkcll```jjbaaaalmmmgggmmcccmmddddddk``````````````````",
"```````````kkmcll`jjkbaaalhlmmmmhfaiaahcmmdddk``````````````````",
"`````````````kkmmjjkkdlbbblblmmhaiiaaaaaaaldkkk`````````````````",
"```````````````lljjkkkddddddlmmhaiiaaaaaaabdkkk`````````````````",
"`````````````````jjjkkdddddddggmaaaiaaaaaabdkkk`````````````````",
"`````````````````jjjkkkddddddgglaaaaaaaaaabdkkk`````````````````",
"`````````````````jjjkkkkddddggglaaaaaaaaaaldkkklh```````````````",
"`````````````````jjjkkkkddddddgllaaaaiiiaamdkkkhlml`````````````",
"``````````````````jjkkkkkddddddddlaaiiiialddkk`lkkmlm```````````",
"``````````````````jjjkkkkddddddddddlaiiialddkk```kkmmm``````````",
"``````````````````jjjkkkkddddddddddbaiiaadkkkk````kkcmd`````````",
"```````````````````jjjkkkddkddddddddaiialdkkk``````kkcd`````````",
"```````````````````jjjjkkkkkkdddddddbiialkkkk```````jlmd````````",
"````````````````````jjjkkkkkkdddddddbaahdkkk````````kkck````````",
"`````````````````````jjjkkkkkdkkkkddlahmkkk``````````kmdd```````",
"``````````````````````jjjkkkkkkkkkkkbblddk```````````jlmd```````",
"```````````````````````jjjjkkkkkkkkkkkkkk````````````jdmd```````",
"````````````````````````jjjjjkkkkkkjkkkj`````````````jdmd```````",
"``````````````````````````jjjjjjjjjjjj```````````````kldd```````",
"`````````````````````````````jjjjjj`````````````````kkldk```````",
"````````````````````````````````````````````````````jkmk````````",
"```````````````````````````````````````````````````kkddk````````",
"``````````jjk`````````````````````````````````````kkkmkk````````",
"````````jkkkkjk``````````````````````````````````kkkldk`````````",
"```````jjkkkkkkk```````````````````````````````kkkkldk``````````",
"``````jjkkkkkkkkk```````````````````````````kkkkkdmdkk``````````",
"``````jkkkklkkkkkjjjjjjjjjjjjjjjjjjjkkkkkkkkkkdlmlkkk```````````",
"``````kkkkleckkkkdddddddddddddddddlllllmmmmmmmmdkkk`````````````",
"``````jkkkkchkkkdddddddllllllllllllllllldkdkkkkkk```````````````",
"``````kjkkkkkkkkjkkkkkkkkkkkkkkkkkkkkkjkjjjjjj``````````````````",
"``````jjkkkkkkkjk```````````````````````````````````````````````",
"```````jjkkkkkjj````````````````````````````````````````````````",
"````````jjjjjjj`````````````````````````````````````````````````",
"``````````jjj```````````````````````````````````````````````````",
"````````````````````````````````````````````````````````````````",
"````````````````````````````````````````````````````````````````",
"````````````````````````````````````````````````````````````````"
};
