/* XPM */
static char *icon18[] = {
/* width height ncolors chars_per_pixel */
"64 64 16 1",
/* colors */
"` c None",
"a c #78706B",
"b c #A3B1D7",
"c c #5A5357",
"d c #717FCA",
"e c #2A218B",
"f c #B5C0D1",
"g c #CDE1F9",
"h c #929ED3",
"i c #9796A0",
"j c #6F76A0",
"k c #9F8762",
"l c #25244A",
"m c #29256F",
"n c #51518C",
"o c #4B51B1",
/* pixels */
"````````````````````````````````````````````````````````````````",
"````````````````````````````````````````````````````````````````",
"````````````````````````````````````````````````````````````````",
"```````````````````````````````````````````````````lmm``````````",
"`````````````````````````````````````````````````llmmmmm````````",
"````````````````````````````````````````````````llmmmmmmm```````",
"```````````````````````````````````````````````lllmmmmmmmm``````",
"``````````````````eeeeeemmmmmmmmmmmmmmmmmmmmmmmmllmmohommm``````",
"```````````````mmmmeennnnnnnnnnoonnooooooooojjdollmmndomml``````",
"`````````````mmmeeeemmmmmmmmmmmmmmmmmmmmmmmmmmmmllmmmmmmml``````",
"```````````mmmemmmmmlllllllllllllllllllllllllllllllmmmmmml``````",
"``````````mmeemmllll```````````````````````````llllllmmmll``````",
"``````````meemmll```````````````````````````````lllllllll```````",
"`````````ememll``````````````````````````````````lllllll````````",
"````````emnmml`````````````````````````````````````lll``````````",
"````````menmm```````````````````````````````````````````````````",
"````````mnem````````````````````````````````````````````````````",
"```````mmnmm`````````````````kkkkkk`````````````````````````````",
"```````mmom```````````````aacccaakkkkk``````````````````````````",
"```````mmom`````````````nncaaaaaakkkkkkk````````````````````````",
"```````nodn````````````nnnaaaaaaiikkkkkkk```````````````````````",
"```````nddd```````````mnaaaaajakkkkkkkkkka``````````````````````",
"```````ndbh``````````mmnaaaajjjakkkiijojaan`````````````````````",
"````````dggb````````mmmncnoooojakkkkkanenane````````````````````",
"````````jggg```````mmmcanajjjkkkaakkkaneennee```````````````````",
"`````````bggb``````mmmcaakkkkkkkkaiiaoeeeeeem```````````````````",
"`````````jbghd````lmmmckkkkkkkkkkkkaikneeeeeee``````````````````",
"``````````jddod```lmmmakkkkkkkkkkkkkkkaeeeeeee``````````````````",
"```````````mmoonj`lmmnakkkkkkkkkkkkkkkneeeeeem``````````````````",
"`````````````mmoonlmmcakkkkkkkkkkkkkkaeeeeeeeme`````````````````",
"```````````````mmllmmcakkkkkkkakkkkkkneeeeeeeme`````````````````",
"`````````````````llmmcaakaaaaaakkkkkkoeeeeeeeme`````````````````",
"`````````````````llmmmaaaacnaakkkkkkkannneeeeme`````````````````",
"`````````````````lllmmnccneenakkkkkkkannaeeeemmnj```````````````",
"`````````````````lllmmmmeeeeenaakkkkkaonaeeeemmmnon`````````````",
"``````````````````llmmmmmmmmeenakkkkaaonneeemm`mmmjoi```````````",
"``````````````````llmmmmmmmmmeeakkkkkaneeeemmm```mmdhb``````````",
"``````````````````llmmmmmmmmmmenkkkkkaeeeeemmm````jjfgf`````````",
"```````````````````lllmmmmmmmmenakkkkneeeemmm``````jbgg`````````",
"```````````````````lllmmmmmmmmeenakkaeeeeemmm```````hggf````````",
"````````````````````llllmmmmmmmeeenneemeemmm````````jbgb````````",
"`````````````````````llllmmmmmmmmmmmmmmmmmm``````````dbhh```````",
"``````````````````````llllmmmmmmmmmmmmmmmm```````````nddi```````",
"```````````````````````llllmmmmmmmmmmmmmm````````````modj```````",
"````````````````````````lllllmmmmmmmmlml`````````````lnnj```````",
"``````````````````````````llllllllllll```````````````mnen```````",
"`````````````````````````````llllll`````````````````mmnen```````",
"````````````````````````````````````````````````````lmnm````````",
"```````````````````````````````````````````````````mmenm````````",
"``````````llm`````````````````````````````````````emmnmn````````",
"````````lmlmmmm``````````````````````````````````mmmnem`````````",
"```````llmmmmmlm```````````````````````````````mmmmnem``````````",
"``````llmmmmmmmmm```````````````````````````mmmmmenemm``````````",
"``````llmmmmmmmmmlllllllllllllllllllmmmmmmmmmmenonmme```````````",
"``````lmmmnhdmmmmeeeeeeeeeeeeeeeennnnnnonooooonemme`````````````",
"``````lmmmmdjmmmmeeeeeennnnnnnnnnnnnnnnnemmmmmmee```````````````",
"``````mlmmmmmmmmlmmmmmmmmmmmmmmmmmmmmmlmllllll``````````````````",
"``````llmmmmmmmlm```````````````````````````````````````````````",
"```````llmmmmmll````````````````````````````````````````````````",
"````````lllllll`````````````````````````````````````````````````",
"``````````lll```````````````````````````````````````````````````",
"````````````````````````````````````````````````````````````````",
"````````````````````````````````````````````````````````````````",
"````````````````````````````````````````````````````````````````"
};
