/* XPM */
static char *icon17[] = {
/* width height ncolors chars_per_pixel */
"64 64 17 1",
/* colors */
"` c None",
"a c #78706B",
"b c #A3B1D7",
"c c #5A5357",
"d c #717FCA",
"e c #2A218B",
"f c #B5C0D1",
"g c #CDE1F9",
"h c #929ED3",
"i c #9796A0",
"j c #311FB3",
"k c #6F76A0",
"l c #9F8762",
"m c #25244A",
"n c #29256F",
"o c #51518C",
"p c #4B51B1",
/* pixels */
"````````````````````````````````````````````````````````````````",
"````````````````````````````````````````````````````````````````",
"````````````````````````````````````````````````````````````````",
"```````````````````````````````````````````````````mnn``````````",
"`````````````````````````````````````````````````mmmnnnn````````",
"````````````````````````````````````````````````mmmnnnnnn```````",
"```````````````````````````````````````````````mmmmnnonnnn``````",
"``````````````````eeeeeeennnnnnnnnnnnnnnnnnnnnnnmmmnphpnnn``````",
"```````````````nnnneeoeooooooooppppppppppppkkkkpmmmnodpnnm``````",
"`````````````nnneeeennnnnnnnnnnnnnnnnnnnnnnnnnnnmmmmnnnnnm``````",
"```````````nnneennnnmmmmmmmmmmmmmmmmmmmmmmmmmmmmmmmmmnnnmm``````",
"``````````nneennmmmm```````````````````````````mmmmmmmmmmm``````",
"``````````neennmm```````````````````````````````mmmmmmmmm```````",
"`````````enenmm``````````````````````````````````mmmmmmm````````",
"````````enonnm`````````````````````````````````````mmm``````````",
"````````eeonn```````````````````````````````````````````````````",
"````````noen````````````````````````````````````````````````````",
"```````kopen`````````````````llllll`````````````````````````````",
"```````kkdp```````````````aaccaallllll``````````````````````````",
"```````bdhd`````````````acaaaallllllllll````````````````````````",
"```````bhbh````````````acaaaaaillllllllaa```````````````````````",
"```````hbgg```````````ooaaaaaaiillllllllaa``````````````````````",
"```````bggg``````````cccaaaaalllllllllllaaa`````````````````````",
"````````bggb````````mcccaaaaallliiaopkaaoooo````````````````````",
"````````bbgh```````mncoooppoalllllaojopaooopo```````````````````",
"`````````dhdk``````mccoopoaaaallllaojjepooeoo```````````````````",
"`````````oodpo````mncaaalllllalallpjjjjjjeeecn``````````````````",
"``````````ondok```mmcallllllllliiddojjjeejeeen``````````````````",
"```````````nnpkok`mnaallllllllllllipjjjjjeeeen``````````````````",
"`````````````nnppomcaallllllllllllipjjjjjeeeeee`````````````````",
"```````````````nnmmcaallllllllllllhjjjjjejeeeee`````````````````",
"`````````````````mmcaallllaaallllipjjjjjjeeeeee`````````````````",
"`````````````````mmcaaaaaaaaallllkjjjjjjjeeeene`````````````````",
"`````````````````mmcccaaccaaallllaoejeejjeeeennok```````````````",
"`````````````````mmnccceocaaaalllloopoeejeeeeennopo`````````````",
"``````````````````mmmnnnnocaaaaaaaapaaeeeeeeen`nnnpok```````````",
"``````````````````mmnnnnneoaaalaaaapoceeeeeeen```nnppk``````````",
"``````````````````mmmnnnnnncallllaoooeeeeeeenn````nnddh`````````",
"```````````````````mmnnnnnncalllllojeeeeeeeen``````nkbh`````````",
"```````````````````mmmnnnnnnoalllaoeeeeeneenn```````kbgf````````",
"````````````````````mmmnnnnnnoallaoeeeeeeenn````````kbgg````````",
"`````````````````````mmmnnnnnnocaoeeeeeennn``````````bggf```````",
"``````````````````````mmmnnnnnnnnnnnnennnn```````````hggb```````",
"```````````````````````mmmnnnnnnnnnnnnnnn````````````khbh```````",
"````````````````````````mmmmmnnnnnnnmmnm`````````````oddh```````",
"``````````````````````````mmmmmmmmmmmm```````````````nddh```````",
"`````````````````````````````mmmmmm`````````````````nnpph```````",
"````````````````````````````````````````````````````mnoe````````",
"```````````````````````````````````````````````````eneoo````````",
"``````````mmn`````````````````````````````````````ennono````````",
"````````mnmmmnn``````````````````````````````````nnnoen`````````",
"```````mmmnnnnmn```````````````````````````````nnnnoen``````````",
"``````mmmnnnnnnmn```````````````````````````nnnnnooenn``````````",
"``````mmnnnonnnmnmmmmmmmmmmmmmmmmmmmnnnnnnnnnneoponoe```````````",
"``````mmnnohdnnnneeeeeeeeeeeeeoooooeeooppppppppenne`````````````",
"``````mmnnodknnmeeeeeoooooooooooooooooooennnnnnee```````````````",
"``````nmmnnnnnnmmnnnnnnnnnnnnnnnnnnnnnmmmmmmmm``````````````````",
"``````mmmnnnnnmmn```````````````````````````````````````````````",
"```````mmmmmmmmm````````````````````````````````````````````````",
"````````mmmmmmm`````````````````````````````````````````````````",
"``````````mmm```````````````````````````````````````````````````",
"````````````````````````````````````````````````````````````````",
"````````````````````````````````````````````````````````````````",
"````````````````````````````````````````````````````````````````"
};
