/* XPM */
static char * new_larry_3_xpm[] = {
"64 64 3 1",
" 	c #000000000000",
"X	c None",
"o	c #FFFFFFFFFFFF",
"                                                                ",
"                                                                ",
"                                                                ",
"                                                                ",
"                                                                ",
"                                                                ",
"                                                                ",
"                                                                ",
"                                                                ",
"                                                                ",
"                                                                ",
"                                                                ",
"                                                                ",
"                           o o                                  ",
"                         oooo                                 XX",
"                       ooo o o o                            XXXX",
"                  o    oo ooo o                      X X XXXXXXX",
"               o o   ooo o o                       XXXXXXXXXXXXX",
"               oo o   ooo o o                      XXXXXXXXXXXXX",
"               ooo     ooooo o                   XXXXXXXXXXXXXXX",
"              oo oo       oo                     XXXXXXXXXXXXXXX",
"             o ooo     o                        XXXXXXXXXXXXXXXX",
"              ooo ooo     o                     XXXXXXXXXXXXXXXX",
"             ooo o o o o                        XXXXXXXXXXXXXXXX",
"             o oooooooo               o          XXXXXXXXXXXXXXX",
"             ooo o ooo o       o     o            XXXXXXXXXXXXXX",
"            oooooo o o o        o o o             XXXXXXXXXXXXXX",
"           ooo ooooooooooo     o o o o            XXXXXXXXXXXXXX",
"XX    XXXX  oooooooo oooo o   o o o               XXXXXXXXXXXXXX",
"XX XXX X   ooooooo ooo ooo o o o ooo o             XXXXXXXXXXXXX",
"XXXXXXXXX o ooooooooooooo      oooo o              XXXXXXXXXXXXX",
"XXXX XXX   ooo o oo oooooo o ooo ooo o o           XXXXXXXXXXXXX",
"XXXXXXXX   o oooo oo oooo o  oooooooo o            XXXXXXXXXXXXX",
"XXXXXXXX   ooo ooo o o o o   o o o ooo o           XXXXXXXXXXXXX",
"XXXXXXXX    ooo       oooo    o o     o             XXXXXXXXXXXX",
"XXXXXXX    o ooo o      o      o     o o o          XXXXXXXXXXXX",
"XXXXXXX    oo ooo     ooo                           XXXXXXXXXXXX",
"XXXXXXX    ooo       o o o                           XXXXXXXXXXX",
"XXXXXXX     ooooooooooo o       o                   XXXXXXXXXXXX",
"XXXXXXX     oooooooo ooooo o                         XXXXXXXXXXX",
"XXXXXXX       oooo oooooooo o o                      XXXXXXXXXXX",
"XXXXXX         o ooooooo ooooooo o o  o              XXXXXXXXXXX",
"XXXXXX          ooooooooooo o o o o o               XXXXXXXXXXXX",
"XXXXXX           ooooooooooooooooo o o              XXXXXXXXXXXX",
"XXXXXXX           oooo oooo o ooo o   o             XXXXXXXXXXXX",
"XXXXXXX           oo oooo oooooooo o o             XXXXXXXXXXXXX",
"XXXXXXXX          oooooooo oooo o o o              XXXXXXXXXXXXX",
"XXXXXXXX           ooooo oo oo ooo o o             XXXXXXXXXXXXX",
"XXXXXXXXX           o oooooooooo  oo              XXXXXXXXXXXXXX",
"XXXXXXXXX            ooo ooo o o o o o           XXXXXXXXXXXXXXX",
"XXXXXXXXXX              o o ooo o o              XXXXXXXXXXXXXXX",
"XXXXXXXXXX                 o o o o o o          XXXXXXXXXXXXXXXX",
"XXXXXXXXXXX                     o o o          XXXXXXXXXXXXXXXXX",
"XXXXXXXXXXX    X X             o o o          XXXXXXXXXXXXXXXXXX",
"XXXXXXXXXXXX    X                            XXXXXXXXXXXXXXXXXXX",
"XXXXXXXXXXXXX  X                           XXXXXXXXXXXXXXXXXXXXX",
"XXXXXXXXXXXXXX  X                         XXXXXXXXXXXXXXXXXXXXXX",
"XXXXXXXXXXXXXXXX XX                      XXXXXXXXXXXXXXXXXXXXXXX",
"XXXXXXXXXXXXXXXXX                       XXXXXXXXXXXXXXXXXXXXXXXX",
"XXXXXXXXXXXXXXXXXX X                   XXXXXXXXXXXXXXXXXXXXXXXXX",
"XXXXXXXXXXXXXXXXXXX                 XXXXXXXXXXXXXXXXXXXXXXXXXXXX",
"XXXXXXXXXXXXXXXXXXXX               XXXXXXXXXXXXXXXXXXXXXXXXXXXXX",
"XXXXXXXXXXXXXXXXXXXXXXX         XXXXXXXXXXXXXXXXXXXXXXXXXXXXXXXX",
"XXXXXXXXXXXXXXXXXXXXXXXXXXXXXXXXXXXXXXXXXXXXXXXXXXXXXXXXXXXXXXXX"};
