/* XPM */
static char * new_larry_2_xpm[] = {
"64 64 3 1",
". 	c None",
" 	c #000000000000",
"o	c #FFFFFFFFFFFF",
"             ...................................................",
"             ...................................................",
"             ...................................................",
"              ..................................................",
"              ..................................................",
"               .................................................",
"               .................................................",
"               .................................................",
"                ................................................",
"               .................................................",
"                ................................................",
"                ................................................",
"                 .................... .   ......................",
"                 .................           ...................",
"                   ..........                   ................",
"                   ......                        ...............",
"                     ...                           .............",
"                                                    ............",
"                                                     ...........",
"                                                      ..........",
"                                                       .........",
"                                                       .........",
"                                                        ........",
"                                   o                     .......",
"                                                          ......",
"                               o o o                       .....",
"                        o       o o      o  o               ....",
"                         o o o o o o       o o o o o        ....",
"                          o   o oo        o   o     o        ...",
"                           o o ooo       o o o ooo o o        ..",
"                          o ooooo         o o o o o o         ..",
"                           o ooooo       o o o o o o o        ..",
"                          o o o o o   o   oooooo  o o          .",
"               o         o o ooooo o     o ooo ooo o o         .",
"                o           o  oo o     ooooooo o o            .",
"             o o   o         o ooo       o o ooooooo           .",
"              o o o                     ooooooooo o            .",
"             ooooo oo        o o       o o o oo oo o           .",
"              o o ooo o     o   o       oooooo oooo            .",
"              oo o o       o o o oo  o oooooo oooo             .",
"               oo oo       oooooo ooo ooo ooooo o o            .",
"               ooooo o o oooooooooo oo ooooooooooo             .",
"                 oo     o  oo ooo o o oooooo ooooo            ..",
"                 o     ooooooooooo   ooooooooooo o            ..",
"                      o oo o ooo      o ooooo ooo             ..",
"                      ooooooooo oo    oooooooooo           . ...",
"                o o o o o  oo ooo     oo oooooo          .  ....",
"                 o ooo ooooooooo o o  oooooo         .   . .....",
"                  oo oo o ooooo oo  o ooo o           . . ......",
"                 ooooooooooooooooo oo oooo           . . .......",
"                    o oo oo ooo o ooo ooo                .......",
"                     o ooooooooooooo ooo                ........",
"                          oooooo oo oooo               .........",
"                           o o ooo ooo                ..........",
"                              o                     ............",
"                            .                     ..............",
"                            . .                 ................",
"                            .......            .................",
"                            . ...........   ....................",
"                            ....................................",
"                             .. ................................",
"                            ....................................",
"                            . ..................................",
"                            ...................................."};
