/* XPM */
static char * new_larry_1_xpm[] = {
"64 64 3 1",
" 	c None",
".	c #000000000000",
"o	c #FFFFFFFFFFFF",
"                                                                ",
"                                                                ",
"                               ...........                      ",
"                            .................                   ",
"                           ...................                  ",
"                          ................... .                 ",
"                         .......................                ",
"                        ......................  .               ",
"                       ......................... ..             ",
"                      ........................... ..            ",
"                    ............................ ....           ",
"                   ..........o.o.o............. . ....          ",
"                  ..........o.o.o......................         ",
"                 ..........o.o.o.o.o.o.................         ",
"                ..............o.o.ooo.o.o...............        ",
"                ...........o.o.o.o.o.ooo.ooo............        ",
"               ..............oo..oooooooooo.o............       ",
"              .............o.o.ooo.oo.oo.ooooo...........       ",
"              ..............o.o.o.oooo.oooooooo...........      ",
"              .............o.o.oooooooo.oooo.oo...........      ",
"             .............o...o.ooo.o.oooo.oooo...........      ",
"             ..............o.o.ooooooooooooooooo...........     ",
"             ...............o.o.o.o.o.ooooooooooo..........     ",
"            ..............o..o.o.ooooooo.ooooooo.o.........     ",
"            ......................o.o.oooooooo.oooo.......      ",
"            .........................o.ooooo.oooooooo.....      ",
"             ...................o.......o.ooooooooooo.....      ",
"            ...........................o.o.o.......ooo....      ",
"             ...........................ooo.....ooo.oo....      ",
"             ..........o.o.o.....o......o......o.ooo.o...       ",
"             .............o.....o.o....oooo.......ooo....       ",
"              ...........o.ooo.o.o.o...o.o.o.o.ooo.ooo...       ",
"              ............o.oooooooo..o.oooo.oo.oooo.o...       ",
"              ...........o.o.ooo.ooo.o.oooooo.oo.o.ooo...   .   ",
"              ..............o.oooo......ooooooooooooo.o.        ",
"              .............o.ooo.o.o.o.ooo.ooo.ooooooo... .   . ",
"               ...............o.o.o...o.oooo.oooooooo..     .   ",
"               ............o.o.o.o.....ooooooooooo.ooo..........",
"               .............o.o.o........o.o.o.oooooo...........",
"               ............o.....o.......o.ooo.o.ooo............",
"                ..........o...............oooooooo.o............",
"                 ........................o.o.o.o.ooo............",
"                 .....................o.....ooo.ooo.............",
"                 ........................o.....ooo.o............",
"                .....................oo.......oo.oo.............",
"                ...................o.ooooo.....ooo..............",
"              ......................o.o.ooo...o.oo..............",
"              .......................o.o.ooo...o.o..............",
"            ......................o.ooo.oo....o.................",
"        . .......................o.o.o.ooo......................",
"     ...............................oooo........................",
"   ................................o.o..........................",
"................................................................",
"................................................................",
"................................................................",
"................................................................",
"................................................................",
"................................................................",
"................................................................",
"................................................................",
"................................................................",
"................................................................",
"................................................................",
"................................................................"};
