/* XPM */
static char * new_larry_4_xpm[] = {
"64 64 3 1",
" 	c None",
".	c #000000000000",
"o	c #FFFFFFFFFFFF",
"                                     ...........................",
"                                     ...........................",
"                                   .............................",
"                                    ............................",
"                                 .  ............................",
"                                    ............................",
"                     ...           . ...........................",
"                   ...........       ...........................",
"                 ................. . ...........................",
"               ..................... ...........................",
"             .....................o.............................",
"           ................ooo.ooo.o.o..........................",
"          ...............oooo.oo.oooooo.........................",
"         ................ooo.ooooooooooooo.o....................",
"        ................ooo.ooo.o.ooo.oo.oo.o...................",
"        . . ...........oooo.oo.ooooooooooooooooo................",
"       . . ...........o.ooo.o..oo.ooooo.o.oo.oo.................",
"      . ... .........oooooo..o.o.ooooooooo.ooo.o................",
"     .. ..........oooooo.oo.....ooo.oo..o.o.o.o.o...............",
"    . ...........oooooooooo....oo.ooooooooo.....................",
"   .............ooo.ooooo.o......ooo.o.oo.o.....................",
"   ............o.ooooooooooo...ooooooooooo.....o................",
"   ............ooooo.oooooo.o.o.ooo.oo..o.....oo................",
"  .............ooooooooooo.oo.oooooooooo.o.o.ooooo..............",
"  ............o.o.ooooo.ooo.ooo.oooooo.......oo.oo..............",
"  .............oooo.oooooo.o..oo.o.o.o.......o.o.oo.............",
"  ............oooo.oooooo.......o...o.....o.ooo.o.o.............",
"  ...........o.oo.oo.o.o.o.......o.o........oo.ooooo............",
"  ............o.ooooooooo.....................o.o.o.............",
"  ...........ooooooo.o.o.......ooo.o.........o...o.o............",
"  ............o.o.ooooooo.....o.oo..o...........o...............",
"  .........o.o.ooo.ooo.o.....o.ooooo.o.o.........o..............",
"   .........o.o..oooooo...o...o.o.o.o.o.........................",
"   ........o.o.o.o.o.o.o.......ooooo.o..........................",
"   .........o.o.o.o.o.o.........ooooo.o.........................",
"    .......o.o.ooo.o.o.o.......ooo.o.o..........................",
"     .......o.....o...o........oo.o...o.........................",
"     ........o.o.o.o.o.......o.o.o.o.o.o........................",
"     ...............o..o......o.o.......o.......................",
"      .......................o.o.o..............................",
"       .........................................................",
"        .....................o..................................",
"         .......................................................",
"          ......................................................",
"          ......................................................",
"           .....................................................",
"            ....................................................",
"             ...................................................",
"              ...........................   ....................",
"                ........................      ..................",
"                 ...................          ..................",
"                    ...........                 ................",
"                       ... .                    ................",
"                                                 ...............",
"                                                ................",
"                                                ................",
"                                                ................",
"                                                ................",
"                                                ................",
"                                                ................",
"                                                 ...............",
"                                                 ...............",
"                                                  ..............",
"                                                  .............."};
