/* XPM */
static char *lock_kerberos4_xpm[] = {
/* width height num_colors chars_per_pixel */
"    32    30        4            1",
/* colors */
". c None",
"# c #0000ff",
"a c #000000",
"b c #ffff00",
/* pixels */
"................................",
".##.##......##..................",
"..#.#........#..................",
"..#.#........#..................",
"..##...##.#.####..##.#.##.#..##.",
"..##..#..#.#.#..##..#.#..#.##...",
"..#.#.####.#.#..#####.#..#.#.#..",
"..#.#.#....#.#..##....#..#.#..#.",
"..#.#.#..#.#.#..##..#.#..#.##.#.",
".##.##.##..#.###..##.###..#..#..",
"................................",
"................................",
"................................",
"......................aaa.......",
".........#...........abbaa......",
".........#.........abbaabbaa....",
".......#.#.........aba..ababa...",
".......#.#.........aba..ababa...",
"......#..#.......aaaaaaaaaaaaa..",
"......#####......abbbbbbbbbbaba.",
".........#.......abbbbaabbbbaba.",
".........#.......abbbbaabbbbaba.",
".................abbbbaabbbbaba.",
".................abbbaaaabbbaba.",
".................abbbaaaabbbaba.",
".................abbbbaabbbbaba.",
".................abbbbbbbbbbaba.",
"..................aaaaaaaaaaaba.",
"..................abbbbbbbbbbaa.",
"...................aaaaaaaaaaa.."
};
