/* XPM */
static char * mag_7_xpm[] = {
"64 64 8 1",
" 	c None",
".	c #659549243CF3",
"X	c #820751444514",
"o	c #9A6971C66595",
"O	c #69A634D330C2",
"+	c #20811C711C71",
"@	c #451434D32CB2",
"#	c #1C7114511451",
"                                                                ",
"                                                                ",
"                                                                ",
"                                                                ",
"                                                                ",
"                                                                ",
"                                                                ",
"                                                                ",
"                                                                ",
"                                                                ",
"                                                                ",
"                                                                ",
"                          .Xooooooooo                           ",
"                     oXoXX.oooooooooXX                          ",
"                   XoooXoXoXoXoXoXooXooo                        ",
"                 XooooooX....XX..X...oooo                       ",
"               OXoooXoooXXXX.o+...X..@.ooo                      ",
"             @.XooooooX..@@.@+o.@..@@X.Xooo                     ",
"            @..Xoooooo@@+@@@@X@...+@X@o@.OXX                    ",
"           +@XXooooXo.@+@++@@@+@@@@..@@.@@Xo.                   ",
"          @@oXooooooo.+@@++@++@@.@@@@+@.@o@.X@                  ",
"          ooXoooooooo@@@@+@++@@++.+@@++++@@X@.O                 ",
"         @ooXoooooooo+@+@+++@@++@@+.+@+@+++o+.@X                ",
"         .ooooXooooo.@+++@+++++++@+++@++@#.+#.+@                ",
"        .ooXoooooooo.@+@++++++++++++@++@+@++@#@+@               ",
"        .XooXXoooooXX@@+++++++++++++++@+@@++#+@#@               ",
"        @ooXooXoXXo..@++++++@+++++++@+@+@++++#@++O              ",
"        XooooXoXXooX.++++++++++++++++++++#+#@++++@              ",
"        ooXooXooXoX.@++++++++++++++++#+++##+##@@#@@             ",
"       ooXXoooo.o.o.@@++++++++#+#++++###++#+###++@@             ",
"       oX..XoXooXo...++++#+##+###++#+#########+#+@+             ",
"       .o+..XXo.oXXo.@#+######+#+##+#++#####+++++@@             ",
"        X+.@.@.X.Xo@.o##+#++++###+++####+#+####++@@             ",
"        X.@+......@oX.X@++#+##+#+#+##+#######+###+@             ",
"        o.++++.....o.oX.+@+####+#+++#####++#++#+#+@             ",
"       o...@+@@..o..o@oX@++#++##@+.oo###+####++##@              ",
"      XXo@.......@..o.o.@+@+@@+..+.@X.#####+#+##+#              ",
"      oo.......o.oo...Xo@@+@+@@O.+OXOX#+########@+              ",
"    ooo......o.o.o.o.XX..+#O@...+XXX.o@###+#+###++              ",
"   .oooXX..oXX.o.oXX.X...XOO.X.OOOOX.X#+#######++               ",
"   XX.oX.@XX..Xo.o.X.X.X.O.X..X@OOOXOXO+####+##++               ",
"    .@..X@X..o.X....o.OO.X..XXX+#OXXOOO###+###++#               ",
"     ++@OOO.........OO.OOO.XX.X@OOXOOXO@######++                ",
"      OO+OOX.O.X.X.X.OXO..O.XOO#OOOXOOO++####+++                ",
"      .OOOOOOOOX..O.O.X.XO..XO.XOXOOXOX@######@                 ",
"      .OO.OXOXOOO.XOX.O.O.O.XO.XXXOO.XOO+######                 ",
"      .OOOOOXOX.OX..OOX.X.X.O.O.XOOXXOXO####+#+                 ",
"      .+@@OO..XOO..X..X.OO..OOOOOOXXX...O@#+++                  ",
"      ..@OO@.X.OOOOOO...O.X.XXX.OOOXOX..O@+++#                  ",
"      .OO.OOXO.OX.X.X.OXOO.OO.XOOOXX.X..O.+@#                   ",
"      .O@XOO..XOOXOXOOOOO.OX.X.XXX.XXOXX..@##                   ",
"      ...OOOOOOOXOOO.OX.OOOX..XXXXXXXX.XX.O#                    ",
"      .O.O.OO.OOOO.OOOOOO.X.XXXXXXXXXXOXX.O#                    ",
"       OO@OOOOOO.OOO.O.OOOO...XXXXXXXXXX.OO..X                  ",
"       @@@@@@@@O@OOOOO@OXOOXO..XXXoXXXXOOO@..X                  ",
"       @@@@@@@@.O@OO@O.OOOOOX.XXXXXXXXOOO@.X.o                  ",
"        ++@++@@+@.@O@.@O.O...OXXXXXXXOO@....Xo                  ",
"          ++@+@@@@O.OOO@OOOOOO.XXXXO@.OO@..X.X                  ",
"            +@+@@@+@+@@O..O.OX.XXOO@@........o                  ",
"               @+@@@@O@.OOO.X.XO@O@@@@....@o..                  ",
"                 @@@@OO@O..X..@@+@@@@.@@@..@.o                  ",
"                  +@@+.@O.X@.O@@@@@@@.@.@.@.X.o                 ",
"                  OO@OO@OO.O@#@@@+@@@@@+o+...@o                 ",
"                   @@@..O.@@@@@@+@@X+..@@@.ooooo                "};
