/* XPM */
static char * mag_4_xpm[] = {
"64 64 8 1",
" 	c None",
".	c #820751444514",
"X	c #9A6971C66595",
"o	c #69A634D330C2",
"O	c #659549243CF3",
"+	c #451434D32CB2",
"@	c #1C7114511451",
"#	c #20811C711C71",
"                                                                ",
"                                                                ",
"                                                                ",
"                                                                ",
"                                                                ",
"                                                                ",
"                                                                ",
"                                                                ",
"                                                                ",
"                                                                ",
"                                                                ",
"                      ..XX..XXXX.                               ",
"                    o.X..XXXXXXXX..X                            ",
"                  oOOOOX.XXXXXXXXX.O..                          ",
"                 o++OO.XX.XXXXXXXXX.OOOO.                       ",
"                ++oOOOO..XXXXXXX..O.O+OOOo                      ",
"               @++++OOO.X.XXXXXXX.OOOOOOOo..                    ",
"               o+#OOOOO.XXXXXXXX.XO.O.+OoOO.O                   ",
"              +@+o+OOO.X.XXXXXXXXXX.O#.+.X@.+O                  ",
"             +OO.OX.XXXXXXXXXXXXX.OX#+X#X.OO#OO                 ",
"             +.XO....XXXXXXXXXXXX.O+#OO+OO+O+X#X                ",
"            OX..X.XXXXXXXXXXXXXXXOO.OX#XO+#.+O@+                ",
"            X.XX.XOXXXXXXXXXXXXXXX#OOOO#+O+++#+#                ",
"           #XXXX.XXXXXXXXXXXXXXXX.+++O++#+OO+#++.               ",
"           X.XX..X.XXXXXXXXXXXXXX.#O#+#+#+++O++.#               ",
"          +XX.XOX.XXXXXXXXXXXXXXX.+O#+#+++#++O#X#               ",
"          OXXX.XXXOXXXXXXXXXXXXXXXo+###+###+#O+O+               ",
"         +XXXXXX.XXXXXXXXXXXXXXXX.+#+###+###+++++               ",
"         +XXXXXX.XX.XXXXXXXXXXXXXX+@+####+#+##+##+              ",
"         .XXXX.XX..XXXXXXXXXXXXXXoo@###+##@+#++#++              ",
"         OOO...XO.......XXXXXXXXX.o+@#########+++@              ",
"         ++#+OOO..ooooo.XXXXXXXXX.o@+##@######++#@              ",
"         O###++.OOO+@+ooo..XXXXXXX.o@##@######+##@              ",
"         .O++++oOoooooooo...X.XXX...###@@####+#++o              ",
"          ++@##O..oo+@@+ooo......X.Xo@@###@#+@+#@+              ",
"          .++O#O..O+++@@@+ooo.....X..##@@@##@#+#+               ",
"          XOOO+X..oo++o+ooooooo..X.XX++@#@+.ooX#@               ",
"           OO+XXXOOOOooooo.....XX.XX.o@@.@ooOoXX@               ",
"           .O.XXXX...+oOOO..X.XXXX.XXo+@ooooOO.X                ",
"           X.XXXX...O.OO...XXXXXXXXX.o@oOOoO..XX                ",
"          .OXXXXXX.o.O...X.XXXXXXX..X.o.ooo@..X.                ",
"          O.XXXXXX.ooX.X.XXXXXXXX.XX..X.oooo...                 ",
"          oOoo...X.ooO...X.X.XX.XX.....Xo#oooOo                 ",
"         oooooo+@@.@oo....X..XX.........ooO...#                 ",
"         oOOo@ooooooooOO............o.o.ooo.oX                  ",
"         ooO.ooooooo.O.O.....X............X.X+                  ",
"         OOOoooooooooO.OOO.o.o............XX.                   ",
"         .OoOOooo.Oo.ooO..o....XX...o..o.X.o                    ",
"         Oo+o+o+ooooooOoOO.o....o......o...                     ",
"         +O#OooO+o++o@oo.o...o...........X                      ",
"         +O#.+o+oOOO.oooO...o..o..........                      ",
"         +o.oo@ooo.Ooo+oO....o...........X                      ",
"         OOoOooo+o+.OOOoO.O.O.o.oo.o..X..X                      ",
"          oOO+OOo.oOOo+ooO..o.oo.o.....XXX                      ",
"          +.OoooOOO.o.ooOoO.ooo.oo.o....XX                      ",
"           +.O.OO.OOo+Ooooooo.oo.o...o.XXX+                     ",
"           ooOoO.OOooo+oOoOooooo.o.o.....Xo                     ",
"            +ooO+ooO+++O+o+oOo.oOo.Oo...X..                     ",
"              o+++#++#++o+OO+oooo.OO.....o..                    ",
"              ++++#@@o++O++oo+o+OoOo.o..oO.O                    ",
"               #+++o+o+o+oo+OOo+oO.oO..ooO...                   ",
"               @@o@+#o++o+O++o+oooOo.oooOO+X.                   ",
"              +@@@++o++++O+oo+OoOo.OooO++O+XO                   ",
"             +@@@@O+#+O#+++O+oOo+ooO+O+OO.O+OX                  "};
