/* XPM */
static char * mag_5_xpm[] = {
"64 64 8 1",
" 	c None",
".	c #820751444514",
"X	c #9A6971C66595",
"o	c #451434D32CB2",
"O	c #659549243CF3",
"+	c #1C7114511451",
"@	c #20811C711C71",
"#	c #69A634D330C2",
"                                                                ",
"                                                                ",
"                                                                ",
"                                                                ",
"                                                                ",
"                                                                ",
"                                                                ",
"                                                                ",
"                                                                ",
"                                                                ",
"                                                                ",
"                        .....XXX.o                              ",
"                     ...XXXXXXX.XXX.X                           ",
"                   OOXXXXXXXXXXXXXX.O..O                        ",
"                  +OO.XXXXXXXXX....OO.X.O                       ",
"                 ooOO..XXXXXXXX.XOOOO..OO.O                     ",
"               oooOOO.XXXXXXXXXX..XoOOOO.OOO                    ",
"              ooooOOOXXXXXXXXXX.XO.oOO@.#OoOO                   ",
"             @oooOoOO.XXXXXXXXXX.O@oX@.OoOOOOO                  ",
"            +OoOoX.XXXXXXXXXXX.Ooo@oOOOoOOo.OOO                 ",
"           @@.X.X..XXXXXXXXXXXXoO@O@OOOooOo.ooOo                ",
"           +OX...XXXXXXXXXXXXX.oOOOOoOo@OO@oo@o@O               ",
"           +XXX.XXXXXXXXXXXXXXX@O@oo@@oOOOO@O@o@O               ",
"          OoXX.XXXX.XXXXXXXXXXO@O@O@o@oO@@.@.oo@o               ",
"          o.X....XXXXXXXXXXXXXXoO@@o@o@@o@o@@o@oo@              ",
"          OX..X.XXX.XXXXXXXXXX.ooo@@@@o@@o@OOOoooo              ",
"          XXXXOXXXXXXXXXXXXXXX.oo@@@o@o@o@@o@oo.@@              ",
"         OXXXXXXXXXXXXXXXXXXXXO@o@@@@o@@o@o@o@o@o@+             ",
"         oXXX.X.XXXXXXXXXXXXXX.o@@o@@@@@@@o@o@@@o@o             ",
"         .X#XOOX.XXXXXXXXXXXXXO@o@@@o@@@o@@@@@@o@@@             ",
"         OOXo.XO.OOXXXXXXXXXXXO@@@@@@@@@@@@@o@@@@o@o            ",
"         @@@OXoooo@o..XXXX..XXOOo@@@@@@@@@@@@o@@@o@+            ",
"          @@.OOO@oo+o##..XXX.X..O@@@@@@@@@@@o@@@@@oo            ",
"           @@XOOoO##OO.....X...X.o+o@@@@@@@@@@@@@+o@            ",
"           @oOXoO#+@@oo##.........@o+@o@@@@ooo@@@+oo            ",
"           oOO.O##oo+.o@###...X.X.oo@@o@+@oO.O++@@@@            ",
"           OXXOOOooooOO#.O.....X..O+++o+o#OOoXo+++o+            ",
"           XXX.O..OOO.O..XXXX.XOX.##ooOOo#o..o#+@@o             ",
"          XXXXXO..OOO.O.X.XXXX.XOXO#+#O####..+.+++o             ",
"         XXXXXOOOX...OX.XXXXXXXOXX.#@O.Oo##.X##++o              ",
"         XXXXXX.##.XO..X.X.X..X..O.....oO##...o++@              ",
"         X..XXX.#oO..X.X....X......OO..##.#...+++               ",
"          oo@o..@#.O....XO.........O...####...o+                ",
"          O.#+#o##OO.............O....##....X++o                ",
"          .Oo#####OOOOO...........O...O#..#X.o+                 ",
"          OoO##O.OO.O.OO.......OO.O..O......o++                 ",
"          .OO#OO#O.OOO.OOO.........OX#......#+                  ",
"          OOOOO#O##OO.O..OO..O.OXOOO.##.....+                   ",
"          oO+o#ooo#O..OOO.O..O...OO...#.....o                   ",
"          ###OOOO###O...OOOOOXOOO.O........#                    ",
"          #ooO#OOO.o#....O.OOOO.OOOOO......#                    ",
"          .oo#oOO###OO.OOOO#..OOO#.O.X...X.#                    ",
"          OOOOO.OO#O#O.O.OOOOO.OOOOO....X.X#                    ",
"          O..O.OOO.O.OOOOO.OOOOO#O.O......X+                    ",
"          OOOOOO.#OO#OOOO#O#OO#Oo#OO.....X.#O                   ",
"           OOOO#o##o#o#oO###O#Oo.o.O.......O.                   ",
"            O#Ooo#oooo#Oo#OO##O#Oo.O.....X..O                   ",
"              @#@@@+@o@#o#o##O#oO.OO.....#OOO                   ",
"                +o#oo#o#Oo@#o##O#OO.....#.OOO                   ",
"                o+ooooooo@##Oo#O#OOO...OOOOO.                   ",
"                o+ooo+ooo##o###O#..OO#OoOOOOO.                  ",
"                #o@ooo#@#+OoOoO.OOO.OoooOOo.OX                  ",
"                +++oooooOo#####.OOO##oOOOoO.OO.                 ",
"               o+++oooO@o##o#.OOOOOOOOOooO.@O..                 "};
