/* XPM */
static char * mag_15_xpm[] = {
"64 64 8 1",
" 	c None",
".	c #9A6971C66595",
"X	c #820751444514",
"o	c #659549243CF3",
"O	c #69A634D330C2",
"+	c #451434D32CB2",
"@	c #20811C711C71",
"#	c #1C7114511451",
"                                                                ",
"                                                                ",
"                                                                ",
"                                                                ",
"                                                                ",
"                                                                ",
"                                                                ",
"                                                                ",
"                                                                ",
"                                                                ",
"                                                                ",
"                                                                ",
"                                                                ",
"                                                                ",
"                                                                ",
"                                                                ",
"                                                                ",
"                                   .XX                          ",
"                               .......XXoO                      ",
"                           ..........Xo.Xooo                    ",
"                         .........XXoooo+oXX.X                  ",
"                        .........Xo+oooooooXX.X                 ",
"                      ..XX.....XXoo@+@++oo+ooXX.                ",
"                     OXXXoXXXXXOOoo+X@o@++++o+..X               ",
"                    @@++oooooOoo+ooX+@@o++++++oX..              ",
"                   #+#+oo+X+o+oo+o#+++++@@+@o@ooX.X             ",
"                  @#+#+oo@o@+o#+++@@+@@@+@+++@X@o..             ",
"                 #+#+#o+o@#+@+@+@+@@+@+@@++@o@X@o..X            ",
"                #####+@+#X@+@@+@@@+@@@@@+@@@+@oX@...            ",
"                +#+##@#@o+++++@+@@@@@@@@@@@@@+++o....           ",
"               #####++##o@++@@@+@@@#@###@@@+#+@+#....           ",
"               +#+#####@@@+@@@@@@####@#@@@##+#+#O.....          ",
"               #####+#+#@@@@@@@##@#@#####@@@#@+#+O....          ",
"               #+#@###+@#@###@@@#@####@##@@#####O.....          ",
"               ############@##@@###@##@@@##@+##+#XX...          ",
"               #####@#@###@@##@###@#@#####@##+##+OX....         ",
"               #######@#########@####@##@##@###+#OX....         ",
"               ###########@#######@##@#@@###+@#+#X.....         ",
"               #########@#####@####@@####@@#####OXX....         ",
"               #@########@#######@##@##@.X##+##+O...XX.         ",
"               @+########@##########@##.++o###@Oo.X.XO          ",
"               ############@@@########o.@@o#++#OO.X.O           ",
"               ########@#####@#@@#####XXOOO#O##XOX...           ",
"               ##@############@@######.X##XooOOOX.X..           ",
"                #@################@@+#OX+OoXoOoXXXX...          ",
"                #@################@+OOX.##XoXooX.X....          ",
"                ##@###############+o+#OX+#XXXXooXXXX...         ",
"                #################@oOOOOXX.OXXooXXX.....         ",
"                 ##############@#@ooOO#O...XooXOXXXX...         ",
"                 ################oXoOOOO.XXXOXooXXXX.           ",
"                  #############+OOooXoOOOXOXXXOXoXX.X           ",
"                  ######@####@@+ooXooXXOOOOXXoXXXXXXX           ",
"                   #@@@#@@#@@@ooooooXooOXXXXOXooXXXXX           ",
"                   ##@@+@@@+@ooooXXXXXXXXOXOXooXooXXX           ",
"                    #@++++++++ooooooXX.XXXXXXooooXoXX           ",
"                    +++ooo++oOXoXXXXooXXXXXXOoXoXooX.           ",
"                    o+oooo+OoooooooXX.X.XXXXoXooooXoX           ",
"                   +@+o+o+OOooXoXXoX.XXXXXXXXoooXoooX           ",
"                   +@+@+o+o+OooXoXXoXXXX.XXOXOoOOoOo            ",
"                   ++@+++#+@+OOoX.XoXXX.XXXoo+OooOO             ",
"                   ++++@+@+@OO+OooXX.XXX.oXXoOO+O               ",
"                  +++++++++++@+OOOoXXo..XXooXOoX                ",
"                  ++++@++++++o+@O+O@OXX.XXXXoO                  ",
"                  ++@+++@++@++++++OOOXXXXXoXo                   "};
