/* XPM */
static char * mag_10_xpm[] = {
"64 64 8 1",
" 	c None",
".	c #9A6971C66595",
"X	c #820751444514",
"o	c #659549243CF3",
"O	c #451434D32CB2",
"+	c #20811C711C71",
"@	c #69A634D330C2",
"#	c #1C7114511451",
"                                                                ",
"                                                                ",
"                                                                ",
"                                                                ",
"                                                                ",
"                                                                ",
"                                                                ",
"                                                                ",
"                                                                ",
"                                                                ",
"                                                                ",
"                                                                ",
"                                                                ",
"                            ......                              ",
"                        XX...........                           ",
"                      ooo.............X                         ",
"                    OOOoo.X.............                        ",
"                   ++OOoo.................                      ",
"                  +++OOOoo.................                     ",
"                 +++++OooO@XX..X......X.XoXX                    ",
"                ++++++++o+OOoX@X@@XXX@XoXooXo                   ",
"               +++#+++O+O++OoOooooOo@OoXoooooo                  ",
"               ++###++++O+Oo#+OXo+.oOooooXoooo                  ",
"               +#++#+#+++++++O+oOo+OOoooOoX+X+o                 ",
"              +####++#+#+++++O+++O+oOooOoOoO+oOO                ",
"              ++#########+++++++O+OoOO+oO+oOOO+O                ",
"              ++#+######+++++++++++++++O++OO+OOO+               ",
"             +###+########++##+++O++O+++OO+OO+++O               ",
"             ++######+##+##++#+++++++++++++OO+O+OO              ",
"             +#+###########+#++++++++++O++++++O++O              ",
"             ++#+##############++++++++O#+O++++++O              ",
"             #O#####+#########+#++++++#++++++++++O              ",
"             ###+#+###+########++#+#++#O+#++++O++O              ",
"             ##++#+##########+#+###+++#+#+++++#++O              ",
"             o#+o+##++############++#+#++++++++#+O              ",
"             X##Xo################+++##+#++#+#+++O              ",
"             X++X.######++##########++###++++++#++              ",
"             .++oo+##############+##+###+###+#++OO              ",
"             ooOoo@++#####################++##++O+              ",
"             oooo@OOO+#################+#+####O+O+              ",
"             oo@o@@+OO#+#############+####+#++O++               ",
"             oXo@X@@+o###################++#+##o.               ",
"             oooX@@#OoO####################+#+#o                ",
"             oX@@@@@#ooO######################Xo                ",
"             oo@X@#O#Xoo+##############++#++++X                 ",
"             oXo@@@#OoXoO+###########+#+##+++Oo                 ",
"             oo@@@@@@@@ooO++##########+++++OOo                  ",
"              X@@@@@@XoXooo##########+#+++#Xoo                  ",
"              oXXX@@Xo@ooooO+########++OOO+Xo                   ",
"              @@@@XooooXXoooO+++##+++OOOooOoo                   ",
"              @oo@oXXoooooooOOO+O++OOOoOooooo                   ",
"               O@@ooXXooXoooooOOO+OooOo@ooooo                   ",
"                o@XoooooooXooOOOO+Oo+o@@oXooo                   ",
"                  oooo@@o@O++O+OOO+OOoO@@oo.X                   ",
"                   oXooO++O#O+O+OOOOOoO@oOoX.o                  ",
"                   Xoo+O@+O++O+OO+OOOoOOoooX.o                  ",
"                   oOOOOO++OO+O+++OOO+OOOoOoXoo                 ",
"                   ++OOOO+O++O+OO+oOOOOOOOOoO.o                 ",
"                  OOooOO+O+OO+OO+O++++++ooO++.o                 ",
"                  #OOO+O++O++OOO++OOoo.OOoo.oooX                ",
"                 O+OOO+++O+OO+OOOOO+oooooO.o..o.                ",
"                +#oO++++OO+OO+o+o+OOOOOoooooO..XX               ",
"                #o++OO+Oooooo.oooOoooo.ooo.....X..              ",
"               +OoO++OOooOOoOO+ooooooooO.ooo.o....XX            "};
