/* XPM */
static char * mag_9_xpm[] = {
"64 64 8 1",
" 	c None",
".	c #9A6971C66595",
"X	c #659549243CF3",
"o	c #820751444514",
"O	c #451434D32CB2",
"+	c #20811C711C71",
"@	c #1C7114511451",
"#	c #69A634D330C2",
"                                                                ",
"                                                                ",
"                                                                ",
"                                                                ",
"                                                                ",
"                                                                ",
"                                                                ",
"                                                                ",
"                                                                ",
"                                                                ",
"                                                                ",
"                                                                ",
"                                                                ",
"                          .........X                            ",
"                        o.............                          ",
"                      XoX.............o                         ",
"                    OOOOXXX.............                        ",
"                   O+@+OOXX...............                      ",
"                  O@++O+OOXXX..............                     ",
"                 @O++++O+OXXXooo.oo..o#o.oXXX                   ",
"                @@@+++++OO+XXOX##oo####O#XoXoX                  ",
"               ++++++@+O+++XOOOOXoX##XX#XoXXXXX                 ",
"              @@@@+@+@+@+++++@OOOOOoX+oOXOXoXoOX                ",
"              @@+@@+@@@+++++++O@++@oOXO+XXXOXXXO                ",
"              +O@@+@@@@@@++++O++O++O+X@oXXoOOXOOX               ",
"             +@@@@@+++@@@++++++++@OOX+OX+OOXOX+O+               ",
"             @@+@@@++++@@@@@+++++@+@++OO++OOOX+X+               ",
"             @++@@@@++@@+@@@@+++@+++O+O+O+++O+X+O               ",
"            oO@+@+@@@@@@@@@@+@++++++@O@+O+++O+X@O#              ",
"            X@+@@@@@@@@@@@@@@@@+@@@+@+++@+++O+O+@O              ",
"           .oO@++@@@@@@@@@@+@++@@+@+@@+++++O@@O@@O              ",
"           .o@++++@@@@@@@@@+@@@@@@@+@+@O+@@+@O@@@O              ",
"           o.+++@+@@@@@@@@@@@@@@@@@@+@+O@@@@+@@@@O              ",
"           X.O+++++@@@@@@@@+@@@@@@@@@@+@+@@+@@O+++              ",
"           oo.+@@@OO+@@@@+@@@@@+@@@@+@@++@@++@@@++              ",
"           X.X@O+@OoO@@@@@@@@@@@@@@@@@@+@@+++@O@+O              ",
"           .o.@O@OO#X@@@@@@@++@@@@@@@@@@@@@@++@++               ",
"           .ooO@OO##o#@@@@@@@@@@@@@@@@@+@@@+++@@@               ",
"           .XXX+#X##o#@++@@@@@+@@@@@@@@@@@@@++++O               ",
"           XoX##Xo#X##OO@@@@@@@@@@@@@@@@@++++++@O               ",
"           oXXXX##X###@#O@@@@@@@@@@@@@@+@@++O+++                ",
"           XXX##XX##o#@#X+@@@@@@@@@@@+@@@@+@+@@                 ",
"           XXXX#######+oXO@@@@@@@@@@@@@++@@@+@@                 ",
"           XXXXXX#o#####XX+@@@@@@@@@@@@@@@++@@                  ",
"           XXX###oo##@O#Xo#O+@@@@@@@@@@@@@+@+                   ",
"           X#oX#Xo##@O##XXXX@@@@@@@@@@@@@+++                    ",
"           XXX#XoX#####XoXXXO+@@@@@@@@@@+++                     ",
"           XXXoX#Xo##XXXXoXXOO+@@@@@@@+++@                      ",
"           XoX#XX#X##XoXX#XoXOO+@@@@@@@+OO                      ",
"           oXXXO#X#XXXXXoXXXXX#O+O++@+OO+#                      ",
"            XXXXO#XoXoXo#oXooXXOOO+O+OO#XX                      ",
"            XXOOXX#XXXXXXXooXXXX#XOO+XOXXX                      ",
"              OX#XXoXoooXXoX.X#XO#+O@#XOXX                      ",
"                XXXXoXoXXoXXOO+O+OOOO+OOOXX                     ",
"                 #XXXXXXoX#+O++OOO+OO##OXOXo                    ",
"                  XXXoXXO++OOOOO+OOOOXOOXXOX                    ",
"                   XXX+O+OOOO+OOOOOXOXOOOXXX                    ",
"                   X#O+O#OOO+OOOO+XO+XO+OO+X                    ",
"                   OO+OOO+O+OO+OOOOOOO+O+OOoO                   ",
"                   +@O+OO+OO+O+O+O+O+XoooXXo.o                  ",
"                  X+OOOO+O+O+O++OooXOXXXXoXXoo.                 ",
"                 O++OO+OO+OOO+OO+OOOOOXOXXO.o.o                 ",
"                X@@X++O+O+XOXXXXXXXooXXX.OooX...                ",
"               X+@++OO++XOXXooX.oO.oXXXXooXX.o...               "};
