/* XPM */
static char * mag_12_xpm[] = {
"64 64 8 1",
" 	c None",
".	c #69A634D330C2",
"X	c #659549243CF3",
"o	c #820751444514",
"O	c #9A6971C66595",
"+	c #451434D32CB2",
"@	c #20811C711C71",
"#	c #1C7114511451",
"                                                                ",
"                                                                ",
"                                                                ",
"                                                                ",
"                                                                ",
"                                                                ",
"                                                                ",
"                                                                ",
"                                                                ",
"                                                                ",
"                                                                ",
"                                                                ",
"                                                                ",
"                                                                ",
"                                                                ",
"                           .X.ooooOo                            ",
"                        .+.+.oOOOOOOOOoX.                       ",
"                       @..OOOOOOOOOOOOOOoX.                     ",
"                      ++oOOOOOOOOOOOOOOOOOo+                    ",
"                     @#XOOOOOOOOOOOOOOOOOOX..                   ",
"                    @++oOOOOOOOOOOOOOOOOOOOXX+                  ",
"                  #@#++XXooOOOOOOOOOOOOOOOoX+X.                 ",
"                  +#+@++XXoo.o.oOOoOooOoooXXX@.+                ",
"                 #####++X++.X+Xo.oo.o+.oo+.++..@X               ",
"                 +#++#@@++@+++++X+@XXo+XXXX@++++.               ",
"                 ####@@@+@+++++X++XX+O@X+XX.@+.#+X              ",
"                 ####@#@@@++++++@+@++++@+X@X+@#+..              ",
"                #@#+#@##+@@+@#@+@+@+@@X+@X++@++@++              ",
"                @#+###@#@@@@@@+@@@@@+@o+++@++@+++@              ",
"                ######@@@@@@@@@@++++@@@++@+##++#+@              ",
"                #+#@######@@@@@@@@+@@@@+@@@+##@#+#              ",
"                #@@#######@@##@@@+@@@+@@@+#+##+#++              ",
"                @+##########@##@@+@@@@@@@+##@@##+#              ",
"                @@####@###@#####@@@@#@@#@@#@@@@@@+              ",
"                #+########@###@#@@@@@####@@@#@#@.@              ",
"                .##############@#@#@@#######@###++              ",
"                .@###########@#####@@@#@###@@@#@XO              ",
"                #@@##############@##@#######@#@@oO              ",
"                .@@#########@#####@#@@######@@#++O              ",
"                +#@@############@##@#@######@@@@OO              ",
"                ##@#@@#####@#################@@@OO              ",
"                +##@################@#@@##@##@+@oO              ",
"                .#################@##########@+#oO              ",
"                 #.#@#################@#@@####++OO              ",
"                 .#+#####################@##@+..o               ",
"                 ..#@####################@@#+@..                ",
"                 .+##############@######@@@#@X#.                ",
"                  .++#@@##############@##@##o..                 ",
"                    X+#@###############@@@XoOX                  ",
"                     X+#@#######@@###@@@@@ooOX                  ",
"                      X+@@@@##@@@@@@@+@++XOo                    ",
"                      o++@##@@@@+@+++X.++XoO                    ",
"                      OX@X@##++++XXX+X+XXooo                    ",
"                      +XX.+#@+X+XXX.XXX..OoO                    ",
"                      X++++@.....XXXXo.XXooO                    ",
"                      ++++++.X.XX+..oX..oOoO                    ",
"                     +++@++@+@+@+@+.+.X.oooO                    ",
"                    @X+++@++++++++.@+.+..XoO                    ",
"                    +X+@+++@+@+@+++++++.X+XO                    ",
"                   X+@+@+@@+@+@++@+@++X+XXX+                    ",
"                  ++++@+@+@@++@@+@++@++@+XXXX                   ",
"                 o+@+@@+@@+@@@+@@++@+@+@@X+XX                   ",
"                 X++++++++@++@+++@+++++@++@+XX                  ",
"                X+X+++@@X@+@+++@++XXX+O+XX++@+X                 "};
