/* XPM */
static char * mag_14_xpm[] = {
"64 64 8 1",
" 	c None",
".	c #9A6971C66595",
"X	c #820751444514",
"o	c #659549243CF3",
"O	c #69A634D330C2",
"+	c #451434D32CB2",
"@	c #20811C711C71",
"#	c #1C7114511451",
"                                                                ",
"                                                                ",
"                                                                ",
"                                                                ",
"                                                                ",
"                                                                ",
"                                                                ",
"                                                                ",
"                                                                ",
"                                                                ",
"                                                                ",
"                                                                ",
"                                                                ",
"                                                                ",
"                                                                ",
"                                                                ",
"                                                                ",
"                                .........XX                     ",
"                             ...........XXXXoX                  ",
"                           ............XXoooXooX                ",
"                         O............Xoo+++ooo+X.              ",
"                       +oo...........oXoo+++++++XoX             ",
"                      o+++ooXXXX.XXOXoo+++o+o@++ooX.            ",
"                     +#++@+o+ooOXo+ooOOo+o@@@X@+++oX.           ",
"                    ##@@+@++oo+++O++++o#o#o@++++@++ooO          ",
"                   o#+#@#@#o@o+o@X@++++++@++#@@@++OX+Oo         ",
"                   +###@+#+@+@o@oo+@++@#@##@#+#@++++o.o         ",
"                  O@@@@@##@++@+@o@o@@@+#####@@#@@#ooX.O         ",
"                  ###+###@+@o@+o+@@+@@+@####@#+#@@+++.o+        ",
"                  #+##@#@@@@@@@o@++@@@###@@@###@@#@+oX.+        ",
"                  ####+##@@+@@+@@@+@@@#@@###@#@#@#++++..        ",
"                  ####+##@@@@@@+@@@@@#@@###@#@@#+@###...        ",
"                  #######@@@@@@@@@@@@##@#@####@###O#Oo..        ",
"                  ######@##@@@@@@@@@#@#@######@#@##+#...        ",
"                 #####@#@##@@@@@@#@#@###@#@#@@@#@+##Oo..        ",
"                 +###@###@@@#@#@@#####@####@@@@@@##+#...        ",
"                  #########@#@##@@###@#@###@@@@+#####...        ",
"                  +###########@#@##@######@@########+...        ",
"                  ####@###@######@###@#@###@#X..####O...        ",
"                  #########@#@#@####@##@####+.XX#+++O..         ",
"                  ##################@##@#####.XO+###XX.         ",
"                  ######@##@##@#@@@@#@######OXoXOO#XX..         ",
"                   ##@###@#@#####@@@@#@@##+@O.XXXXOXX..         ",
"                   ####@#######@####@####@O@OXXXXoOXX...        ",
"                   ##@###@####@###@###@#@OO+O.oXXXoXXX..        ",
"                    ########@#####@#####OoOOOX.oXXXXX...        ",
"                    @#############@#####+OOOOOXXXoXoXXX.        ",
"                    @##@#########@#####OXXOO@OO.XXXXXX..        ",
"                     ###########@@####+ooXoOOOOXOXXoXXX.        ",
"                     ########@@@@@###@oXoooXOOOXXoXXXX..        ",
"                      ######@##@@@@@OOoooXoXOOOXOXoXXX..        ",
"                       ##@@@@@@@@@+OOoOXoXXXXXXXoXOXXXXX        ",
"                       ##@+@+@+@@+@ooXXooXXXXXXXXOXoXXXX        ",
"                       +@@++o+++o+OOoooXXooXXXXXoXoXoXXX        ",
"                       o@+o+ooooOoooXXooXXXXXXXXOXOoOooX        ",
"                       X@XOOo+oOoOOXoooXXX.X.XXXOXOXoXo         ",
"                      ++++O++oOOOOooXXXXXXXX.XXXoO+Xooo         ",
"                      o++@+++++O+OOOXoXX.X.XX.XXOXOo+o          ",
"                      ++++@O@++@@OOO+OXoXXXX.XXXoooo            ",
"                      +o++++O#+O#+++OOOXXo.XXXXo+ooo            ",
"                     o+@++@+@+++O+++oo++XOXX..XXoo              ",
"                     @++@+@+@@+@+++++o+oOOXXXX.Xo               ",
"                     o@++@+@@+@++++o+o+o+oOOO.XX                ",
"                    X++++++@++@@+@+@+++oo+oOooX                 "};
