/* XPM */
static char * mag_13_xpm[] = {
"64 64 8 1",
" 	c None",
".	c #9A6971C66595",
"X	c #820751444514",
"o	c #659549243CF3",
"O	c #69A634D330C2",
"+	c #451434D32CB2",
"@	c #20811C711C71",
"#	c #1C7114511451",
"                                                                ",
"                                                                ",
"                                                                ",
"                                                                ",
"                                                                ",
"                                                                ",
"                                                                ",
"                                                                ",
"                                                                ",
"                                                                ",
"                                                                ",
"                                                                ",
"                                                                ",
"                                                                ",
"                                                                ",
"                                                                ",
"                                  ......                        ",
"                              ............Xo                    ",
"                           OX..............Xoo                  ",
"                         O................XOo+O                 ",
"                        +X.................ooO@#                ",
"                      #+ooXXO.............ooOoO@o               ",
"                     @@@++ooOOX...XX..X.Xooo++OO+O              ",
"                    +#@+++++++oXX+o+Xoo+oo+ooO@@O+              ",
"                   ##@++@@++++++o+oo+ooooo++++#+++o             ",
"                   +@@@@@@+++@++++o@+ooo#+#@+#+##++             ",
"                   ##@#@+@@@++++#+@o+o++o+o@++#+#@+@            ",
"                   #+@@@@@@#@@@@+@+o++o+++++#####+O#            ",
"                   #####@@@+@@@+@@X@o@+++@++##@+##+#            ",
"                  ######@@@@@@+@+@@@@@@@+##+#@###@#+            ",
"                  @######@#@@#+@@@++@+@+@@#+@@@@@+#+            ",
"                  +####@#@###@@#@@@@@+@+@#@@@##+###@            ",
"                  ##@#@@###@##@#@@@@@@@@#@@@+#####+#            ",
"                  @@##@######@@##@@@@+@@@@@########+            ",
"                  #######@########@##@@@##+##+#+@@+#            ",
"                  ###@##########@##@@##@######+@#+O             ",
"                  ###########@######@###########@+#             ",
"                  ###########@####@#########@#+@+#+             ",
"                  ############################@@#O              ",
"                  ###############@##########@@#+#X.             ",
"                   ##@###################@#@@@@##.X             ",
"                   #@######################@####+XX             ",
"                    #######@################@@+O#OX             ",
"                    #@##################@##@##+O#X.             ",
"                    #@@##@#################@@#OO#X.             ",
"                    +################@#####@#X#OOX.             ",
"                     ###############@@@#@#@##XO@OX              ",
"                     @###################@@+XXO+OX              ",
"                      #@#########@@#@######X.XO#OX              ",
"                      @####@##########@@@+XXXXOX..              ",
"                       +@##@@##@#@@@@@@@O+.o.XXXX.              ",
"                        #@##@@@@+@+@+@++ooXoXXXXXX              ",
"                        O@#@@++@+o+oOO+Oooo.XX.XX               ",
"                        +O@++++oOOoOOO+oXXXXX...X               ",
"                        +o@ooOoOoOOooOOOoXXXXX.o                ",
"                        +o+O+O+OOOoOOoOoXXX.XX.                 ",
"                       ++#+++@@@O+OOOOOOXXXX...                 ",
"                      +o++++@+O#O@@++oOooo..XX                  ",
"                      +++++@++++++O+O+++oOoX..                  ",
"                      +++@++#+@+@++++++o+OoXX.                  ",
"                     ++@+@+@@+@@@++++++o++ooXo                  ",
"                    @+++@++@+@+@+@@@+@o+++ooo.X                 ",
"                   o+o+++@+@+++++@++@@+++++ooo.o                ",
"                  oo+++++++++@++++++@+@++@++ooXXX               "};
