/* XPM */
static char * mag_16_xpm[] = {
"64 64 8 1",
" 	c None",
".	c #9A6971C66595",
"X	c #820751444514",
"o	c #659549243CF3",
"O	c #69A634D330C2",
"+	c #451434D32CB2",
"@	c #20811C711C71",
"#	c #1C7114511451",
"                                                                ",
"                                                                ",
"                                                                ",
"                                                                ",
"                                                                ",
"                                                                ",
"                                                                ",
"                                                                ",
"                                                                ",
"                                                                ",
"                                                                ",
"                                                                ",
"                                                                ",
"                                                                ",
"                                                                ",
"                                                                ",
"                                                                ",
"                                 ..XXooooooo                    ",
"                            X.......XXoOoXXXXoo                 ",
"                          ......Xoooo+O+oX..X.XX                ",
"                        OX...XXO++o+oo+oo+X...o.oo              ",
"                       oX.X.o.o++++o+oooooo.X...XXX             ",
"                      XoooooO+o++@++#o++o++oXo...XXo            ",
"                     +oo.+oo++.+X@o@+@+@+o+oXX....Xo+           ",
"                    @+o@oooo+@++@+++@++@++@++oX....X++          ",
"                   @+oo@+++++o#.@+@@+++@++@o@oX....oO+          ",
"                  +@@oo@++@+++@+@@@@+@+@+@+o@++o....OO          ",
"                 O#@++o@+++@+@@@@@@@@@@@+@@++++....XoOo         ",
"                 @+@@+++@@+@@@@@@@@@@@+@+@+@++@o.......         ",
"                O#+@+@++@@@@@@@@+@@@@@@@@@+@@++........         ",
"                @###+@+@@@@@@@@@@@@@@@@@@+@@@@+X........        ",
"                #+#@@@@@@@@@@@##@@@@@@@@##@@+@+X........        ",
"                ##+#@@@@+@@@@##@###@@#@@@@@@@+OOX.......        ",
"               #+###@@@@@@@@@#@#@@@###@@@@@@#++OX.......        ",
"               #####@@@@@@#@#@###@@@###@@@@@+#+#oX......        ",
"               #+#@###@@#@######@#@@#@#@@@@###@OOX.......       ",
"               #########@@#@#@@@###@@@##@#++#++OXX.......       ",
"               ####@###@@##@#@@#@#@#@@@##@####OXX.XX.....       ",
"               ##########@######@#@#@@#@@#@@+#X...XX.XX.O       ",
"               ##########@@@####@@.XoX+@@@@##+o.X.XXXXXXX       ",
"               ###########@@@##@#@.oo+.@+#+#O+X..X.XOOO         ",
"               #@##@#####@@@@#@@@OOoo+X+#+##++X.X.XXOXXX        ",
"               ##########@@@#####XoXXO+O+++++OXXX...X....       ",
"                @@#####@###@##@@@Xo.@OOoo+O#oo.XXX........      ",
"                #@####@@@#@@@#@@+XXXOOOXXooOXXXXXXX.....X..     ",
"                #@#@#@@@@@#@@@@oOOXXO##.XXoooX.XXXX.........    ",
"                ######@@@@@@@@OOOOXOX+#XXoXooooX.XX.XX......    ",
"                 #@#@@@@@@@@@@OoOOXXXX@XXoXoXoXXXXX.X...XXO     ",
"                  #####@@@@@@@OoOOOOX.XXXXoooXoXXXXXXXX.XO      ",
"                  ##@@##@#@@++oOoXOXOXXo.oXXoooXXX..X...XX      ",
"                   #@##@#@@@@OoXoOOOOOXXoXoooXooXXXXXXX..       ",
"                   @@@###@@+oOXooXXXOOOOXXooooXXXXXXXXXXX       ",
"                    #@@@@@+oooXoXoXXXXXXoXXooooXoXXXX..XO       ",
"                    @@+@++@OoXXoXXXXXXXoXXXoooXoXXXXX..OX       ",
"                     ++++@oooXooXXXXXXXoooXoXoooooXXXXXXX       ",
"                     +oo+Oooo.oXXXXXXXXXXXoOoooXOOXOOXXXX       ",
"                     +ooo+ooXoooo.XXX.XXXXOoooOoXoXXXXXX.       ",
"                   @@@+O+OoooXoXXXoXoXXXoXoXOoXOoOooOXO..       ",
"                   ++#++++oooooXoX.XoXoXXOOoooO+XooOOOOXo       ",
"                   ++++++O+oooXo.Xo.X.XoXoXoOOoOO+XO++OO        ",
"                   o++#++@+++oo+Xo.o.o.oXoX+oOoO+oO+o++         ",
"                   ++++@++@++++oooo.oXXXoXooO+oOo+OO+O          ",
"                   +++++++++@+@o+XXoX.ooXXOoXO+oOo+Oo           ",
"                   +o+++@+@+++O@++oXooXXXXoXO+oO+Oo             "};
