/* XPM */
static char * mag_2_xpm[] = {
"64 64 8 1",
" 	c None",
".	c #9A6971C66595",
"X	c #820751444514",
"o	c #659549243CF3",
"O	c #451434D32CB2",
"+	c #1C7114511451",
"@	c #20811C711C71",
"#	c #69A634D330C2",
"                                                                ",
"                                                                ",
"                                                                ",
"                                                                ",
"                                                                ",
"                                                                ",
"                                                                ",
"                                                                ",
"                                                                ",
"                                                                ",
"                                                                ",
"                            .XX....                             ",
"                        oXXXX.o..X.X.                           ",
"                      .XX.oooXX.X....XX                         ",
"                     XXoXooooXoXX......Xo                       ",
"                    ..oOoOoooo.oX....XXXoO                      ",
"                   XXOOooOOooOooXX......oOO                     ",
"                 oo.oOOOOOoooooooo.....Xoo.O                    ",
"                OOOoOOOOOOooooo.o........XXoo                   ",
"               ++oX.oOoo.o.o.............o..@                   ",
"              @@OoXX@Oo.o.o...............X.@O                  ",
"              +O@...X..o....X............oOXoXO                 ",
"             @++X....oo...................ooXoo                 ",
"             +@@.........X................oooooO                ",
"             @+O.....XX..X.................oOOOo                ",
"             @+o...........................@OOOO                ",
"             +@o............................OOOo                ",
"            @OOo..X........................oOOOOO               ",
"            @O+X...........................XO@@@@               ",
"            +O+.X...X..XX..................#+O@O@               ",
"            +@O..X.ooooX.X...X.............XOO+O+               ",
"            @@..oOO@O+OOooXXXXX#Xo.........#+#++O               ",
"            ++X.XooOO@@##oo#X###O#OXXX.....XO+OO+               ",
"             O..XooOO##OO#oXXX######XX......O+@+O               ",
"             #..o@@O+@#+O#XXXXX#+O+###XX....#++O+               ",
"             o.Xo@Oo@##OOo.XXo#+O+++#OXXXX..++O@@               ",
"             oXX.XoOo#O##oX...o####OX###XX...+OOO               ",
"             oX.o.XXXooXo....oXo###XXXXXXX...+#XX               ",
"             OX.XX.oXoooX......oooooXX.X.....##XX               ",
"             ooXX.XXo.XXX.....XXXX.XX........+XXX               ",
"             OoX.o.XXXooo......X.XX..........X#X.               ",
"             oO.O.o.X.o........#XX...........X#XX               ",
"             OXX.O.ooXOXX.......X.X.....X.X..X#XX               ",
"              .Xo.o.oooO+O###O#X#XX.X..X.XXX.X#X                ",
"              oXXo.OoooO+##O#+##XXXX.X.XXX.XXXXX                ",
"              .ooXoo.Xo########XXXXXXXX..XX..XXX                ",
"              oXo.oXoooO#o###X#XXXXXXXXXXX.XXXX                 ",
"               XoXooOooooo#o#oX.XXXXXXXXXX.XX..                 ",
"               oooooooO#O#oo#X#X#XXXXXXX.XX.X                   ",
"               ooo.#+O#o###O###+###XXXXXXXXXX                   ",
"                oooo@#Xo#########+#XXXXXXX..X                   ",
"                oooOXXo##+####oX###XXXXXXXXXX                   ",
"                XooOXo########X#X##XXXXXXXX.X                   ",
"                 ooooooo######XXX##XX.X#XXXXX                   ",
"                 XoO#ooXoooXXXXXXXoX#XXX#X.XX                   ",
"                 ooOoooooXoXX.XXo#ooXXX#XXXXX                   ",
"                 .oOo#ooXoXXXXXoX#oXo#X#XX.XX                   ",
"                 OoooO#oooooo#O#o#O###XoXXXO.X                  ",
"                O.XoOO@#####o##O#O##oooXXXXO..                  ",
"                @XXoOoO#@OOoOO@OOOOoOXooXX.O..X                 ",
"                +X.ooOOO+#OO@@#oOo#O#o#oXX.+..X.                ",
"               @@OooooOOOOOO#OOO#Oo##XoXoXoXXX.XX               ",
"               @+o.OooOOOOOOOoOO#Oo#oooXoo#oXoX.X.              ",
"              O@@@OooOoOOoOOOOoOo#OX#X##ooOo.o.XXXXX            "};
