/* XPM */
static char * mag_19_xpm[] = {
"64 64 8 1",
" 	c None",
".	c #820751444514",
"X	c #659549243CF3",
"o	c #9A6971C66595",
"O	c #69A634D330C2",
"+	c #451434D32CB2",
"@	c #1C7114511451",
"#	c #20811C711C71",
"                                                                ",
"                                                                ",
"                                                                ",
"                                                                ",
"                                                                ",
"                                                                ",
"                                                                ",
"                                                                ",
"                                                                ",
"                                                                ",
"                                                                ",
"                                                                ",
"                                                                ",
"                                                                ",
"                                                                ",
"                             .X.Xooooooo.XO                     ",
"                         XX.+.XX..oooooo.XXXXO                  ",
"                       X.@X+XXXX.ooooooooXX+XXO                 ",
"                     ++X@#+X+XXXo.ooooooo.XXX+XO                ",
"                    .+.@#X#+#X+XXooooooo.XXX+X+OO               ",
"                  X#X#X#+#+#++++Xooooooo.X+X+XXXX.              ",
"                 #X@##X##+#####+X.ooooo.X+XXX.o.ooO             ",
"                +##@X++##+#+##+#.ooooooo.OXX.oooooo             ",
"               @+@#@+##########+oooooooooooooooooooo            ",
"              #####@##+######+##oooooooooooooooooooo            ",
"              @+@@####@#@@###+#+oooooooooooooooooooo.           ",
"             #+@#@#@#@#@@@@#@##+XXooooooooooooooooooo           ",
"             #####@#@@@#@@###+#+..ooooooooooooooooooo           ",
"            X#@@@@@@@#@@@##@###X+Xoooooooooooooooooooo          ",
"            ##@@@#@@@@@#@@@##++#+X..oooooooooooooooooo          ",
"            +@##@@#@@@@@@##@@###+X...ooooooooooooooooo          ",
"            +#@#@@@@@@@#@@#@@##+XoX.o..ooooooooooooooo.         ",
"            +#@@#@@@@@#@@@@####XX....o...oo.....ooooooo         ",
"            #@@@@#@@@@@@@@@@#@#..X.o.Xo..O.OO+OO..ooOO          ",
"             #@@@@@@.X@@###@##+...oX..XO..XOOOOOO...O.          ",
"             @@#@@OOO+X@###@++X.Xo..XX+O++O+O@OO..++.           ",
"             @#@#@+#OO.#####@++.....oXXO@O.@X+OOO.@.            ",
"             @#@##.+.O+++#+##+O.Xo..........OOO....             ",
"             @@@@@.#.XO#@O+++XX.X..o..o......X..ooo             ",
"              @@@@OO.O#@OXX++OX.XXoXo..o.o....oooooo            ",
"              @@@@@OOO.O@.XOXXO.XoX.o.oXo..ooo.o..ooo           ",
"              @@@@@.OOOOOoXX.XOXXXXoX.XoXooooo.Oooooo           ",
"              @@@@@.O.OOOXXOXX.X.XXXX.....o.ooo..oooo.          ",
"               @@@@@.O..X@X.OOXOXX.XX.X....o.oOOOo...           ",
"                @@@@.OX.XO.OXX.OX.X......o..o..OO@OO            ",
"                @@@@.XOOO.X.OX.XXOXXXXXo.......OOOOO            ",
"                 @+@.OOXOOXXX.X.O.X.X..X......o..O.O            ",
"                   @XX.OOOX.XXOOXX.XXXX........O.O..            ",
"                   @..XXOOXXX..XX.XX.X..O......X.OOO            ",
"                    .X.X..X.XOXXXXX.XXX.....OOOOOO..            ",
"                    .X.X..XXXXO.OX.XX.XX....OOO.O.OO            ",
"                    ....XX..XOXX.XO.XXXX....O...OOOO            ",
"                    X....XXX.OXOXO.+O.XXX.X.XOXXOOOX            ",
"                    .X...X.XX.X.OXXOX.XX.OXO.X......            ",
"                    .o..X..XXO.+XX.OOXOX.X.XO.X.o...            ",
"                   @.X...X..OXXXXX+.XXXOO+X+XO......            ",
"                  +++....X.X..O.X+OX+O+OX+O+X+OX+...            ",
"                 +++#X.X.XO.XX+.OXX+XXX+X++++OO++OO             ",
"                 ++++#X...X.X.OX.+OX+X+O++X+#+##++              ",
"                 +#+++#OXXXX.X.XO.+X+O+OX++X++O+                ",
"                X+++++#OX.X.OO.+XXXOXX+O+#O+++                  ",
"                +++++++#++.OO.OX.X+XXO+XOO++                    ",
"                +++++++++++OO.XOOX.OXX+X+OX@                    ",
"                X+X++++#++X.X.X.X.+XX+XOOX.@#                   "};
