/* XPM */
static char * mag_21_xpm[] = {
"64 64 8 1",
" 	c None",
".	c #820751444514",
"X	c #9A6971C66595",
"o	c #659549243CF3",
"O	c #69A634D330C2",
"+	c #451434D32CB2",
"@	c #1C7114511451",
"#	c #20811C711C71",
"                                                                ",
"                                                                ",
"                                                                ",
"                                                                ",
"                                                                ",
"                                                                ",
"                                                                ",
"                                                                ",
"                                                                ",
"                                                                ",
"                                                                ",
"                                                                ",
"                                                                ",
"                                                                ",
"                            ..XXXX...o                          ",
"                         Oo.XXXXX......o.                       ",
"                       O.ooXXXXXXXooXo.ooO                      ",
"                     .++o.XXXXX.oooooooo..O                     ",
"                    ooo.o.XXXXX.ooo+ooooo...                    ",
"                  ++++ooo.XXXXo+o++oo++ooo..O                   ",
"                 @@+##++XXXX..o+o+oooo.o.XXX+                   ",
"                ++#+##++XXXXoo+o+o+X.oX.XXXX.o                  ",
"               ++####++o.XXoooo+oX.XXXXXXXXXX.                  ",
"               @+##@##oXXXXXX..X..XXXXXXXXXXXXO                 ",
"              +####+@#o.XXXXXXXoXXXXXXXXXXXXXX.                 ",
"              #@@##@#+oXXXXXXXXXXXXXXXXXXXXXXXX#                ",
"             +@#@####+o.XXXXXXXXXXXXXXXXXXXXXXXX                ",
"             ####@#@#ooX.XX.XXXXXXXXXXXXXXXXXXX.O               ",
"             @#+@@@#++o+X...XXXXXXXXXXXXXXXXXXXX.               ",
"             +@@#@@###oo..XXX.XXXXXXXXXXXXXXXXXX+               ",
"             @@@#@@##@ooX..XXXXXXXXXXXXXXXXXXXXXO               ",
"             @@@@@@@@@X...XXXXXXXXXXXXXXXXXXXXXX@               ",
"             @@#@@+@@O.oX...X..o.....XXXXXXXXXXXX               ",
"             @######@ooX+Xoo+o+O+@+O....X...OXXXO               ",
"             @@+@##@#....ooo.ooooOOOO......O+....               ",
"             @oO@@@##XoXoooo+#+@@+@+O..X.OO+@@OX.               ",
"             ##o+@#@+.XoX+o+#@.+@O@+OO.X.O+O@O@o                ",
"             +@oO#@#+X.ooooooooO.OOO..XXX+OO+oo+                ",
"             @@O.O@O.ooo.XoX+..ooo.O...XXX..o..X                ",
"             O@.+@O+ooooXoXoX.Xo.oooX.XXXXO..XXX                ",
"             OO.@OOooXoXoXoX.X...X....XXXXXXXXXX                ",
"              OOO.O.ooo.ooooXoX.X..o..XXXXXXXXXXX               ",
"              O.OOooooXoXooXo..XoX.+.XXXXXXXXXXXX               ",
"              .oX.+.oo.oooXo.XXX..OO.X.XXXXXXXXXX               ",
"               oo.oo.ooXoo.oXoo.X.oOO#++..O.X...X               ",
"                .oo.ooooooXoo..Xo..OOO@OOOO.O..XX               ",
"                oOooooooo.oooXoo.X.oOOOOOOOXX...X               ",
"                oo.+.ooooooXo.oXoo.oooO.o..X.....               ",
"                 Ooo.oo.o...ooo.oo.ooooo.........               ",
"                 o.ooo.oooooo..oOOOO+O+OOOO.O..XO               ",
"                  oXoooo.o.o.oo.oOOOooOO.O.O+.X..               ",
"                  oo.oooo.oo..oOOO.ooOOOO...O.X.                ",
"                  oX.ooooo.o..oO+oXOOOOOOOo...X.                ",
"                  .ooooo.ooooooOOooooOoO.......                 ",
"                  ooooooooooo.ooOO.o..o..XXX..                  ",
"                  +XooooooOO.+OO.oOo.o..X.X...                  ",
"                 Oo.oooo+o+oo++O#OOOo..o....o                   ",
"                 #.o.oooo+oO+OO++O+O.ooo..oo                    ",
"                 #..oo.oo+Oo+o++++++O+OO.Oo.                    ",
"                 ++o.ooo+o+o+O+o+++##+++O+.                     ",
"                oO@ooo.oooo+O++o++#+#++#++o.                    ",
"                o+#o.ooo+oOo+o+o++O+OO+OoooXX                   ",
"                +o+++ooooooo++O++o++++OOoo+oX.                  ",
"               o++++Ooooooooo+o++++o+oOo.X#o.X                  "};
