/* XPM */
static char * mag_18_xpm[] = {
"64 64 8 1",
" 	c None",
".	c #659549243CF3",
"X	c #820751444514",
"o	c #9A6971C66595",
"O	c #451434D32CB2",
"+	c #69A634D330C2",
"@	c #1C7114511451",
"#	c #20811C711C71",
"                                                                ",
"                                                                ",
"                                                                ",
"                                                                ",
"                                                                ",
"                                                                ",
"                                                                ",
"                                                                ",
"                                                                ",
"                                                                ",
"                                                                ",
"                                                                ",
"                                                                ",
"                                                                ",
"                                                                ",
"                                                                ",
"                              .XX.X.Xoo..X.X                    ",
"                          .XX.X..X.XooooooX.O..                 ",
"                        ..X.....X...XoooooooX.O+                ",
"                      ..OX..........XooooooXX..O+               ",
"                     ..OOOO.O@OO....oooooooooX.+O+              ",
"                    O.X.X#OX##.O#.OX.oooooooo.+O+#+             ",
"                   O#.XoO@@O#OOO.#.O.XoooooooXOO..O+            ",
"                  O.O.##OO.##O##OOOOOoooooooo..+O+XX+           ",
"                 OO.#.#@#O..O####OOOO.oooooooX+.+Xoo.           ",
"                 OOO#####O##@O######OXoooooooX.Xooooo+          ",
"                O#####@###O##@#####OO.Xoooooooooooooooo         ",
"               #@###@@@####@#####OO@Oooooooooooooooooo+         ",
"              ##O#@@##@@@@@##@#@###@O.ooooooooooooooooo         ",
"              ###@@#@@@##@@#@@@@##@OO.oooooooooooooooooX        ",
"             #O@@#@@@@#@#@@#@#@O###@O+.XoooooooooooooooX        ",
"             @@@#@@@@@@@@@@@#@@@@@O#OO.XoooooooooooooooO        ",
"             @@#@@@@@@@@@#@@@@@@@##OOOOXXXoooooooooooooo.       ",
"             #@@@@@@@@@@@@@@@@@@###@@O+XXXooooooooooooooO       ",
"             #@@@@@@@@@@@@@@@@@@###@#.XoXooXooooooooooooX       ",
"             #@@@@@@@@@@@@@@#@#@@##@.XXoXXXoXXXXXXX+XooOX       ",
"             ##@@@@@@@@@@@@@####@@#OOXoXXoXXXXX+XXXO+XoX        ",
"             @#@@@@@@@@....#####@#@O.oXXoXXXX+X++OOXXo+         ",
"             @@@@@@@@@.XO+O.######O+.XXXXoX+++OX+++++X          ",
"             @#@@@@@@@o...++###O@#OO..oXoXX.XX++X@++XX          ",
"             @@@@@@@@@X+X.X.++#O##+.XX.XXoXXXXXXX+XXXo          ",
"             @@@@@@@@@X+o++#O+.+OO..X..XoXooXoXXXXXoooo         ",
"              @@@@@@@@.+X+#+++..+O....XXXoooooooooXXoooo        ",
"               @@@@@@@XXX+++@X...++..XXXXXXXoXooooooXooXo       ",
"               @@@@@@@O.+XX++.X.........XXoXXXXooooXXXoooX      ",
"               @@@@@@@+X+XXX@#.X.+..X.XoXXXXXoXXooo+XoXX++      ",
"                @#@@#@OX+.+XX+X.X+.+++.+.XXXXoXXoooX+X+++       ",
"                @@@@@@X.+++XX+X+...+..X+XXXXXXXXXXXo+++         ",
"                 #@#@@..X+X+XX++.+..X...+.XXXXoXXXXoX+X         ",
"                  @@@O..X+X++++X+..X....+.XXXXXXooXXXX+         ",
"                   @@O....X+++.X.X+...X.X.XXXXX+XXXX+++         ",
"                   @#.X...XX.+X..+.+......XX+XXXXX++++++        ",
"                   @#OX...XXX...X.+.+..X....XXXXX++XXXXX        ",
"                   OO...X.X.XXX...+...+..XX.XXXXX+XXX++.        ",
"                   .O....XXXX...X.+......+.X.XXXXXX+X+XX        ",
"                  .OO.X..o.XX.X..+..+.+.+.+X+.XX++XXXXX.        ",
"                  @@#....X.XX..X+X+.O+O..+.+X.++++XXoXoX        ",
"                  O@@+....XXX..X.+.O+.O+O+.++++++++XXXX         ",
"                  +OO++.XXo.oX.+X..+.O+.+O+++.++++++++          ",
"                 .OOOOO+.......+X.XO..O.O+.O+OOO.O#OO           ",
"                 OOOOO@#..XXXX...X..+O.+O+O+.@++O@+             ",
"                 .OOOO+O#+..X......O..+O+O.+O++OO+              ",
"                 .OOOOOOOO#+..XX+.+..O.+.+O+O.@+                ",
"                ..OOOOOOO#+#+..X+.+O.+++O+O.OO                  "};
