/* XPM */
static char * mag_1_xpm[] = {
"64 64 8 1",
" 	c None",
".	c #659549243CF3",
"X	c #820751444514",
"o	c #9A6971C66595",
"O	c #451434D32CB2",
"+	c #69A634D330C2",
"@	c #20811C711C71",
"#	c #1C7114511451",
"                                                                ",
"                                                                ",
"                                                                ",
"                                                                ",
"                                                                ",
"                                                                ",
"                                                                ",
"                                                                ",
"                                                                ",
"                                                                ",
"                                                                ",
"                                                                ",
"                        ..XXXooXXX                              ",
"                      oX.X.oXoXo.ooXoXX                         ",
"                     oXO...Xo.X.XoXXXoo.                        ",
"                    .oXo.oo....oX..Xooo.X                       ",
"                   ...XXo.O.OO.O..o..oooo.+                     ",
"                  ..X.Xo.OOO......O.XXoooX.+                    ",
"                 OO..Xoo@O@OOO....oO.o.ooo.+                    ",
"                OO@.Oo.OOOO.o.oo.oooooooooo.XX                  ",
"               O@@@Ooo.oOO..o.oooooooooooooXX..                 ",
"              .@@@@.ooo..oXooooooooooooooooX.XOX                ",
"              O#@@.oooooo.oooooooooooooooooooXXoX               ",
"              @@@@XoXoooooooooooooooooooooooX.oXX               ",
"             @@@@@oooooooooooooooooooooooooooX.X.X              ",
"             ##O@OoooooooooooooooooooooooooooX.O..              ",
"             O###.Xooooooooooooooooooooooooooo..OOo             ",
"             ##@@OooooooooooooooooooooooooooooOO.OO             ",
"             @O#@OXoooooooooooooooooooooooooooX.OOO             ",
"             ##@@OXXXooooooooooooooooooooooooo+OO@@             ",
"             O###OooooooXXoooooooooooooooooooo+O#+O             ",
"             ##@@.oX..+OOOOOXXXoXoXooooooooooo#+O#O             ",
"             ##O#XXo..OOO#O#++XXXXXX+++.XoooooX##+#             ",
"             .#OOooO..X..O+O+++XXX+X++++XXoooo#OOO@             ",
"             X@@Xo.o.O@@@@#+#O.XXX+++++++XXoooo###+             ",
"             X.@oo..O@..#@+#O++XXXX+@+O@OXXoooX#O#.             ",
"             ++#ooX...O.O.OO+++XooX+++OOOXOXXoo+OO.             ",
"             @#@o..oX........XXoooX+++++XXXXXoo++XX             ",
"             @+@ooXXoX........oooooo..+...XoooooXXo             ",
"              @OXXXo.oXoXX..XXoooooXXXXXXoooooo.oXo             ",
"              +OXoXXo.X.XoX.+XoooooooXoooooooooooX.             ",
"              #@o.o.o.oXo.X+Xooooooo+ooXoooooooXooO             ",
"              O+XoX..o..Xo+.XoXoooooooXooooooooXXX              ",
"              +X...o.X.oXO+.+O#XXX+Xo+XoXoooooXXo+              ",
"              +XXo.Xo.XX.++++##+++OOXXXXoXooooX+X+              ",
"              X+.XX..oXX+oX+++++++++XXXXXXXXoooXXo              ",
"              +....X..XX.+X+++++++++XoX+XXXXXoooo               ",
"              +++.X....XXX++X+++++++XXXXXXXXooXoo               ",
"              .X+.X..X.X.+++++X++X+XX++XXXXXXooX                ",
"                 .X..X.+++@O+@+O+++++++XXXXXoo+X                ",
"                 ...X...O@+++++++++++O++XXXXXoX                 ",
"                 .X..X.+++X+++++++XXX+++XoXX+X                  ",
"                 ......+O+++++O++++XX+++XXXXX                   ",
"                 ......++.+.++++++++XX++XXXXo                   ",
"                 .....X+++++.X+.XXXXXXX+XXXXX                   ",
"                 .X....O.+.+XX+XXXoooXXX+XXXX                   ",
"                 .o..+O++++X++++XXXXXXX++X+oX                   ",
"                 .X..O+.O.+++.++X.XXXX++XXXoX                   ",
"                X@XX..OOOO@O+++.++++++++XXXX+                   ",
"                O@o.O.+OO@.@O++++++O+++++XX++                   ",
"               X@#...O.O++OO@O+OO@O++O..X.XOOo                  ",
"              XO##X..+..++OOOO@+O+OOO.+++Xo++oX                 ",
"              o@@#.O...OOOOOOOOO+@O++.....X+.oXX                ",
"             XOO@#...O.O.OOO@+@+OOO.O.+..XO.XXoXo               "};
