/* XPM */
static char * mag_3_xpm[] = {
"64 64 8 1",
" 	c None",
".	c #659549243CF3",
"X	c #9A6971C66595",
"o	c #820751444514",
"O	c #451434D32CB2",
"+	c #20811C711C71",
"@	c #69A634D330C2",
"#	c #1C7114511451",
"                                                                ",
"                                                                ",
"                                                                ",
"                                                                ",
"                                                                ",
"                                                                ",
"                                                                ",
"                                                                ",
"                                                                ",
"                                                                ",
"                                                                ",
"                        .XXoXXXooXX                             ",
"                      oXooXoo.XXXXXX.                           ",
"                     .o..oX.XXXXXXXXXo                          ",
"                   .oo.O....X.XXXXXXX..o                        ",
"                  .XoOOOO..o.oXXXXXXXoX.o                       ",
"                 OoO+OOO......XXXXXXoXO.OO.                     ",
"                Oo+OOOOOO..OXoXXXXXXXooo..Oo                    ",
"               +..OO+OO...oX.XXXXXXXXXX..o.O                    ",
"              O+.OOO...OX.XXXXXXXXXXXoo.o.OOO                   ",
"              +@o...oX.X.XXXXXXXXXXXXXX..+.O+o                  ",
"             @O+X.ooXoXXoXXXXXXXXXXXXXo+oOooo.O                 ",
"             O#OXXXo.XXXXXXXXXXXXXXXXXX.X.o...O                 ",
"             #+XXoXX.XoXXXXXXXXXXXXXXXXO.OOOOO..                ",
"             #OXXXXXXXXXoXXXXXXXXXXXXXXoO.O+OO...               ",
"             #@XXXXo.X.XXXXXXXXXXXXXXXX.OO+OOO+Oo               ",
"             #XoXXXXXXXXXXXXXXXXXXXXXXXo.O++O+O+O.              ",
"             oXXXXXXXXXXXXXXXXXXXXXXXXX.OO+OO+O+O.              ",
"             .XXXXXoXXXXXXXXXXXXXXXXXXXXOO#+++O+O.O             ",
"            +XXXXoXoXXXXXXXXXXXXXXXXXXX@OO+#OO++OOO             ",
"            .XX.....ooo.oooXXXXXXXXXXXXoO##++++O+.O             ",
"            ...OOOO..o.oo@o@ooXXXXXXXXXo@#O+++O++.O             ",
"            O...OO+OO.....@OOO@.oXXXXXXX@##O+O++OOO             ",
"            +o.+++OO.o.o.@@@O@@ooooXXXXoo@+#+++#+Oo             ",
"            +XOO++#+O.oX..@@O+@@oooooXXXXo##+++++..             ",
"            +X.O#O@O#Xoo.@@#+O#o@@@ooooXXo#O#O++OO              ",
"            XXo..O@@@oXXX..@O.O..@oooooXXX.O##@o+               ",
"            +Xo...OooXXXoo.@@.O.ooooooXoXX@#O#oo#               ",
"            OoXo..XOoXXXXXoo.o..oXooXXXXXXoO@@@o@o              ",
"            OX..XooXXXXXXoooooXoXXXXXXXXXoo@o@@ooo              ",
"            .Xooo..XXXXXooooXo.oXoXXXXXXXXo@o@@o@X              ",
"            XOX.X.ooXXXXXo.ooooXXXXXXXXooooo@@@@@X              ",
"            .o.o..oo@ooooXo.ooXoXXXXXoXXXooo@o#o@X              ",
"            ..X...O@@@@O@Xo.ooooooXoXXoooooo@o@ooX              ",
"            .o....@OOO##@@@@o.oooooXooXoooo@@oo@o@              ",
"            O.o.X...@@@@@@oo..ooooooooooooooooXX@               ",
"            .o....o..@o@@ooooo.ooooooooooooooXXX                ",
"             .X........o..oo.ooo@oooooooooo ooX                 ",
"             o...O.OO@@@.o@@oo.oooooooooooo                     ",
"             .o.OOOOO+O#O@@@@..oooooooooXoo                     ",
"              XOOoo@@@o.o@o@@@ooooo@ooooooo                     ",
"               @..@O@+O@@@.o@@.oooooooooooo                     ",
"               O...O@@@@@..o@@.oooooooooooo                     ",
"                .o.@@o...oo..@@.ooo@ooooooX                     ",
"                ..o....ooooo.oo..o.oo.o.ooX                     ",
"                ..o..o.X.X...@.@o....o.oooX@                    ",
"                 @.@.....@@.@.@@@.@o@.@oooXO                    ",
"                 O@@..@@@@O@@@@O@..@...oooX#@                   ",
"                  O@@@@O@O+O+OO.@@..Oo.o.oX#@                   ",
"                  +++O+OO+OOOO@@.O@....oooo@o                   ",
"                 +O@OOO+OO+OO@O.O@.@..@.oo@.o.                  ",
"                O#+.OO+O+OO@O.O@.@@.@o.ooo@.o.                  ",
"               .#+#.@OOOOOOOO@@O@@..........oOo                 ",
"               O+##o.OOOOO+O@@O.@@..@o.@.O...X.                 "};
