/* XPM */
static char * mag_20_xpm[] = {
"64 64 8 1",
" 	c None",
".	c #659549243CF3",
"X	c #9A6971C66595",
"o	c #820751444514",
"O	c #451434D32CB2",
"+	c #69A634D330C2",
"@	c #20811C711C71",
"#	c #1C7114511451",
"                                                                ",
"                                                                ",
"                                                                ",
"                                                                ",
"                                                                ",
"                                                                ",
"                                                                ",
"                                                                ",
"                                                                ",
"                                                                ",
"                                                                ",
"                                                                ",
"                                                                ",
"                            ...X.o                              ",
"                         .O+..oXoo..oo.                         ",
"                       .O+oXXXXXXXXoo+.o                        ",
"                     oOoo.o.XXXXXXXooo.+o+                      ",
"                    oo@XOo.XXXXXXXoo.OooO.o                     ",
"                  .@O...Oo.oXXXXXXo...+..O.o                    ",
"                 .@O..O...XXXXXXX.........O.o                   ",
"                ..@OOO@+O..XXXXXXo...........                   ",
"               @@O@@O#OO#.XXXXX+o....o.oooXXX                   ",
"              @OO@O@@O##@ooXXXXX.O.O.XXXXXXXXX                  ",
"             @@O@@@@O#@@OoXXXXXooo.oXXXXXXXXXXo                 ",
"             @@O@@@@@@O##oXXXXXXXXXXXXXXXXXXXXX                 ",
"            #@O@@@#@@##O.XXXXXXXXXXXXXXXXXXXXXXo                ",
"            @@#O#@@@@@#O.oXXXXXXXXXXXXXXXXXXXXXX                ",
"            @@O####@@@#OOoXXXXXXXXXXXXXXXXXXXXXX                ",
"           @#@@@@#@@#@@OOOooXXXXXXXXXXXXXXXXXXXX                ",
"           @@@@##@@@@@@O@.ooooXXXXXXXXXXXXXXXXXXX               ",
"           @@@#####@@@@OO.oXoXoXXXXXXXXXXXXXXXXXX               ",
"           #@@@@#@@@@@@##..oooXXXXXXXXXXXXXXXXXXX               ",
"           #@#@###@#@@@OO.oXoXoXXXXoXXXXXXXXXXXXXX              ",
"           #@@@#####@##O.ooo.oXo.oo.+O+ooXXXXooooX              ",
"           @O##@#####@@.oo.Xo.......+.++++oooo++oo              ",
"           #O#.o@#@##@@.o.oo......+OO@++++oX++++.               ",
"           ##+O@.@#@@@@oooo.o..OO@o@O+O+++oXo+O++               ",
"           ##o@..O@@@#@Xoo.Xoo..oo+o++O+oXXXX+OO                ",
"           ##o#o.O@@@@..ooX.oXoo.oo..o.+ooXXXXo.                ",
"           ##++o++@.O@..o..XoooXoXoooooooXXXXXOX                ",
"            #++o@.+++Ooo.o.ooXooooXoXooXooXXXXXXX               ",
"            #Ooo#o+.o...o.o.XooXoXooXXoo.ooXXXXXXX              ",
"             #+++o+.o...XoX.o.ooX.XXXXXoXXXXXXXXXX              ",
"             #oo+o+#........ooo.XoXXoXo++ooooXXXXX              ",
"             #+o+ooOo......o.Xoo.oooXoo.+oO#Oo+oXX              ",
"              #Ooooo...++o.o..ooXooo.ooo+#++++X+XX              ",
"              ###+o++...+...ooo.o.ooooXXo++++ooooo              ",
"               #Oo+++oo...o..Xo..oXoooXo+o+ooooXoo              ",
"                #oo++o.....o...o.oooooo++o.oooooX+              ",
"                 oo+oo.o.....o...ooo..++++#++++XX+              ",
"                  ooo.o...o....o.oo..O@++++oooo+Xo              ",
"                  ooo.......o.+.o..o++o.++++++XoX+              ",
"                  X.o...o.....o.Xoo.+oo+++++++Xooo              ",
"                  oo.X.+.O.o..+...+.+o+ooo++oXXoo               ",
"                  oooo..++....+..+.+++o+oooooXXoo               ",
"                 @Xo.......+++..++.+.+.+oooooXX.                ",
"                @OX.X.....+...O+.O.O+.+..ooooooo                ",
"                .#Xo.o....O.O...O+O#O@+.Oo.+ooo                 ",
"               .O@o.o......++O+..OOO+@OO#+++O+                  ",
"              ..O@OoX...O.....O.O++.OOO#@O#+                    ",
"              O..OO......+.+.O+OO..OOOO.OO.                     ",
"              O..O@O...+........+OOO.OOO.#                      ",
"              ..OOO@.+.....+..O.O+..OO@+o#O                     ",
"              ..OO@OO.+.o..O.++..+OO++..X##                     "};
