/* XPM */
static char * mag_6_xpm[] = {
"64 64 8 1",
" 	c None",
".	c #9A6971C66595",
"X	c #820751444514",
"o	c #659549243CF3",
"O	c #451434D32CB2",
"+	c #69A634D330C2",
"@	c #20811C711C71",
"#	c #1C7114511451",
"                                                                ",
"                                                                ",
"                                                                ",
"                                                                ",
"                                                                ",
"                                                                ",
"                                                                ",
"                                                                ",
"                                                                ",
"                                                                ",
"                                                                ",
"                                                                ",
"                        ..XX......XX                            ",
"                     XX.X...X......X.X                          ",
"                  oX........X.X.OoX..XX.                        ",
"                ooX.........ooXooXooOX.XX                       ",
"               OO.X.........oooooooOXoOoo.                      ",
"             OOOoX........X+oXOoo@XooooooXX                     ",
"            @OoooX.........oOOOX@Xo@Xo@OoOoo                    ",
"           OOoooX.X......XoOOO@oO.Oooo@OoOooo                   ",
"          @XXX.X..........#O@O@X@OOooOX.o@@ooO                  ",
"         oo.X.XX.........OOOO@@O@O@Oo@@@@OO@ooO                 ",
"         OXX.o...........OOOO@@O@OoO@O@O@@O@Oooo                ",
"        oO....X.........XO@OO@@@@@@@@.@o@O@@@@Ooo               ",
"        OoX.o.o.X........@O@@@OO@@O@@@@O@.#@OOO@o               ",
"        O.o.XX...........#O@@@@@@@@@O@O@@#@OOO@@oO              ",
"       oo..X...........XoO@O#@O@@@@O@@@@@@O@@O@@@O              ",
"       o..............XXoO#O@@#@@@@@@@O@@O@@O@@#O#              ",
"       O...X........XX.Xo@##@@@@@@O@@@@O@@@O@@@@@#O             ",
"       o..X..........X.oo@O@##@#@@@@@@@@@@##@#@@#OO             ",
"       oXXoooX........XXoO##O#@@#@#@#@@@@@##@@@@#O@             ",
"       O.oooOoO......X.XoO@@#@#####@#@@@#@#@##@@@@O             ",
"       o@Xo@O@+O+X.XX.X.XXO@O#@@@#@@#@#@##@@#@#O#@O             ",
"        @@Xo+OOoo+OXXXXXoXX+####@@#@@#@@#@@##@#@@#O             ",
"        O#Xo+O@#+ooooXX.X.XX@#@@#@@#@#@#@#####@@O@O             ",
"        o.Xoo+O#oOOOXoXo.o.X+#O#@@#@#@oXX###@###O@O             ",
"        .Xooo+@++ooXooo.oX.XoO@@O@#OoO++X.#####@@@O             ",
"       .X.ooooO+ooXX.X.o.XXXo#O#OOO+o@++O.+##@@@@@O             ",
"      X..oXoXoooXXo.XXX.o.o.oO@@oooO+#XX+..###@@O@              ",
"      ..oooooooX.X.o...XXXXXooo+oOo+@++XX.+####@@O              ",
"     .X.X.oooX.ooX.XX.o.oXX.oooooXoo+++X+.X######O              ",
"     oooXX+@oXXoX.oX.o.XXooXoooXXXX#+++X+.O######               ",
"      o@@oo@+o.oXXooooXXXoXooXooXXX@+++X++#O###@#               ",
"       O#O+@++oXooXXoXXXXXoo+o+XoX++++X+X+O#@##@                ",
"       o+++X+oooX+XXXooXoXo+XoXXXX@XXXXXX+##O###                ",
"       oO++oooXoX++oo+X+ooXoooooX+XXXXXXX++O##@                 ",
"       o+o+o++o++Xo+XoooXooooXoX+X+XXXXXX+###O#                 ",
"       o++O++oXo+oo+X++o+o+oooXX++++XXXXX++###                  ",
"       o@OO+O++oXo+++XoXooooooooXX++XXXXXoo#+#                  ",
"        +++OOOooooXoooXoooXooXoX+XXXXXXXoX+##                   ",
"        OOO++O+ooo++ooooXoooXoooXX+XXXXXXX.#O                   ",
"        oO+o+++o+oo+o++oo+o+oooXoXXXXXXXoXX#                    ",
"        oO+++O+oooooooooooooooXooX.XXXXXXXX#                    ",
"        oooooo+o+ooooOoo+oo+o+ooXXo.XXXXXXX#                    ",
"        oooO++o+ooo+oooOXo+o+oXoXXXXX.XXX+++.                   ",
"        ooo+oOo++ooooOoo++o+oooXoXXXXXXXX++o.                   ",
"        ooO+ooOOo+OoOo+o+oo+oOoooXo.XXXX+oooXX                  ",
"         OOOOOOOo+o+o++Oo+++oooXooXXXXoOoooo..                  ",
"          O@OO@OOoO+oOo+++oo+oooXoXXXooooooXo.                  ",
"            @@OO@+OoO+OoO+O+ooXoXXooOOOooooooX                  ",
"              O@OOOO@OOOOooooooXooOOOOOooOXooX                  ",
"               O@O+@++@+OO++oooooOOOOOOooOooO.                  ",
"                OO@+@O+oO+oooooOOOOOOOOOX@@o.o.                 ",
"                 @@OOO+OO+o+o++OOOOO@ooO@.ooXo..                "};
