/* XPM */
static char * mag_11_xpm[] = {
"64 64 8 1",
" 	c None",
".	c #659549243CF3",
"X	c #9A6971C66595",
"o	c #820751444514",
"O	c #451434D32CB2",
"+	c #20811C711C71",
"@	c #69A634D330C2",
"#	c #1C7114511451",
"                                                                ",
"                                                                ",
"                                                                ",
"                                                                ",
"                                                                ",
"                                                                ",
"                                                                ",
"                                                                ",
"                                                                ",
"                                                                ",
"                                                                ",
"                                                                ",
"                                                                ",
"                                                                ",
"                                                                ",
"                         .XXXXXXXXXXXXo                         ",
"                      O+.XXXXXXXXXXXXXXXO                       ",
"                     ++.XXXXXXXXXXXXXXXXXo.                     ",
"                    +O@.XXXXXXXXXXXXXXXXXX..                    ",
"                   +#O.@XXXXXXXXXXXXXXXXXXoO.                   ",
"                  ++OOO.@XXXXXXXXXXXXXXXXXX..                   ",
"                 +#+++OO.@ooXXXoXXXXXXXoXX.oO.                  ",
"                 +#OOO#@@O..@@.@ooooooo...o...O                 ",
"                +###O##O+OOO..O.OO.oOoO..O.@O+O.                ",
"                +++##+++++OO+.+O+.OOO+OO.oO..O+O                ",
"               +##+####+++++OOOOOO.OOO.Oo.O..OO+                ",
"               ##+########+O#+OOO.+OOOOO+OO#O+@+                ",
"              O+####+#+####++OOO++O.+.+O++OOOO+OO               ",
"              O+######+#+##++++O++OO+++O++.+O+O#O               ",
"              ###+++########+++++O++O#OO+#OO#O##O               ",
"              +O#+###+##+#+#+##++#+#+#+#+#O#O#OO#               ",
"              O##+##########+#+#+++#+#O+##O#O##+#               ",
"               +++##+###+#+######+#+++##+#+##+O##               ",
"               +++##++#####+##########+###+#+###O               ",
"               ###+####+#+###+###+#++#+#+#++#++OO               ",
"               #############+#+######+########+#O               ",
"               ####+##############+++######+##+#O               ",
"               @#################+++#+#+++##+#++O               ",
"               @#########################+##+#+OO               ",
"               ####+#+######+#########+####++#+O+               ",
"               @####+#####################+#+++O                ",
"               @O#O+#####################+#++++O                ",
"               @@#O+O##################+####+++                 ",
"               @@#@+###############+#########OO                 ",
"               o#@O@++###+###+#######+#####++#                  ",
"               o@OOOo+###+#+##############+##                   ",
"               .@#@OoO++################+#+++                   ",
"               @@@OOXo+++###############+#++O                   ",
"                oo@....O+###########+#++++.o                    ",
"                @.....o.+#+#####+##++++O++X.                    ",
"                 ..oo....O#+##+#+++++OOOOOo                     ",
"                  ..o...@+O++++O+OOOO@@OO.o                     ",
"                  @.o@o.@@OO++#OOOO.@....OX                     ",
"                   .o...O@OO@+OOOO@O@@@@@.o                     ",
"                    o@@@.+O+OOO@...@.Oo@@.o                     ",
"                     OO+O@+OO+O+O+@OO@@.@oX                     ",
"                     OOO+OO+OO+O@O+OOOO@O.o                     ",
"                    O+OO+O+O+OOOOOOOOOOO.O..                    ",
"                   OOOOOO+O+OO+OOO+OOOOO.OoOo                   ",
"                   O+OO+OO+OO+O++++O+OO.O+Oo.                   ",
"                  OOOO++O+O+++++O+O++O+OOOO.O                   ",
"                  O+++O+O+O+OOOOO+O+OO+O+O+oO.                  ",
"                 OOOOO++O+OOO+O+OOO.O....X.OO+X                 ",
"                OOO..OOOOOO+OOOOOOOOOOOO+.+X..X                 "};
