/* XPM */
static char * mag_17_xpm[] = {
"64 64 8 1",
" 	c None",
".	c #820751444514",
"X	c #659549243CF3",
"o	c #9A6971C66595",
"O	c #69A634D330C2",
"+	c #451434D32CB2",
"@	c #20811C711C71",
"#	c #1C7114511451",
"                                                                ",
"                                                                ",
"                                                                ",
"                                                                ",
"                                                                ",
"                                                                ",
"                                                                ",
"                                                                ",
"                                                                ",
"                                                                ",
"                                                                ",
"                                                                ",
"                                                                ",
"                                                                ",
"                                                                ",
"                                                                ",
"                                 ....XX.XX..                    ",
"                               .o.XXO+X.X..XXX                  ",
"                            X.ooooXX...Xo.oX.X.XX               ",
"                           X.XXXXX++XX.XXoooo.X...              ",
"                         ...X++X+X+XX.XXoXooooooX.X             ",
"                       XXoXXX@++XXXXXXXX..oooooooXXX            ",
"                      X++Oo@X@X++X+@+X+XXXooooooooX++           ",
"                     XXX++X+X.+@@+@++@@XXX.oooooo.XX@@          ",
"                     X+XX+XX+X@@@+@++++++XXooooooo.+OOX         ",
"                    X++@++#X@@@++X@+@++++++ooooooo.XXOXO        ",
"                   ++X+@+@@@@@@++@++@@@+@@@XoooooooXX+oo        ",
"                  @+++@+@@@@@@@+@@@@+@+@++@.oooooo...ooo        ",
"                  @++@@@@@@@@@@+@@@+@@@@@++Xoooooooooooo        ",
"                 #+@++@@#@#@@@@@@@@@@@@@@++Xooooooooooooo       ",
"                 ###@+#@@##@#@@@@@@@@@@@@@@.ooooooooooooo       ",
"                ##+##########@@@@@@@#@@@+@+X.oooooooooooo       ",
"                #+###@########@#@#####@@#@++X.ooooooooooo       ",
"               O###@@@#######@####@#@@##+@#OO..oooooooooo       ",
"               ###+#####@########@##@@@###++O..oo.ooooooo       ",
"               #+##############@#@@#@@@#+#++X...oooooooooo      ",
"               ###########@#@######@@#@@#@+OX.oo...oooooo       ",
"               #############@###@#####@@@#+..o..oo...o..O       ",
"               #+########@####X..@@@@@@+#+O.o..o......OO.       ",
"               ##############.XXXX+@@@###@X..o......OO+..       ",
"               #############XoXo@X+@+@@+++Xo.o.o..OO.OOOO       ",
"               #############oOXOXOO#+O##+OX...oo......O..o      ",
"                ###@######@#o+o..@OX+++#OOX.....oo......oo      ",
"                +@######@###.Xo#OOOO.+.@XXX.o..oooooooooooo     ",
"                 #########@@.O.OOO@...XX.X.....ooooooooo.ooo    ",
"                 ##########@OO.OOOOo..X.XX.......oo.oooo.oooo   ",
"                  ##@######XOO....@#..XX.OXX.........ooo..oo.   ",
"                  @########OXOX....OX.XOXX.X.......o.oo.+O.O.   ",
"                  @@@@#####X.OO......XXXOOO.XX.........o..      ",
"                   ###@##@+XX..OX....X.X.X.OX.........oo..      ",
"                    +@##@++XXX.OOOOO..XXXXXX.OX...........      ",
"                     #@#++.XOX...OOOXXXXXXX.X.....o.......      ",
"                     @@@++.XX.X.XXOO.X.O.O.X.X.........O.O      ",
"                     +++@XX.XXX.....XXX.+.X.X.X...........      ",
"                      ++OX.X.X.X...X.XXOOOX.XX.XO....o...O      ",
"                      +O+XX.X.X.o...X.X.+XXXXXX.O.....O..O      ",
"                     XO+O.XXX..X...o.XXX.OXXXXXX.O..OO....      ",
"                    ##XX+X.X.X.o..X.X.XX+X+X+XX.O..O..O..o      ",
"                    +#++OOXX.X.....X.XOXXOX+XXXXO.OOOOO.O       ",
"                    +++@+X+X.X..XoX.XXX.X+O+XX+O+OOOOOOOO       ",
"                    +++++O+X.XoXoX.X..+OX.OO++O+X+OOO+OO        ",
"                    @O+@++++X+.X..X.X.X.OXX+OX+OOX+O#++         ",
"                   +++++++++@+X.XXo.X.X.XX.X+OO+O+O++           ",
"                   ++X@++++++@+XX.XX.XXXXX+OO+X+X+              "};
