/* XPM */
static char * mag_8_xpm[] = {
"64 64 8 1",
" 	c None",
".	c #820751444514",
"X	c #9A6971C66595",
"o	c #659549243CF3",
"O	c #451434D32CB2",
"+	c #20811C711C71",
"@	c #69A634D330C2",
"#	c #1C7114511451",
"                                                                ",
"                                                                ",
"                                                                ",
"                                                                ",
"                                                                ",
"                                                                ",
"                                                                ",
"                                                                ",
"                                                                ",
"                                                                ",
"                                                                ",
"                                                                ",
"                         .XXXXXXXX                              ",
"                      o.o.XXXXXXXXXXXX                          ",
"                    ..ooo.........XXXXXX                        ",
"                  ..Xooooooooo....XXXXXXX                       ",
"                 .XXooOOOOoooXoO...XXXXXXXX                     ",
"               .XXXoOO++OoOoOOOo.o@..XXXXXX                     ",
"              .XXXoO++++++++O+OOoOoO@@..X...                    ",
"             X.XXoOO#O+++OOOO+OO+o+oo@@..ooo@                   ",
"            .XX.X.O#+##++++O+O+++O+.oO@O.@.ooO                  ",
"           XXXXXX+O#++++++++++O++++O+.#OO.O.@+                  ",
"          oXXXXXX#O#O###+++O+++O+#+#++++Oo++.o@                 ",
"          oXXXX.oOO##++#++++++++#+++++O+OoO+..+.                ",
"         OXXXXX.o+#O##+++#+++++++O+#+++++O+OOOoo                ",
"         oXX..XXOO##++++#++#+++++++##+++++O++OOO.               ",
"         OXXX..XOO##O#++#+#+#+++++#++##+++O++OO+o               ",
"        oXXX.oX.O#O#####+##+#++##+###+#++#+#O+O+O               ",
"        .XXX...oO##################+#####++++#+O+O              ",
"        XXXXX.X.+###+####+#+##+#########+++++#OO+O              ",
"        OoX...o.O+++###+#####+#############+++OO#O              ",
"        oOo.o.oo.O+##+##+##+###+#########++##+#+O#              ",
"         ooO.XOX.o++###++####++############+##O+#O              ",
"         oOOoo.oo.o++++##+##+########+#++#+###+#O+              ",
"         .oOoooo.XoO+++#+#o#oXX##########+##+##+O#              ",
"        ..oooooXoo.o+##+++o+o.X#+#+#####+#####+++#              ",
"        .ooo.o.oo.oO++#oOOo+Oo.o########++#++#++O+              ",
"       oXo..X.oXOXo.@+OoOo@#.@..#++#####+##+++++#+              ",
"      ..O...ooXOoooooOo@ooo+@@@.++########+####+O#              ",
"     .oX@Xooo.oo.oo@@oo.o.@#@@o@O@+#########++#+O               ",
"     oooo.ooXooXooooooo.o.+O@@o@O@++#########+#+#               ",
"      ooo.o.oooo@@o@ooo.@.##@@@@@@#+#######+#++##               ",
"        @.oo.ooooo@@O@@o@.O@@.@o@.O++######++++#                ",
"        .ooooooo@.o.o@o.@.@.@@@@@@oO+######++++@                ",
"        ooXoo.o.oooo@.@.@.@o@.@..o.O#########+#                 ",
"        ooooooooo@.@oo@o@..@@@@.oo@o@+#####+++O                 ",
"        OOo..@.o.o.o@ooooo@@o@.@o.oooO++#+##+#                  ",
"        o@.ooooo@oooo@.o..@@@@@@o.oo.O++#####+                  ",
"        oooo.o.ooo.@o@o@oo.o.o..o.ooooOO+#+#O                   ",
"        ooo.oooo@@ooo@@o..o.o....oooXooO+O##                    ",
"        oooo@@o@Oo@oooo.oo..o.oXo.o..oooOO+                     ",
"        @@oo@oOo@@O@o@oooo.oo..oooXo.oOoOO#                     ",
"         O@O@OoO@OoO@ooo.ooX.Xooo..oo.O+@@o@o                   ",
"           OO@@OoO@@O@@ooo.ooo...ooo@OOOOoooo                   ",
"             OOO+@+@ooooooooXoo.oo@+O@@@@ooo.o                  ",
"               O@O@@OOo.@o.ooooo+OO@OOOOoooooo                  ",
"                 OOOo@@oo..ooo@OOOOOOOOooOOooo                  ",
"                  +O@O@o@oooOOO+oOOOOoooOooooO                  ",
"                    oooo@XO++O+OOOOOOOOOOO++oo                  ",
"                     o@.oO#OOO+OoOoOo+OO+Ooo.oX                 ",
"                     O.oOOO++OOOO+OOOOoOXOOoooX                 ",
"                     oO+OO++OOO+OOoOoOOoooooX..                 ",
"                     OO+O+O+OOO+oOOOOooXoXooXoX.                ",
"                    O+O+O+OOO+Oo+OooOXoXOXoX.ooX.               "};
