/* XPM */
static char * not_secure_xpm[] = {
"32 30 5 1",
" 	c None",
".	c #000000000000",
"X	c #65955D755555",
"o	c #D75CC71BA699",
"O	c #DF7DCF3CAEBA",
"                                ",
"                                ",
"       ....                     ",
"       Xoo....                  ",
"       Xo.ooo...                ",
"       XO.....o....             ",
"       XoXXXoooooo...           ",
"       XoOOoo..X.ooo...         ",
"       Xo...........ooo.        ",
"       XooOooooooOooooooX       ",
"       Xo..........o..XoX       ",
"       XOXOXOX..Xoo..oooXX      ",
"       XooOOOOOOOooOOooooX      ",
"       Xo......OO......Oo.      ",
"       XoXO..X....XX.XXOOX      ",
"       XOOOoooooOOOOOOoOOX      ",
"       XoXXXoXX..Xo.....O.      ",
"       XoXXXXXXoo...XO..OX      ",
"       XoOooooooOooOOOOOO.      ",
"       XooXXXXoXooXooOOOOX      ",
"       XooXXXXXOoXXoooooO.      ",
"       XooooooOOOOOoooooo.      ",
"       Xo.........OO...OOX      ",
"       XooOo..Ooo....OOOOX      ",
"       XoOOOOOOooOoOOOOoO.      ",
"       XOOOOOOOoooOOoOOooX      ",
"       XXXXXXXXXXXXXXXXXXX      ",
"                                ",
"                                ",
"                                "};
