/* XPM */
static char *s_icon13[] = {
/* width height num_colors chars_per_pixel */
"    32    32       17            1",
/* colors */
". c None",
"# c #797169",
"a c #a2b2d7",
"b c #595155",
"c c #717dcb",
"d c #28208a",
"e c #b6c3d3",
"f c #cfe3fb",
"g c #929ed3",
"h c #9696a2",
"i c #301cb2",
"j c #6d75a2",
"k c #9e8661",
"l c #242449",
"m c #28246d",
"n c #51518e",
"o c #4951b2",
/* pixels */
"................................",
"................................",
".........................jlng...",
"........................blmmmh..",
"........gjddnmndndndnnnnmlnjdj..",
".......agjdmlmlmlmlmlmmlllldlj..",
"......ffjjg..........a..nllllge.",
"....aaag.................jlbh...",
"....hcc..................e......",
"....doge.....hh###ch............",
"....mn......#b#kk#ndn...........",
"....dm.....##kkkk#oddn...eeeeee.",
"....jnj...##kkkkkjjdddn..e....e.",
".....djg.ab#kkk#kjoodddh..ee.e.e",
".....hdjhhb#kk#occnooinj...e..e.",
".......jdb#nd#nioghjonjd.e..e..e",
".........bbmddoddocnoj#n..e.e.e.",
".........#bbddddddddnkkbnc.e.e.e",
".........hbmdddddddd#k#hjdjg.e..",
".........hblddddddddnmnh.gmo..e.",
"..........#bmddddddddmn...jnj.e.",
"...........#mlmmdddmmnea...md...",
"............bmmmmdmmn......mne..",
".......eee...hjllljge.....gdd...",
".......ea..........e......jcg...",
"....hblj.............eeeeg.aa...",
"...glmmmn............eggh.f.....",
"...jlmjdldmdmdmdmddndnncga......",
"..ejlmnmldmdmdmnmndmmdmjg.......",
"...hlmlln.......................",
"....gblj........................",
"................................"
};
