/* XPM */
static char *s_icon1[] = {
/* width height num_colors chars_per_pixel */
"    32    32       13            1",
/* colors */
". c None",
"# c #797169",
"a c #595155",
"b c #717dcb",
"c c #28208a",
"d c #929ed3",
"e c #301cb2",
"f c #6d75a2",
"g c #9e8661",
"h c #242449",
"i c #28246d",
"j c #51518e",
"k c #4951b2",
/* pixels */
"................................",
"................................",
".........................fhjd...",
"........................ahiiid..",
"........fjccjcjcjcjcjcjkihjfif..",
"......fccciiihhhhihihihihhiiif..",
".....fcihfd.............jhhhhd..",
"....dicj.................fhjd...",
"....fcj.........................",
"....ijd......dfjjkfd............",
"....ic......#a##fcccj...........",
"....ij.....#####jccccj..........",
"....fjf...ai#g#fkcccccj.........",
".....ckd.dha#g#kkkkkjccd........",
".....difd#hcjj#jfb###faf........",
".......fchiiccceek#####i........",
".........hhiicceeef###ac........",
".........hhiiccceccjggjijf......",
".........fhiiccccccj#gcffcjd....",
".........dhhiicccccc##id.djj....",
"..........ahiiiccccc#cj...fjf...",
"...........ahiiciciijj.....cc...",
"............ahhhiiihj......ij...",
".............dfhhhfd......dic...",
"..........................ajf...",
"....dahf.................jicd...",
"...dhiiij.............dfhccf....",
"...#iifihcicicicicjiijicjif.....",
"...fhijiiciiijcijijijcijf.......",
"...dhiihj.......................",
"....dihf........................",
"................................"
};


