/* XPM */
static char *s_icon3[] = {
/* width height num_colors chars_per_pixel */
"    32    32       15            1",
/* colors */
". c None",
"# c #797169",
"a c #a2b2d7",
"b c #595155",
"c c #717dcb",
"d c #28208a",
"e c #cfe3fb",
"f c #929ed3",
"g c #301cb2",
"h c #6d75a2",
"i c #9e8661",
"j c #242449",
"k c #28246d",
"l c #51518e",
"m c #4951b2",
/* pixels */
"................................",
"................................",
".........................hklf...",
"........................lkkkkf..",
"........hlddlkldldldllcahklhkh..",
"......hkkdkjkjkjjkjkjklfljkkkh..",
".....hdkkhf...........a.hjjkjf..",
"....fkkl.................hjbfa..",
"....hdl...................a.....",
"....klfa.....ai###hf............",
"....kd......#b####lkl...........",
"....kla....#kl#ii#hmdl..........",
"....hlh...bkkdlhi#llgll.........",
".....dma.fjkkdddgmlmlbba........",
".....fllf#jkkddggggggbbh........",
".....a.hljkkkdddggggglb#........",
".......aajjkkdddggggddl#........",
".........jjkkdddggggddbblh......",
".........hjkkddddggdddkfhlla....",
".........fjjkkddddggdd#f.fkla...",
"..........bjjkdddddddk#...hlh...",
".........a.ljjjkkkkdkl.....kd...",
"...........abjjjjkkjl......kl...",
".............fhjjjhfa.....fkd...",
"..........................blh...",
"....fbkh.................lkkf...",
"...fjkkkl.............fhkkdh....",
"...#kkmkhfhkkkkkklkklkldlkc.....",
"...hkklklfhdlkdlkklkdkdlh.......",
"...fjkkkha..a...................",
"....fbjha.......................",
"....a.a........................."
};
