/* XPM */
static char *s_icon23[] = {
/* width height num_colors chars_per_pixel */
"    32    32       15            1",
/* colors */
". c None",
"# c #797169",
"a c #a2b2d7",
"b c #595155",
"c c #717dcb",
"d c #28208a",
"e c #929ed3",
"f c #9696a2",
"g c #301cb2",
"h c #6d75a2",
"i c #9e8661",
"j c #242449",
"k c #28246d",
"l c #51518e",
"m c #4951b2",
/* pixels */
"................................",
"................................",
".........................hklf...",
"........................bkkkke..",
"........hldddlkldldldlllkjlmkh..",
"......hkkdkkjjkjkjkjkjjkjjkkkh..",
".....hdkjhf.............ljjjjf..",
"....ekkl.................hjlf...",
"....hdl.........................",
"....klf......afddlfa............",
"....kd......#ldddk##i...........",
"....kl.....#blddgdl#ii..........",
"....hmh...#blddddddiiif.........",
".....kma.fbbddddddddhlba........",
".....ellafblkddggggdddkf........",
".....a.cehbdddmdmggdddd#........",
".........jkllb##hhhdddd#........",
".........jkkkbb##ilddddhefa.....",
".........hjklbbb###ddddhflle....",
".........fjkklb#i#ldddke.edm....",
"..........bjkkk###lkdkl...hlh...",
"...........ljkkk#lkkkl.....kd...",
"...........abjkkblkkl......kl...",
".............fhjjjhf......fdd...",
"..........................ldh...",
"....fbkh.................lkke...",
"...fkkkkl.............fhkddh....",
"...hkkhkkkkjkkkkkkkkldldlkh.....",
"...hjklkkkkdkkklklklkkklh.......",
"...fkkkkl......a................",
"....fljha.......................",
"................................"
};
