/* XPM */
static char *s_icon22[] = {
/* width height num_colors chars_per_pixel */
"    32    32       17            1",
/* colors */
". c None",
"# c #797169",
"a c #a2b2d7",
"b c #595155",
"c c #717dcb",
"d c #28208a",
"e c #b6c3d3",
"f c #cfe3fb",
"g c #929ed3",
"h c #9696a2",
"i c #301cb2",
"j c #6d75a2",
"k c #9e8661",
"l c #242449",
"m c #28246d",
"n c #51518e",
"o c #4951b2",
/* pixels */
"................................",
"................................",
".........................jmnh...",
"........................bmmmmg..",
"........jndddnmndndndnnnmmmcmj..",
"......jdddmmlmmlmlmlmlmllmmmmje.",
".....jdmljh..e..........nllmlh..",
"....gdmne...............ejlbg...",
"....jdne.................e......",
"....mnh......ajnn#hae...........",
"....md......#nddnn##k...........",
"....mn.....#nmddd##kkhe.........",
"....joj...#nddddi#kkkkhea.......",
".....mng.abmmddddokk###h....eee.",
".....gncehbmmdddiiondn#h...eea..",
"......ea.nmdmdddiiiddd##...e....",
"......ee.lmdnnodiiddddb#...ee...",
".....ea..lmbbn###nddddnjfg..e.e.",
".........jlmbbb##ddddddjajog....",
".........hlmbb###dddddmh.hnoa...",
"....eeee..nlbb##nddddmn...jnj...",
"...ee.a....bmmb#mmmmmn...a.md...",
"...e.e.....amll#mmmmn......moee.",
"...e.e..ee...gjlmljh......gmd...",
"...e.e.e.e...e.e..........nmj...",
"...ehnmje.e..............nmdh...",
"...hmmmmna............hjmmdj....",
"...jmmnmmmmmmmmmmmmmndndnmj.....",
"...jmmnmmmdmdmmnmmnmmmmnj.......",
"...hlmmmn.......................",
"....hnlje........ee.............",
"................................"
};
