/* XPM */
static char *s_icon4[] = {
/* width height num_colors chars_per_pixel */
"    32    32       16            1",
/* colors */
". c None",
"# c #797169",
"a c #a2b2d7",
"b c #595155",
"c c #717dcb",
"d c #28208a",
"e c #b6c3d3",
"f c #cfe3fb",
"g c #929ed3",
"h c #301cb2",
"i c #6d75a2",
"j c #9e8661",
"k c #242449",
"l c #28246d",
"m c #51518e",
"n c #4951b2",
/* pixels */
"................................",
"................................",
".........................ilmge..",
"........................mllllg..",
"........imddmlmdmdmmcg.fiklcli..",
"......ildllklkklklkllcc.mklllie.",
".....idllig........a..eeiklkkge.",
"....gllm.................ikbge..",
"....imma.................e......",
"....ldg......aj###iae...........",
"....lma.....#mm##j#bm...........",
"....lna....#lddmjjjnmm..........",
"....ini...bllddddnm#mn#.........",
"...eelnaegkllddddhhhhdmae.......",
"...e.gliiikdddddhhhhhdbie.......",
"...ee.eimkklddddhhhhhdd#e.......",
"...e....akllldddhhhhddd#........",
"...ee....kkllddddhdhdddbmce.....",
"...e.e...ikllddddddddddiiliae...",
"...e.e.e.gklllddddddddleegln....",
"...e.e.ee.bllllldddddl#..eimi...",
"...e.e..e..blllllllllm.....lde..",
"...e.e.e.e.amkkllllkm......lm...",
"...e.e..e....gikkkige.....gld...",
"...e.e.e.e.e.e.....e......mlce..",
"...eglli.e.eea...........mlmge..",
"...gklllne............gildli....",
"...illili..cmdlldlmlmdmdmdie....",
"..eiklmln..cnmlmlmlmldlmi.......",
"...gklllme.e....e...............",
"...egbkie.......................",
"....e..........................."
};
