/* XPM */
static char *s_icon10[] = {
/* width height num_colors chars_per_pixel */
"    32    32       16            1",
/* colors */
". c None",
"# c #797169",
"a c #a2b2d7",
"b c #595155",
"c c #717dcb",
"d c #28208a",
"e c #b6c3d3",
"f c #cfe3fb",
"g c #929ed3",
"h c #301cb2",
"i c #6d75a2",
"j c #9e8661",
"k c #242449",
"l c #28246d",
"m c #51518e",
"n c #4951b2",
/* pixels */
"................................",
"................................",
".........................ilmge..",
"........................bllllg..",
"........ggaff.gcmdmdmmmmlllili..",
"......ilmicaacmmllllllllkklllie.",
".....idllcge.e.a.....a..mkklkge.",
"....gllm.ee.............eikbge..",
"....idm.........................",
"....lmge.....aj#mbig............",
"....ld......###hlddlm...........",
"....lm.....###mmdddddm..........",
"....ini...##jimhddddddm.........",
".....lmg.a###ihddddddddge.......",
".....gligj###nddhhdddddi........",
"......eidbb#ihndhhhhdddd........",
".........bl#mmnmnimnhhdl........",
".........klmni#hncchhhdlmce.....",
".........iklmmnni##inhliiliae...",
".........gkklllnjjjjddlg.gdm....",
"........eebklll##j##ddm...imi...",
"...........mklllbdldlm....elde..",
"............bkklllllm......lm...",
".............gikkkige.....gld...",
".............e.....e.....emmi...",
"....gblie................mllg...",
"...gklllm.............ailddi....",
"..eiklmlllllllldlcc.feacidie....",
"...illmlldddmdmlmmga..ggge......",
"...gklllme.....e........e.......",
"...egbkie.......................",
"....e..........................."
};
