/* XPM */
static char *s_icon11[] = {
/* width height num_colors chars_per_pixel */
"    32    32       17            1",
/* colors */
". c None",
"# c #797169",
"a c #a2b2d7",
"b c #595155",
"c c #717dcb",
"d c #28208a",
"e c #b6c3d3",
"f c #cfe3fb",
"g c #929ed3",
"h c #9696a2",
"i c #301cb2",
"j c #6d75a2",
"k c #9e8661",
"l c #242449",
"m c #28246d",
"n c #51518e",
"o c #4951b2",
/* pixels */
"................................",
"................................",
".........................jmnh...",
"........................bmmmmg..",
"........a...gcdnmndndnnommncmj..",
"......hcg..gjnmlmlmlmlmlmlmmmje.",
".....jojjggeaeeee.......bllllh..",
"....gmmna....e.........e.jlnh...",
"....jdne.....ee........eeeee..ee",
"....mnh.eeeeaah#nbjgeea..e..e..e",
"....md...e..###jndmmne...e.e.e..",
"....mn...a.##k#jodmmmnee..e.e.e.",
"....joj...##kkjjimdddmn.a..e..e.",
".....mjg.a#kk##oddddddmg...e.a..",
".....hdjhh####ooiiiddddj...e....",
".......jnm##n#jijoioiidm...e....",
".......eelbmdjojoocjoddd...e.ee.",
".......e.lmmdjj#oojhjodmnce.e...",
"...eeee.ejmmmmnddjkkkndjjnnae.ee",
"...e..a..hlmmmmmn#kkkbdg.hni..e.",
"...ea.e...bmmmmmm#nnmmn...jnj...",
".........e.nlmmmmmmmmn...eedd...",
".........eeenllmmmmmn....e.mn...",
".........e.eehjllljheeeea.gnm...",
"...eeeee..a.e......e..e...nmj...",
"...ehnmje....e.....e.e...nmmg...",
"...hmmmmna............aaocnj....",
"...jmmjmmmdmdmdmnddcc.ffajc.....",
"...jmmnmmmdmdnmnmnnncg..a.e.....",
"...hlmmmne.......ae.ae..........",
"....hnljeee.......e.............",
".....eeee.e.............eeeeeee."
};
