/* XPM */
static char *s_icon15[] = {
/* width height num_colors chars_per_pixel */
"    32    32       17            1",
/* colors */
". c None",
"# c #797169",
"a c #a2b2d7",
"b c #595155",
"c c #717dcb",
"d c #28208a",
"e c #b6c3d3",
"f c #cfe3fb",
"g c #929ed3",
"h c #9696a2",
"i c #301cb2",
"j c #6d75a2",
"k c #9e8661",
"l c #242449",
"m c #28246d",
"n c #51518e",
"o c #4951b2",
/* pixels */
"................................",
"................................",
".........................jmnh...",
"........................blmmmg..",
"........jnddnmnmndndnnnnmlncmj..",
"......jmdmmlmllmlmlmlllmllmmmje.",
".....jjmljh.............bllllh..",
"....agon.................jlbg...",
"....a.ge........................",
".....f.......hh###hae......a....",
"....gg......#b#kkkk##...........",
"....jj...ee#bkkkkkk#jn..eee.....",
"...ejoj.ee#b#kkkkk##nnn..e.eeee.",
"...eamjg.abnk#j##koojnng.e.e..e.",
".....gmjhj###k#iociij#nj..e.e..e",
".......jnbb###oiiiiidinn...e.e.e",
"........ab###kndiiidddd#...e..e.",
".........bb###ddiiddddb#nc.e.e.e",
"...eeeee.jbbb#ddiiddddmjjmjg.e..",
"...e..a..hlbbbnbdddddmdg.gmn..e.",
"...ea.....nlb#nnddmddmne.ejnj...",
"...........bl#bmmmmdmn.....ocee.",
"............nllmmmmmn......ca.e.",
"........eea..gjllljh......a.....",
"...eeeee.e...ee...........h.....",
"...ehnlje................nog....",
"...hlmmmna............hjmnjc....",
"...jmdjmmmmmmmlmmmbmndninmce....",
"...jlmnmlmmmmbmbmbmmmmlnj.......",
"...hlmmln.......................",
"....hnlj........................",
"................................"
};
