/* XPM */
static char *s_icon21[] = {
/* width height num_colors chars_per_pixel */
"    32    32       16            1",
/* colors */
". c None",
"# c #797169",
"a c #a2b2d7",
"b c #595155",
"c c #717dcb",
"d c #28208a",
"e c #cfe3fb",
"f c #929ed3",
"g c #9696a2",
"h c #301cb2",
"i c #6d75a2",
"j c #9e8661",
"k c #242449",
"l c #28246d",
"m c #51518e",
"n c #4951b2",
/* pixels */
"................................",
"................................",
".........................ilmg...",
"........................bllllf..",
"........imddmlmlmdmdmmmmlkmnli..",
"......ildllklklklklklkklklllli..",
".....ildkig.............mkkkkg..",
"....fdlb................aikbf...",
"....idm.........................",
"....lmfa.....fgm#jga............",
"....ll......mddi#mm#j...........",
"....dm.....#dddm#jjjjga.........",
"....imi...#mddddjjjjjj#.........",
".....di.aglldddmjjjj#j#f........",
".....fc..illdddhgjjm#j#i........",
"........fmllddddhnhdmj#b........",
".........kldddddhhhddj#b........",
".........klbmmddddddd##mf.......",
".........ikbbb#mdddddmbiaafa....",
".........gkbbbblddddddlf.adm....",
"..........bbbbbmdddddlm...imi...",
"...........lkbblddddlm.....md...",
"............bkbbllllm......ld...",
".............giklkig......gld...",
"..........................mli...",
"....gmli.................mllf...",
"...gklllm.............gilldi....",
"...illmllllklllllllblmdmlmi.....",
"...ikdmlllldllmlmlmllllmia......",
"...gkdllm.......................",
"....gmkia.......................",
"................................"
};
