/* XPM */
static char *s_icon19[] = {
/* width height num_colors chars_per_pixel */
"    32    32       16            1",
/* colors */
". c None",
"# c #797169",
"a c #a2b2d7",
"b c #595155",
"c c #717dcb",
"d c #28208a",
"e c #b6c3d3",
"f c #cfe3fb",
"g c #929ed3",
"h c #9696a2",
"i c #6d75a2",
"j c #9e8661",
"k c #242449",
"l c #28246d",
"m c #51518e",
"n c #4951b2",
/* pixels */
"................................",
"................................",
".........................ilmh...",
"........................bllllg..",
"........imddmlmlmdmdmdmnlldcli..",
"......illdlklkklklklklkkkklllie.",
".....idlkih.............mkkkkh..",
"....gllm.................ikmh...",
"....imm.........................",
"....llge.....ah#j#hee...........",
"....lmeeeeeemm####jjj...........",
"....lnea..ammm#mi#jj#i..eeeeeee.",
"....hcg...mll#j#jj##idme.ea..ea.",
"...eaafeehllm#jjjjjjjmdge...e...",
".....eaccillmjjjjjjj#ddi.e.e.e..",
"....ea.imkllmjjjjjjj#ddd..e..e..",
"...e.....klll#mmnjjj#mmde...e.e.",
"...ee....klllddddmjjjmdlmc.e.e.e",
"...ea....iklldddddjj#dliii....e.",
".........hkbllddldmjmdlg.ea..e.e",
"..........mbblldldlmldm..egcge..",
"...........#lllllllllm..eeemmeea",
"..........eemkklllllm...ea.lmea.",
"...eeeeeeea..hikkkih...e..glme..",
"...ea..ea..............e.emli.e.",
"....gbli..............ee.mldg...",
"...hklllm............egillmi....",
"...illilllllllllllbdmdmdmdi.....",
"...illmllldlmlmlmlmllklmi.......",
"...hklllm....................ee.",
"....hmkie.................eeea..",
".............eee.........eea...."
};
