/* XPM */
static char *s_icon5[] = {
/* width height num_colors chars_per_pixel */
"    32    32       15            1",
/* colors */
". c None",
"# c #797169",
"a c #a2b2d7",
"b c #595155",
"c c #717dcb",
"d c #28208a",
"e c #cfe3fb",
"f c #929ed3",
"g c #301cb2",
"h c #6d75a2",
"i c #9e8661",
"j c #242449",
"k c #28246d",
"l c #51518e",
"m c #4951b2",
/* pixels */
"................................",
"................................",
".........................hklf...",
"........................ljkkkf..",
"........hlddlklkldhc.eealkkckh..",
"......hkkdkkjkjjkjkcfafckjkkkh..",
".....hdkkhf.............ljjkjf..",
"....fkkl.................hjbfa..",
"....hdl.........................",
"....klf......ai###ha............",
"....kd......#llk#ii#i...........",
"....kl.....blkdddll#lh..........",
"....hmh...lkkkddddddld#.........",
".....kma.hjkkdddddddddda........",
".....fllf#jkddddgggddddh........",
".....a.hdjjkddddgggddddb........",
".........jjkkdddgggddddl........",
".........jjkkkddddgddddklc......",
".........hjkkkddddgddddhhkha....",
".........fjkddddddddddka.fkl....",
"..........bkkddkkdkdkd#...hlh...",
".........a.ljkkkkkkkkl.....kd...",
"...........abjkkkkkkl......kl...",
".............fhjjjhfa.....fkd...",
"..........................llh...",
"....fbjh.................ljkf...",
"...fjkkkl.............fhkkdh....",
"...#kkhklc...cmlkklklkdldlh.....",
"...hkklklc.eahlklklkdkdlh.......",
"...fjkkkl.......................",
"....fbjh........................",
"....a..........................."
};
