/* XPM */
static char *s_icon6[] = {
/* width height num_colors chars_per_pixel */
"    32    32       16            1",
/* colors */
". c None",
"# c #797169",
"a c #a2b2d7",
"b c #595155",
"c c #717dcb",
"d c #28208a",
"e c #b6c3d3",
"f c #cfe3fb",
"g c #929ed3",
"h c #301cb2",
"i c #6d75a2",
"j c #9e8661",
"k c #242449",
"l c #28246d",
"m c #51518e",
"n c #4951b2",
/* pixels */
"................................",
"................................",
".........................ikmg...",
"........................bklllge.",
"........imddmlmdicaffacmlkmili..",
"......ildllklkkllicggcidkkklli..",
".....idlkig.........e...mkkkkge.",
"....gllm................eikmgeee",
"....idmeeeeeeeeeeeeeeeeeeeeeeeee",
"....lmga.....gi###gaee...e.eee.e",
"....lde.....immddm###....e.e.e..",
"....lmee...mllddddldmi...a.e..a.",
"....ini...mllddddddddln....a....",
".....lna.gkllddddddddddg........",
".....gmmgilllddddhhddddi........",
".....eaidkllddddhhhddddd........",
".......eekllddddhhhddddd........",
".........klldddddddhdddlmce.....",
".........ikldddddddddddiimma....",
".........gklddddddddddlgegdm....",
"........eebblddddlllllmea.imi...",
"...........#bblddllllme....md...",
"..........a.#bblllllme.eeeelde..",
".............gikkkigee....gld...",
"...................ee.ee.emli...",
"....ibki............e..e.mlmgeee",
"...gklllmea.........eegilldia..e",
"...iklilllig.facmllmdmdmddie....",
"..eiklmllmig..gcmmlmldlmi.e.....",
"...gkklkmae.....a..ee...........",
"...egmkiee.ee......e.e..........",
"...eeeeeee..e..................."
};
