/* XPM */
static char *s_icon9[] = {
/* width height num_colors chars_per_pixel */
"    32    32       15            1",
/* colors */
". c None",
"# c #797169",
"a c #a2b2d7",
"b c #595155",
"c c #717dcb",
"d c #28208a",
"e c #cfe3fb",
"f c #929ed3",
"g c #301cb2",
"h c #6d75a2",
"i c #9e8661",
"j c #242449",
"k c #28246d",
"l c #51518e",
"m c #4951b2",
/* pixels */
"................................",
"................................",
".........................hjlf...",
"........................bjkkkf..",
"........hlmcaee.fhmdlllmkjlhkh..",
"......hkddlhhfachdkkkkkkjjjkkh..",
".....hdkjhfa............bjjjjf..",
"....fdkl...............a.hjlfa..",
"....hdl.........................",
"....klf......ailblhf............",
"....kd......##mddkkkl...........",
"....kl.....##lkddddddl..........",
"....hmh...###lddddddddl.........",
".....khf.fb#hddddddddddf........",
".....fkhhf##mddddggddddh........",
".......hlbblkddggggddddd........",
".........jbklddgggggdddd........",
".........jblllllhggggddklc......",
".........hjbblghhmggddkhhkha....",
".........fjkld##i#lgddkf.fkl....",
"..........bjjd#iii#ddkl...hlh...",
"..........aljkb#lblkkl.....kd...",
"............bjjjkkkkla.....jl...",
"............afhjjjhf......fkd...",
"..........................ldh...",
"....fbjh.................lklf...",
"...fjjkkl.............fhkkdh....",
"...#jdhkjdkdkdkhcae.ahhdlkh.....",
"...hjklkjkkkkldhca..fhmlh.......",
"...fjjkjla......................",
"....fbjh........................",
".....a.........................."
};
