/* XPM */
static char *s_icon24[] = {
/* width height num_colors chars_per_pixel */
"    32    32       14            1",
/* colors */
". c None",
"# c #797169",
"a c #595155",
"b c #717dcb",
"c c #28208a",
"d c #929ed3",
"e c #9696a2",
"f c #301cb2",
"g c #6d75a2",
"h c #9e8661",
"i c #242449",
"j c #28246d",
"k c #51518e",
"l c #4951b2",
/* pixels */
"................................",
"................................",
".........................gjke...",
"........................ajjjjd..",
"........gkccckjkckckckkljijbjg..",
"......gjjcjjjijijijijjjiijjjjg..",
".....gcjige.............aiijie..",
"....djjk.................giad...",
"....gck.........................",
"....jke......eeccced............",
"....jc......g#kcccj#h...........",
"....jk.....#a#lccccc#e..........",
"....glg...#a#kjccccck#h.........",
".....jld.d###cccccccckj.........",
".....ekgega#llcclffccccg........",
".......ggkaaklkkeebkcccj........",
".........iickck##h##kcck........",
".........iijcck#####kccjge......",
".........gijjcc##hh#cccgeckd....",
".........eiijjjckhhkjcjd.dkl....",
"..........kijjjcj#hkjjk...gkg...",
"...........aiijjjagcjk.....jc...",
"............kiijjiajk......jl...",
".............egiiige......ecj...",
"..........................kjg...",
"....eajg.................kjcd...",
"...ejjjjk.............egjccg....",
"...gjjgjjjjjjjjjjjjjlckckjg.....",
"...gjjkjjjjjjcjjkjkjjjikg.......",
"...eijjjk.......................",
"....ekig........................",
"................................"
};
