/* XPM */
static char *s_icon18[] = {
/* width height num_colors chars_per_pixel */
"    32    32       16            1",
/* colors */
". c None",
"# c #797169",
"a c #a2b2d7",
"b c #595155",
"c c #717dcb",
"d c #28208a",
"e c #b6c3d3",
"f c #cfe3fb",
"g c #929ed3",
"h c #9696a2",
"i c #6d75a2",
"j c #9e8661",
"k c #242449",
"l c #28246d",
"m c #51518e",
"n c #4951b2",
/* pixels */
"................................",
"................................",
".........................ilmh...",
"........................bklllg..",
"........imddmlmlmlmdmdmmllmnli..",
"......illdlklkklklklklklkkllli..",
".....idlkih.............mkkkkh..",
"....gllm................eikmh...",
"....imm.........................",
"....ldh......ah##jhee...........",
"....dm......ib###jjjj...........",
"....ig.....mm##ijjjiji..eeeeeee.",
"....gf....ml#mi##jjmdmm.e.....e.",
".....a.a.hlljjjjjjhmdddge.ee.e.e",
".....amnhilbjjjjjjj#dddi.e..e.e.",
"...eee.idll#jjjjjjjmdddl..e..e.e",
"...e.e...klb####jjjmmddd.e.e..e.",
"...e.e...kkdbdd#jjjmmddlmce.e.e.",
"...e.e...iklllddjjj#ddliilc.e.e.",
"...e.e.e.hllllld#jjmddlg.ahf.e.e",
"...e.e.e..bklllldmmldlm...g..e..",
"...e.e..e..mkllllllllm.....cgee.",
"...e.e.e.e..bkklllllm......li.e.",
"...e.e..e....hikkkih......hmd...",
"...e.e.e.e.e..............mli...",
"...ehmli.e...............mlda...",
"...hllllm.ee.e........hilldi....",
"...illmllllllllllllmlmdmdmi.....",
"...iklmllldldmlmlmmlllkmi.......",
"...hllllm........e.......e......",
"....hmkie................e.eeee.",
"........................e.e..e.."
};
