/* XPM */
static char *s_icon7[] = {
/* width height num_colors chars_per_pixel */
"    32    32       16            1",
/* colors */
". c None",
"# c #797169",
"a c #a2b2d7",
"b c #595155",
"c c #717dcb",
"d c #28208a",
"e c #b6c3d3",
"f c #cfe3fb",
"g c #929ed3",
"h c #301cb2",
"i c #6d75a2",
"j c #9e8661",
"k c #242449",
"l c #28246d",
"m c #51518e",
"n c #4951b2",
/* pixels */
"................................",
"................................",
".........................ikmg...",
"........................bklllge.",
"........imddmlica.f.gimnllmili..",
"......ildllllllicgaiimdlkkklli..",
".....idlligee.e.e..e....bkllkge.",
"....gllm.e...............ikbge..",
"....idm.........................",
"....lmge.....gjmbmgae...........",
"....ld......#mmddllb#...........",
"....lm...ee#mllddddddia..eeeeee.",
"....ini.ee#lldddddddddm..e.a.e..",
".....lig.gbllldddddddddge.e..e..",
".....glig#mlldddhhhddddi.e..e.ee",
".......idblldddhhhhhdddd..e..e..",
".........lllddddhhhddhdd..e.e.e.",
".........kllddhddhhdddddmc.e..e.",
".........illlmddhddddddiilige.e.",
"........egklbmdddhddlllgegmna.e.",
"........eeblb#mmdddlllm...mmi...",
"...........mb##bddmllm....emd...",
"...........ebkbbllllm......lde..",
".............gikkkige.....glde..",
".............e.a.........emli...",
"....gbli..........eeeeeeemlmg...",
"...gklllm.........e.a.gilldi....",
"..eiklillldmca.eacilmdmdmlie....",
"...illmlkddmcae.gcmlddlmi.......",
"...gklllm..........e.e..........",
"..eegbkie.......................",
"....e..e........................"
};
