/* XPM */
static char *s_icon8[] = {
/* width height num_colors chars_per_pixel */
"    32    32       16            1",
/* colors */
". c None",
"# c #797169",
"a c #a2b2d7",
"b c #595155",
"c c #717dcb",
"d c #28208a",
"e c #b6c3d3",
"f c #cfe3fb",
"g c #929ed3",
"h c #301cb2",
"i c #6d75a2",
"j c #9e8661",
"k c #242449",
"l c #28246d",
"m c #51518e",
"n c #4951b2",
/* pixels */
"................................",
"................................",
".........................ikmg...",
"........................bklllge.",
"........imddicaff.gimdmmlkdili..",
"......ildlllmmcgaccdllllkkkllie.",
".....idlkig.e....e......mkkkkge.",
"....gllm................eikbgeee",
"....idmee.................e.eee.",
"....lmce.....ajibmige.....eea..e",
"....lde.....##dddddlneeeea......",
"....lm.....#iddddddddm..e.......",
"....ini...##mlddddddddm.........",
".....lmg.gbmldddhhdddddgee.eeee.",
".....gdig##mdddhhhhdhddi..e.....",
"......eidbbdlhlhhhhdlddd.e.e.ee.",
"........e#lllddhhhhhdddd.e..e..e",
".........lldddhhhhhhlhldmc.e.e.e",
".........ilbd##ddhhhdlliilig.e..",
"........egkbhmimnhhddllg.glm..e.",
"...eeee..ebkl#jj#mdddlm...imi.e.",
"...ea......mk##j#lddlmeee..ld...",
"......ee....bkklllllme..e..lma..",
".....e.e.eee.gikkkigeee...gld...",
"....e.e.e...eeee...eee.e..mli...",
"...egbki.e.e.e.e....e..e.mlmgeee",
"...gklllma.e..a.....eegilldiee..",
"...iklillldldmce..gcmdmdmli.e.a.",
"..eiklmlkdlddmca..ginddmi...e...",
"...gkklkme..e..........e........",
"...egbkiee......................",
"...ea.ee.e..................eee."
};
