/* XPM */
static char *s_icon16[] = {
/* width height num_colors chars_per_pixel */
"    32    32       17            1",
/* colors */
". c None",
"# c #797169",
"a c #a2b2d7",
"b c #595155",
"c c #717dcb",
"d c #28208a",
"e c #b6c3d3",
"f c #cfe3fb",
"g c #929ed3",
"h c #9696a2",
"i c #301cb2",
"j c #6d75a2",
"k c #9e8661",
"l c #242449",
"m c #28246d",
"n c #51518e",
"o c #4951b2",
/* pixels */
"................................",
"................................",
".........................jlng...",
"........................blmmmh..",
"........jnddnmnmndndndnnmlnjdj..",
"......jmmdmmmmlmlmlmlmllmlmmmj..",
".....jdmljh.e...........bllllge.",
"....andb.................jlnh...",
"....ajj.........................",
"....gaa......ah##khee...........",
".....f......#b#kkkkk#...........",
"....a......#b#hkkkkk#j..........",
"....gjga..#b##kkk#kjnjj.........",
".....mna.abbn#khnooninjg........",
".....gnnhjb#k#k#oiiiddjce.......",
"......ajnb##kkkhoiiiddmd........",
"........ab##k###iiiiddmd........",
".........bb#b###diidddmdnce.....",
"........ajmbb###ondidddjjmjg....",
".........hlmbb##nbddddmg.gmja...",
"..........blm###mddmdmn..eccg...",
"...........nlmb#dddmdn.....g....",
"..........a.bllmmmmmn.......f...",
".............gjllljh......ag.a..",
"............a.e..........ejcg...",
"....hbmj.................nmng...",
"...gldmmn.............gjmmdj....",
"...jlmjmmmmmmmmmmmbdndndnmc.....",
"...jlmnmlmmmmnmnmnmnlmlnj.......",
"...hlmmln.......................",
"....gblj........................",
"................................"
};
