/* XPM */
static char *s_icon20[] = {
/* width height num_colors chars_per_pixel */
"    32    32       17            1",
/* colors */
". c None",
"# c #797169",
"a c #a2b2d7",
"b c #595155",
"c c #717dcb",
"d c #28208a",
"e c #b6c3d3",
"f c #cfe3fb",
"g c #929ed3",
"h c #9696a2",
"i c #301cb2",
"j c #6d75a2",
"k c #9e8661",
"l c #242449",
"m c #28246d",
"n c #51518e",
"o c #4951b2",
/* pixels */
"................................",
"................................",
".........................jmnh...",
"........................bmmmmg..",
"........jnddnmnmndndndnnmmnjmj..",
"......jdddmmmmlmlmlmlmlmllmmmj..",
".....jdmljh.ee..........nllmlh..",
"....gmmne...............ejlbg...",
"....jdn.........................",
"....mnh......gh#k#hae...........",
"....md......nnn####kk...........",
"....mn.....ndmn#j##k#ha.........",
"....joce..nmdd#kkkkkk#ne........",
".....jg..hmmdd#kkkkkkknga.......",
".....g.egjlddd#kkkk#k#dje.......",
".......gjlmmmdn#hojkkknd........",
".........lmmmdddiii#k#nb........",
".........lmmddddiddnkkbdja......",
"...eeee..jlbnmdddddn#kdjga..eee.",
"...ea....hlbbbmdddddndmg.ajj.a..",
"......ee..nlbbdmddddmmn...cnce..",
".....e..e..#bbmmmddmmn....enna..",
"....e.e.e...nblmlmmmb......mn...",
"...ee..e.e...hjlmljh......hdna..",
"...e.e..e.e...e...........nmj...",
"...ehnmje.ee.............nmdg...",
"...hmmmmna............hjmdnj....",
"...jmmjmdmmmmmmmmmbdndndnmj.....",
"...jmmnmmmdmmnmnnmnmmmlnj.......",
"...hlmmmn......e................",
"....hnlje.......................",
"................................"
};
