/* XPM */
static char *s_icon17[] = {
/* width height num_colors chars_per_pixel */
"    32    32       17            1",
/* colors */
". c None",
"# c #797169",
"a c #a2b2d7",
"b c #595155",
"c c #717dcb",
"d c #28208a",
"e c #b6c3d3",
"f c #cfe3fb",
"g c #929ed3",
"h c #9696a2",
"i c #301cb2",
"j c #6d75a2",
"k c #9e8661",
"l c #242449",
"m c #28246d",
"n c #51518e",
"o c #4951b2",
/* pixels */
"................................",
"................................",
".........................jlng...",
"........................blmmmh..",
"........jnddnmnmndndndnnmlncmj..",
"......jmmdmlmllmlmlmlmlllllmmj..",
".....jdmljg.............nllllge.",
"....gmmn..e..............jlbh...",
"....jnn..................e......",
"....joce.....ah#kkhee...........",
"...egg......####kkkkk........ee.",
"...eaf.....#n##kkkkk#ha..eeee.e.",
"....afa...nbn##kkhnn#njee.a..e.e",
".....jch.gl#####k#iiidnh....e..e",
"....egdjc#b#kkkkhhiiiddj...e.e..",
"...ee..jnm##kkkkkkiiiddd..e..e.e",
"...e....alb#k##kkciiiddd..e.e.e.",
"...eee...lbbnb#kknndiddmnc..e..e",
"...e..ee.jlmmn####nndddjjmoa.e.e",
"...e.e...glmmm#kk#ddddmg.gng.e.e",
"...e.e.eeablmmm#knddddn...h...e.",
"...e.e..e..nlmmdbdmdmn..........",
"...e.e.e.e..blmmmmmmn......cg...",
"...e.e..e.e..gjllljh......gnc...",
"...e.e.e.e.e..e...........nmce..",
"...ehnlj..e.e............nmma...",
"...glmmmna.e.ee.......gjmmnj....",
"...jlmjmmmmmmmmmmbmmndndndj.....",
"...jlmnmldmdnmnmnmnmdllnj....ee.",
"...hlmmln......e............ee..",
"....gblje..................e.e.e",
"..........................ee..e."
};
