/* XPM */
static char *s_icon25[] = {
/* width height num_colors chars_per_pixel */
"    32    32       14            1",
/* colors */
". c None",
"# c #797169",
"a c #595155",
"b c #717dcb",
"c c #28208a",
"d c #929ed3",
"e c #9696a2",
"f c #301cb2",
"g c #6d75a2",
"h c #9e8661",
"i c #242449",
"j c #28246d",
"k c #51518e",
"l c #4951b2",
/* pixels */
"................................",
"................................",
".........................gjke...",
"........................ajjjjd..",
"........gkcckjkckckckckkjjjbjg..",
"......gjjcjijijiijijijijiijjjg..",
".....gcjige.............kiijie..",
"....djjk.................giad...",
"....gck.........................",
"....jke......decccgd............",
"....jc......#g#klccc#...........",
"....jk.....#a##ccccccg..........",
"....glg...ga##kccccccjh.........",
".....jld.ea##gglfccccccd........",
".....dkkegi##klflgeklccg........",
".......glijckjkl#h####cj........",
".........iijcccfg#####cj........",
".........ijjjccfk####kjjgb......",
".........gijjcccck#hhkcggjkd....",
".........eijjcccccah#cje.dkl....",
"..........aijjjccck#kjk...gkg...",
"...........kijjjjjj#ck.....jc...",
"............aijjjjjjk......jl...",
".............egiiige......ecj...",
"..........................kcg...",
"....ekig.................kjcd...",
"...eicjjk.............egcjcg....",
"...gjjgjjijjjjijjjjkclcljjg.....",
"...gjjkcjcjjjkjkjkjkjiikg.......",
"...eijjik.......................",
"....ekig........................",
"................................"
};
