/* XPM */
static char *s_icon12[] = {
/* width height num_colors chars_per_pixel */
"    32    32       17            1",
/* colors */
". c None",
"# c #797169",
"a c #a2b2d7",
"b c #595155",
"c c #717dcb",
"d c #28208a",
"e c #b6c3d3",
"f c #cfe3fb",
"g c #929ed3",
"h c #9696a2",
"i c #301cb2",
"j c #6d75a2",
"k c #9e8661",
"l c #242449",
"m c #28246d",
"n c #51518e",
"o c #4951b2",
/* pixels */
"................................",
"................................",
".........................jmnh...",
"........................blmmmg..",
"........e.gjndnddndndnnomldcmj..",
"......aff.cnmmlmlmlmlmlmllmmmje.",
".....ggghgg.e...........bllllh..",
"....gnoc.................jlbg...",
"....jdn.........................",
"....mdg......hh##njh............",
"....mn......###k#omdn...........",
"....mn.....##kk#codddn..........",
"....joj...##kkkkjnddddn.........",
".....mjg.abkkk##oidddddh........",
".....gdjhh#kk###ocoddddc........",
"......ejdbb##ijcccoojjim........",
".........bmm#dicjcjocjdd........",
".........bmmddddnoijkknmnce.....",
".........jlmdmddddnkkk#jjnna....",
".........hlmmmddddn##nmg.gdn....",
"..........nlmmmddddmmmn...joj...",
"..........eblmmmddmmmn.....mde..",
"............nllmmmmmn......mna..",
".............hjllljh......hdd...",
"..........................ndje..",
"....hnlj.................jjja...",
"...hlmmmna............aa..gg....",
"...jmmjmmmmmmdmmddddnjgff.a.....",
"...jlmnmmmddmdmdndnmnocga.......",
"...hlmmln........e.e............",
"....hnlje.......................",
"......e........................."
};
