/* XPM */
static char * tearv_xpm[] = {
"5 24 2 1",
" 	c None",
"o	c #000000000000",
"     ",
"     ",
"     ",
"  o  ",
"  o  ",
"  o  ",
"     ",
"     ",
"  o  ",
"  o  ",
"  o  ",
"     ",
"     ",
"  o  ",
"  o  ",
"  o  ",
"     ",
"     ",
"  o  ",
"  o  ",
"  o  ",
"     ",
"     ",
"     "};

