/* XPM */
static char * tearh_xpm[] = {
"24 5 2 1",
" 	c None",
"-	c #000000000000",
"                        ",
"                        ",
" --  --  --  --  --  -- ",
"                        ",
"                        "};

