/* XPM */
static char * toolbar_hotlist_xpm[] = {
"24 30 5 1",
" 	c #FFFFFFFFFFFF",
".	c #000000000000",
"X	c #404040404040",
"o	c #FFFF00000000",
"O	c #FFFFFFFF0000",
"                        ",
"                        ",
"                        ",
"                        ",
"                        ",
"      ...............   ",
"      .             .   ",
"      .             .   ",
"      .  .  XXXXXXX .   ",
"      .  ...        .   ",
"  ............      .   ",
"  ..............XXX .   ",
"  ..............    .   ",
"  ............      .   ",
"      .  ... XXXXXX .   ",
"      .  .        o .   ",
"      .   o      oo .   ",
"      . XXoXXXXX oo .   ",
"      o  oo     oooo.   ",
"      o  ooo   ooooo.   ",
"      oo oooo oooOoo.   ",
"     ooooooOoooOOooo.   ",
"     oOooOOOooOOooOo.   ",
"      oOoooOOoOooOOo.   ",
"      oOOOoOOOOoOOo .   ",
"      .o Oo OOO  Oo..   ",
"       o        ooo     ",
"        oo  oooo        ",
"          oo            ",
"                        "};
