/* XPM */
static char * toolbar_news_groups_1_xpm[] = {
"24 24 5 1",
"       c None",
"- 	c #FFFFFFFFFFFF",
".	c #000000000000",
"O	c #808080808080",
"+	c #404040404040",
"                        ",
"                        ",
"  .................     ",
" ...................    ",
" .----------------..    ",
" .--.-.-.-.-.--.--..    ",
" .--............--....  ",
" .--.-..--.-.--.--..-.  ",
" .--.--.-.--.-.---..-.  ",
" .----------------..-.  ",
" .----------------..-.  ",
" .-OOOOOOO-++++++-..-.  ",
" .---------+----+-..-.  ",
" .-OOOOOOO-+----+-..-.  ",
" .---------+----+-..-.  ",
" .-OOOOOOO-++++++-..-.  ",
" .----------------..-.  ",
" .-OOOOOOO-OOOOOO-..-.  ",
" .----------------..-.  ",
" .-OOOOOOO-OOOOOO-..-.  ",
" .----------------..-.  ",
"  . OOOOOO-OOOOOO-....  ",
"   ..................   ",
"                        "};
