/* XPM */
static char * toolbar_clone_window_1_xpm[] = {
"24 24 4 1",
" 	c None",
".	c #808080808080",
"X	c #000000000000",
"o	c #51515151FBFB",
"  ...............       ",
"  .XXXXXXXXXXXXX.       ",
"  .XoooooXoooooX.       ",
"  .XoooooXoooooX.       ",
"  .XoooooXoooooX.       ",
"  .Xooo...............  ",
"  .Xooo.XXXXXXXXXXXXX.  ",
"  .Xooo.XoooooXoooooX.  ",
"  .Xooo.XoooooXoooooX.  ",
"  .XXXX.XoooooXoooooX.  ",
"  .Xooo.XoooooXoooooX.  ",
"  .Xooo.XoooooXoooooX.  ",
"  .Xooo.XoooooXoooooX.  ",
"  .Xooo.XoooooXoooooX.  ",
"  .Xooo.XXXXXXXXXXXXX.  ",
"  .Xooo.XoooooXoooooX.  ",
"  .Xooo.XoooooXoooooX.  ",
"  .XXXX.XoooooXoooooX.  ",
"  XXXXX.XoooooXoooooX.  ",
"       .XoooooXoooooX.  ",
"       .XoooooXoooooX.  ",
"       .XoooooXoooooX.  ",
"       .XXXXXXXXXXXXX.  ",
"       XXXXXXXXXXXXXXX  "};
