/* XPM */
static char * toolbar_news_list_1_xpm[] = {
"24 24 3 1",
" 	c None",
".	c #000000000000",
"X	c #FFFFFFFFFFFF",
"                        ",
"    .................   ",
"    .XXXXXXXXXXXXXXX.   ",
"    .XXX.X.X.X.X.XXX.   ",
"    .X.X.X.XXX.X.X.X.   ",
"    .X.XX.XX.XX.X.XX.   ",
"    .XXXXXXXXXXXXXXX.   ",
"    .XXXXXXXXXXXXXXX.   ",
"    .X..XX........XX.   ",
"    .X..XXXXXXXXXXXX.   ",
"    .XXXXXXXX......X.   ",
"    .XXXXXXXXXXXXXXX.   ",
"    .XXXXXXXXXXXXXXX.   ",
"    .X..XX........XX.   ",
"    .X..XXXXXXXXXXXX.   ",
"    .XXXXXXXX......X.   ",
"    .XXXXXXXXXXXXXXX.   ",
"    .XXXXXXXXXXXXXXX.   ",
"    .X..XX........XX.   ",
"    .X..XXXXXXXXXXXX.   ",
"    .XXXXXXXX......X.   ",
"    .XXXXXXXXXXXXXXX.   ",
"    .................   ",
"                        "};
