/* XPM */
static char * toolbar_prev_art_1_xpm[] = {
"24 24 4 1",
" 	c #BFBFBFBFBFBF",
".	c #000000000000",
"X	c #808080808080",
"o	c #FFFFFFFFFFFF",
"                        ",
"          ..            ",
"        ..XX.           ",
"      ..XXXX.           ",
"    ..XXXXXX.o........  ",
"  ..XXXXXXXX.oooooooo.  ",
" .XXXXXXXXXX.o...o..o.  ",
" .XXXXXXXXXX.oooooooo.  ",
"  ..XXXXXXXX.o..o...o.  ",
"    ..XXXXXX.oooooooo.  ",
"      ..XXXX.oooooooo.  ",
"       o..XX.o.o..o.o.  ",
"       ooo..ooooooooo.  ",
"       .oooooo...o..o.  ",
"       .ooooooooooooo.  ",
"       .o.o..o......o.  ",
"       .ooooooooooooo.  ",
"       .o......o....o.  ",
"       .ooooooooooooo.  ",
"       .o...oo......o.  ",
"       .ooooooooooooo.  ",
"       .ooooooooooooo.  ",
"       ...............  ",
"                        "};
