/* XPM */
static char * toolbar_close_window_1_xpm[] = {
"24 24 5 1",
" 	c None",
".	c #FAFA13134040",
"X	c #808080808080",
"o	c #000000000000",
"O	c #51515151FBFB",
"                        ",
"                        ",
"   ..XXXXXXXXXXXXXXX    ",
"   ...oooooooooooooX..  ",
"    ...OOOOOoOOOOOo...  ",
"     ...OOOOoOOOOO...   ",
"     X...OOOoOOOO...    ",
"     Xo...OOoOOO...X    ",
"     XoO...OoOO...oX    ",
"     XoOO...oO...OoX    ",
"     XoOOO......OOoX    ",
"     Xooooo....ooooX    ",
"     XoOOOO....OOOoX    ",
"     XoOOO......OOoX    ",
"     XoOO...oO...OoX    ",
"     XoO...OoOO...oX    ",
"     Xo...OOoOOO...X    ",
"     X...OOOoOOOO...    ",
"     ...OOOOoOOOOO...   ",
"    ...oooooooooooo...  ",
"   ...oooooooooooooo... ",
"   ..                .. ",
"                        ",
"                        "};
