/* XPM */
static char * toolbar_next_thr_1_xpm[] = {
"24 24 4 1",
" 	c #BFBFBFBFBFBF",
".	c #000000000000",
"X	c #808080808080",
"o	c #FFFFFFFFFFFF",
"                        ",
"       ..   ..          ",
"      .XX. .XX..        ",
"      .XX. .XXXX..      ",
"  ...o.XX.o.XXXXXX..    ",
"  .ooo.XX.o.XXXXXXXX..  ",
"  .o.o.XX.o.XXXXXXXXXX. ",
"  .ooo.XX.o.XXXXXXXXXX. ",
"  .o.o.XX.o.XXXXXXXX..  ",
"  .ooo.XX.o.XXXXXX..    ",
"  .ooo.XX.o.XXXX..      ",
"  .o.o.XX.o.XX..o       ",
"  .oooo..ooo..ooo       ",
"  .o..oooooooooo.       ",
"  .ooooooooooooo.       ",
"  .o......o..o.o.       ",
"  .ooooooooooooo.       ",
"  .o....o......o.       ",
"  .ooooooooooooo.       ",
"  .o......oo...o.       ",
"  .ooooooooooooo.       ",
"  .ooooooooooooo.       ",
"  ...............       ",
"                        "};
