/* XPM */
static char * toolbar_next_art_1_xpm[] = {
"24 24 4 1",
" 	c #BFBFBFBFBFBF",
".	c #000000000000",
"X	c #808080808080",
"o	c #FFFFFFFFFFFF",
"                        ",
"            ..          ",
"           .XX..        ",
"           .XXXX..      ",
"  ........o.XXXXXX..    ",
"  .oooooooo.XXXXXXXX..  ",
"  .o..o...o.XXXXXXXXXX. ",
"  .oooooooo.XXXXXXXXXX. ",
"  .o...o..o.XXXXXXXX..  ",
"  .oooooooo.XXXXXX..    ",
"  .oooooooo.XXXX..      ",
"  .o.o..o.o.XX..o       ",
"  .ooooooooo..ooo       ",
"  .o..o...oooooo.       ",
"  .ooooooooooooo.       ",
"  .o......o..o.o.       ",
"  .ooooooooooooo.       ",
"  .o....o......o.       ",
"  .ooooooooooooo.       ",
"  .o......oo...o.       ",
"  .ooooooooooooo.       ",
"  .ooooooooooooo.       ",
"  ...............       ",
"                        "};
