/* XPM */
static char * toolbar_reload_1_xpm[] = {
"24 24 5 1",
" 	c None",
".	c #000000000000",
"X	c #404040404040",
"o	c #FFFF00000000",
"O	c #808080808080",
"                        ",
"                        ",
"       ........         ",
"      .XXX..ooo.        ",
"     .XXX.  .ooo.       ",
"    .XOX.    .ooo.      ",
"   .XXX.      .ooo.     ",
"   .XOX.      .ooo.     ",
"   .XOX.      .ooo.     ",
"  .XOX.        .ooo.    ",
"  .XOX.        .ooo.    ",
"  .XOX.      ...ooo...  ",
"  .XOX.      .ooooooo.  ",
"  .XOX.       .ooooo.   ",
"  .XOX.        .oooo.   ",
"  .XOX.         .oo.    ",
"   .XOX.         ..     ",
"   .XOX.                ",
"   .XXX.      ....      ",
"    .XOX.    .ooo.      ",
"     .XXX.  .ooo.       ",
"      .XXX..ooo.        ",
"       ........         ",
"                        "};
