/* XPM */
static char * toolbar_ftp_put_1_xpm[] = {
"24 24 5 1",
" 	c None",
"x	c #FFFFFFFFFFFF",
".	c #000000000000",
"X	c #C0C0C0C0C0C0",
"o	c #808080808080",
"           .            ",
"          . .           ",
"         .   .          ",
"         .   .          ",
"        .     .         ",
"       ...   ...        ",
"         .   .          ",
"         .   .          ",
"        ..   ..         ",
"       .X.   .o.        ",
"      .XX.   .oo.       ",
"     .XXX.   .ooo.      ",
"    .XXXX.....oooo.     ",
"   ..XXXXXX.ooooooo.    ",
"  .oo.XXXX.oooo..ooo.   ",
"   .oo.XX.oooo.xx.o.    ",
"    .oo..oooo.x.xx.     ",
"     .oooooo.xxx..      ",
"      .oooo.xxxx.       ",
"       .ooo.xxx.        ",
"        .ooo.x.         ",
"         .ooo.          ",
"          .o.           ",
"           .            "};
