/* XPM */
static char * toolbar_news_rev_xpm[] = {
"24 32 2 1",
" 	c #FFFFFFFFFFFF",
".	c #000000000000",
"                        ",
"                        ",
"              .         ",
"             ..         ",
"            . .         ",
"           .  .         ",
"          .   .         ",
"          .   .         ",
"           .  .         ",
"            . .         ",
"             ..         ",
"              .         ",
"                        ",
"                        ",
"       .......          ",
"       .     ..         ",
"       . ... . .        ",
"       .     .  .       ",
"       . ... .....      ",
"       .         .      ",
"       . ... ..  .      ",
"       .         .      ",
"       . .. .. . .      ",
"       .         .      ",
"       . .... .. .      ",
"       .         .      ",
"       . ... ... .      ",
"       .         .      ",
"       . ....... .      ",
"       .         .      ",
"       ...........      ",
"                        "};
