/* XPM */
static char * toolbar_hotlist_1_xpm[] = {
"24 24 5 1",
"       c None",
"- 	c #FFFFFFFFFFFF",
".	c #000000000000",
"o	c #FFFF00000000",
"O	c #FFFFFFFF0000",
"                        ",
"      ...............   ",
"      .-------------.   ",
"      .-------------.   ",
"      .--.--.......-.   ",
"      .--...--------.   ",
"  ............------.   ",
"  .................-.   ",
"  ..............----.   ",
"  ............------.   ",
"      .--...-......-.   ",
"      .--.--------o-.   ",
"      .---o------oo-.   ",
"      .-..o ....-oo-.   ",
"      o--oo-----oooo.   ",
"      o--ooo---ooooo.   ",
"      oo-oooo-oooOoo.   ",
"     ooooooOoooOOooo.   ",
"     oOooOOOooOOooOo.   ",
"      oOoooOOoOooOOo.   ",
"      oOOOoOOOOoOOo .   ",
"      .o-Oo-OOO--Oo..   ",
"       o--------ooo     ",
"        oo--oooo        "};
