/* XPM */
static char * toolbar_ftp_mkdir_1_xpm[] = {
"24 24 4 1",
" 	c None",
".	c #000000000000",
"X	c #C0C0C0C0C0C0",
"o	c #808080808080",
"                        ",
"    ...                 ",
"    .X.                 ",
"  ...X...               ",
"  .XXXXX.               ",
"  ...X...               ",
"    .X.                 ",
"    ...             ... ",
"                  ..XX. ",
"            ...   .XXX. ",
"        ....ooo...XXXX. ",
"    ....ooooo...XXooX.  ",
"  ..ooooooo..XXXooXoX.  ",
"  .oooooooo.XXooXXXoX.  ",
"   .oooooo.XooXXXXoX.   ",
"   .oooooo.XoXXXXXoX.   ",
"    .ooooo.XoXXXooX.    ",
"    .oooo.XoXoooXXX.    ",
"     .ooo.XooXXX...     ",
"     .ooo.XXXX..        ",
"      .o.XX...          ",
"      .o...             ",
"       ..               ",
"                        "};
