/* XPM */
static char * toolbar_search_1_xpm[] = {
"24 24 5 1",
"  	c None",
"X	c #FFFFFFFFFFFF",
"o	c #808080808080",
".	c #000000000000",
"+	c #FFFF00000000",
"                        ",
"  ................      ",
"  .XooooooooooXoX.      ",
"  .XXXXXXXXXXXXXX.      ",
"  .XoooXooooooooX.      ",
"  .XXXXXXXXXXXXXX.      ",
"  .XooXooooXoooXX.      ",
"  .XXXXXXXXXXXXXX.      ",
"  .XoooooXooooooX.      ",
"  .XXXXXXXXXXXXXX.      ",
"  .XooooooooooXXX.      ",
"  .XXXXXXXXXXo.....     ",
"  .XooooooXoX.XXXX..    ",
"  .XXXXXXXXX.X+++X. .   ",
"  .XooooooXX.XXXXX. .   ",
"  .XXXXXXXXX.X++++. .   ",
"  .XooXXoooX.XXXXX. .   ",
"  .XXXXXXXXX..X++X..    ",
"  .XXXXXXXXXX.XXXX..X   ",
"  ................o..   ",
"                   o.X  ",
"                    o.X ",
"                     o. ",
"                        "};
