/* XPM */
static char * toolbar_followup_1_xpm[] = {
"24 24 5 1",
" 	c None",
".	c #000000000000",
"o	c #808080808080",
"X	c #FFFFFFFFFFFF",
"O	c #404040404040",
"                        ",
"  .................     ",
"  .XXXXXXXXXXXXXXX.     ",
"  .XoooooooooooooX.     ",
"  .XXXXXXXXXXXXXXX.     ",
"  .XoooooooooooooX.     ",
"  .XXXXXXXXXXXXXXX.     ",
"  .XoooooooooooooX.     ",
"  .XXXXXXXXXXXXXXX.     ",
"  .XooooooooooXXXX.     ",
"  .XXXXXXXXXXXXXXX. XX  ",
"  .OOOOOOOOOOOOOOO...   ",
"  .XXXXXXXXXXXXXXX..    ",
"  .XXXXXXXXXXXXXX...    ",
"  .XXXXXXXXXXXXX...     ",
"  .Xooooooooooo....     ",
"  .XXXXXXXXXXX..XX.     ",
"  .Xooooooooo..XXX.     ",
"  .XXXXXXXXX..XXXX.     ",
"  .Xoooooooo XXXXX.     ",
"  .XXXXXXXXXXXXXXX.     ",
"  .XXXXXXXXXXXXXXX.     ",
"  .................     ",
"                        "};
