/* XPM */
static char * toolbar_window_1_xpm[] = {
"24 30 4 1",
" 	c #FFFFFFFFFFFF",
".	c #808080808080",
"X	c #000000000000",
"o	c #C0C0C0C0C0C0",
"                        ",
"                        ",
"                        ",
"                        ",
"    .................   ",
"    .XXXXXXXXXXXXXXX.   ",
"    .XooooooXooooooX.   ",
"    .XooooooXooooooX.   ",
"    .XooooooXooooooX.   ",
"    .XooooooXooooooX.   ",
"    .XooooooXooooooX.   ",
"    .XooooooXooooooX.   ",
"    .XooooooXooooooX.   ",
"    .XooooooXooooooX.   ",
"    .XooooooXooooooX.   ",
"    .XooooooXooooooX.   ",
"    .XXXXXXXXXXXXXXX.   ",
"    .XooooooXooooooX.   ",
"    .XooooooXooooooX.   ",
"    .XooooooXooooooX.   ",
"    .XooooooXooooooX.   ",
"    .XooooooXooooooX.   ",
"    .XooooooXooooooX.   ",
"    .XooooooXooooooX.   ",
"    .XooooooXooooooX.   ",
"    XXXXXXXXXXXXXXXXX   ",
"                        ",
"                        ",
"                        ",
"                        "};
