/* XPM */
static char * toolbar_post_1_xpm[] = {
"24 24 4 1",
" 	c None",
".	c #FFFFFFFFFFFF",
"X	c #000000000000",
"o	c #808080808080",
"                    ..  ",
"                   XX   ",
"  XXXXXXXXXXXXXXXXXX    ",
"  X..............XXX    ",
"  X.............XXX     ",
"  X.oooooooooooXXXX     ",
"  X...........XX..X     ",
"  X.oooooooooXX...X     ",
"  X.........XX....X     ",
"  X.oooooooo .....X     ",
"  X...............X     ",
"  X...............X     ",
"  X...............X     ",
"  X...............X     ",
"  X...............X     ",
"  X...............X     ",
"  X...............X     ",
"  X...............X     ",
"  X...............X     ",
"  X...............X     ",
"  X...............X     ",
"  X...............X     ",
"  XXXXXXXXXXXXXXXXX     ",
"                        "};
