/* XPM */
static char * toolbar_open_1_xpm[] = {
"24 24 4 1",
" 	c None",
".	c #000000000000",
"X	c #FFFFFFFF0000",
"o	c #C0C0C0C0C0C0",
"                        ",
"       ...... ..        ",
"     ...........        ",
"    ...    .....        ",
"          ......        ",
"                   ...  ",
"                 ..XX.  ",
"           ....  .XXX.  ",
"       ....ooo...XXXX.  ",
"   ....ooooo...XXXXX.   ",
" ..ooooooo..XXXXXXXX.   ",
" .oooooooo.XXXXXXXXX.   ",
"  .oooooo.XXXXXXXXX.    ",
"  .oooooo.XXXXXXXXX.    ",
"   .ooooo.XXXXXXXX.     ",
"   .oooo.XXXXXXXXX.     ",
"    .ooo.XXXXXX...      ",
"    .ooo.XXXX..         ",
"     .o.XX...           ",
"     .o...              ",
"      ..                ",
"                        ",
"                        ",
"                        "};
