/* XPM */
static char * toolbar_print_1_xpm[] = {
"24 24 7 1",
"       c None",
"-	c #FFFFFFFFFFFF",
".	c #000000000000",
"o	c #C0C0C0C0C0C0",
"O	c #3B3BFAFA3434",
"+	c #FAFA13134040",
"@	c #FFFFFFFF0000",
"                        ",
"                        ",
"         ............   ",
"        .----------.    ",
"       .--.......-.     ",
"       .----------.     ",
"       .-........-.     ",
"       .----------.     ",
"       .-........-.     ",
"       .----------.     ",
"       .-........-.     ",
"      ..----------....  ",
"     .o.-........-.oo.  ",
"     .o.----------.o... ",
"   ..oo............oo.. ",
"  .ooooooooooooooooo... ",
" ...................... ",
" .oOOoooooooooooooo.... ",
" .oOOoooooooooooooo.... ",
" .o++oooooooooooooo...  ",
" .o@@oooooooooooooo..   ",
" .oooooooooooooooo..    ",
"  .................     ",
"                        "};
