/* XPM */
static char * toolbar_open_window_1_xpm[] = {
"24 24 4 1",
" 	c None",
".	c #808080808080",
"X	c #000000000000",
"o	c #51515151FBFB",
"                        ",
"                        ",
"    ...............     ",
"    .XXXXXXXXXXXXX.     ",
"    .XoooooXoooooX.     ",
"    .XXXXXXXXXXXXX.     ",
"    .XoooooXoooooX.     ",
"    .XoooooXoooooX.     ",
"    .XoooooXoooooX.     ",
"    .XoooooXoooooX.     ",
"    .XoooooXoooooX.     ",
"    .XoooooXoooooX.     ",
"    .XXXXXXXXXXXXX.     ",
"    .X           X.     ",
"    .X           X.     ",
"    .X           X.     ",
"    .X           X.     ",
"    .X           X.     ",
"    .X           X.     ",
"    .XXXXXXXXXXXXX.     ",
"    XXXXXXXXXXXXXXX     ",
"                        ",
"                        ",
"                        "};
