/* XPM */
static char * toolbar_prev_thr_1_xpm[] = {
"24 24 4 1",
" 	c #BFBFBFBFBFBF",
".	c #000000000000",
"X	c #808080808080",
"o	c #FFFFFFFFFFFF",
"                        ",
"          ..   ..       ",
"        ..XX. .XX.      ",
"      ..XXXX. .XX.      ",
"    ..XXXXXX.o.XX.o...  ",
"  ..XXXXXXXX.o.XX.ooo.  ",
" .XXXXXXXXXX.o.XX.o.o.  ",
" .XXXXXXXXXX.o.XX.ooo.  ",
"  ..XXXXXXXX.o.XX.o.o.  ",
"    ..XXXXXX.o.XX.ooo.  ",
"      ..XXXX.o.XX.ooo.  ",
"       o..XX.o.XX.o.o.  ",
"       ooo..ooo..oooo.  ",
"       .oooooooooo..o.  ",
"       .ooooooooooooo.  ",
"       .o.o..o......o.  ",
"       .ooooooooooooo.  ",
"       .o......o....o.  ",
"       .ooooooooooooo.  ",
"       .o...oo......o.  ",
"       .ooooooooooooo.  ",
"       .ooooooooooooo.  ",
"       ...............  ",
"                        "};
