/* XPM */
static char * toolbar_home_1_xpm[] = {
"24 24 7 1",
"       c None",
"-  	c #FFFFFFFFFFFF",
".	c #000000000000",
"X	c #606060606060",
"o	c #FAFA13134040",
"O	c #404040404040",
"+	c #C0C0C0C0C0C0",
"                        ",
"              ..        ",
"           ...XX.       ",
"         ..XXXXXX.      ",
"    ..  ....XXXXXX.     ",
"    .. .ooo..XXXXXX.    ",
"    ...ooooo..XXXXXX.   ",
"    ..ooooooo..XXXXXX.  ",
"    .ooooooooo..XXXX... ",
"   .oOOOOoOOOOo..X..o.  ",
"  ..oO--Oo.--Ooo..ooo.  ",
"   .oO--Oo.--Ooo.oooo.  ",
"   .oO--Oo.--Ooo.ooOO.  ",
"   .oOOO.oOOOOoo.oO-O.  ",
"   .oooooooooooo.oO-O.  ",
"   .ooo......ooo.oOOo.  ",
"   .ooo.++++.ooo.oooo.  ",
"   .ooo.++++.ooo.oooo.  ",
"   .ooo..+++.ooo.oooo.  ",
"   .ooo.++++.ooo.oo..   ",
"   .ooo.++++.ooo...     ",
"   ..............       ",
"                        ",
"                        "};
