/* XPM */
static char * toolbar_forw_1_xpm[] = {
"24 24 5 1",
" 	c None",
".	c #000000000000",
"X	c #404040404040",
"o	c #7F7F7F7F7F7F",
"O	c #C0C0C0C0C0C0",
"                        ",
"                        ",
"  ...                   ",
"  .XX..                 ",
"  ..XXX..               ",
"   .XoXXX..             ",
"   .XoooXXX..           ",
"   ..XooooXXX..         ",
"    .XoOooooXXX..       ",
"    .XooOOooooXXX..     ",
"    .XooOOOOooooXXX..   ",
"    .XooOOOOOOooooXXX.  ",
"    .XooOOOOOOooooXXX.  ",
"    .XooOOOOooooXXX..   ",
"    .XooOOooooXXX..     ",
"    .XoOooooXXX..       ",
"   ..XooooXXX..         ",
"   .XoooXXX..           ",
"   .XoXXX..             ",
"  ..XXX..               ",
"  .XX..                 ",
"  ...                   ",
"                        ",
"                        "};
