/* XPM */
static char * xm_question_xpm[] = {
"22 22 2 1",
" 	c None",
".	c #000000000000",
"    ..........        ",
"   .. . . . . .       ",
"  .. . . . . . .      ",
" .. . ....... . .     ",
" . . ......... . .    ",
" .. ........... .     ",
" . . ... . ... . .    ",
" .. ..... ..... . .   ",
" . . ... . ... . . .  ",
" .. . . . ..... . . . ",
" . . . . ..... . .... ",
" .. . . ..... . .     ",
"  .. . ..... . . .    ",
"   .. . ... . . .     ",
"    .. ..... . .      ",
"     .. . . . . .     ",
"     . . . . . .      ",
"     .. ... .         ",
"     . ..... .        ",
"     .. ... .         ",
"    .. . . . .        ",
"    . . . . . .       "};
