/* XPM */
static char * xm_warning_xpm[] = {
"9 22 2 1",
" 	c None",
".	c #000000000000",
"         ",
"   ..    ",
"  .. .   ",
" .. . .  ",
" . . .   ",
" .. . .  ",
" . . .   ",
" .. . .  ",
"  .. .   ",
"  . .    ",
"  .. .   ",
"  . .    ",
"  .. .   ",
"  . .    ",
"         ",
"         ",
"  ....   ",
"  . .    ",
"  .. .   ",
"  . .    ",
"         ",
"         "};
