#define annotate_width 64
#define annotate_height 64
static char annotate_bits[] = {
   0x00, 0x00, 0x00, 0x00, 0x01, 0x10, 0x00, 0x00, 0x00, 0x00, 0x00, 0x00,
   0x01, 0x10, 0x00, 0x00, 0x1c, 0x1d, 0x1d, 0x8e, 0xc7, 0x79, 0x1c, 0x00,
   0xa2, 0xb3, 0x33, 0x11, 0x21, 0x12, 0x22, 0x00, 0x22, 0x21, 0xa1, 0x20,
   0x21, 0x12, 0x21, 0x00, 0x38, 0x21, 0xa1, 0x20, 0x81, 0x13, 0x3f, 0x00,
   0x26, 0x21, 0xa1, 0x20, 0x61, 0x12, 0x01, 0x00, 0x22, 0x21, 0xa1, 0x20,
   0x21, 0x12, 0x01, 0x00, 0xb2, 0x21, 0x21, 0x11, 0x25, 0x5b, 0x22, 0x00,
   0xec, 0xf3, 0x73, 0x0e, 0xc2, 0x26, 0x1c, 0x00, 0x00, 0x00, 0x00, 0x00,
   0x00, 0x00, 0x00, 0x00, 0x00, 0x00, 0x00, 0x00, 0x00, 0x00, 0x00, 0x00,
   0x00, 0x00, 0x00, 0x00, 0x00, 0x00, 0x00, 0x00, 0x00, 0x00, 0x00, 0x00,
   0x80, 0xff, 0xff, 0x3f, 0xc0, 0x3f, 0x00, 0x00, 0xc0, 0x00, 0x00, 0x20,
   0xc0, 0x20, 0x00, 0x00, 0xa0, 0x00, 0x00, 0x20, 0xc0, 0x20, 0x00, 0x00,
   0x90, 0x00, 0x00, 0x20, 0xc0, 0x20, 0x00, 0x00, 0x88, 0x00, 0x00, 0x20,
   0xc0, 0x20, 0x00, 0x00, 0x84, 0x00, 0x00, 0x20, 0xc0, 0x20, 0x00, 0x00,
   0x82, 0x00, 0x00, 0x20, 0xc0, 0x20, 0x00, 0x00, 0x81, 0x00, 0x00, 0x20,
   0xc0, 0x20, 0x00, 0x80, 0x80, 0x00, 0x00, 0x20, 0xc0, 0x20, 0x00, 0xc0,
   0xff, 0x00, 0x00, 0x20, 0xc0, 0x20, 0x00, 0x40, 0x00, 0x00, 0x00, 0x20,
   0xc0, 0x20, 0x00, 0x40, 0x00, 0x00, 0x00, 0x20, 0xc0, 0x20, 0x00, 0x40,
   0x00, 0x00, 0x00, 0x20, 0xc0, 0x20, 0x00, 0x40, 0x00, 0x00, 0x00, 0x20,
   0xc0, 0x20, 0x00, 0x40, 0x00, 0x00, 0x00, 0x20, 0xc0, 0x20, 0x00, 0x40,
   0x00, 0x00, 0x00, 0x20, 0xc0, 0x20, 0x00, 0x40, 0x00, 0x00, 0x00, 0x20,
   0xc0, 0x20, 0x00, 0x40, 0x00, 0x1f, 0x00, 0x20, 0xc0, 0x20, 0x00, 0x40,
   0x00, 0x23, 0x00, 0x20, 0xc0, 0x20, 0x00, 0x40, 0x00, 0x43, 0x00, 0x20,
   0xc0, 0x20, 0x00, 0x40, 0x00, 0x83, 0x00, 0x20, 0xc0, 0xe0, 0xff, 0xff,
   0xff, 0x03, 0x01, 0x20, 0xc0, 0x00, 0x00, 0x00, 0x00, 0x00, 0x02, 0x20,
   0xc0, 0x00, 0x00, 0x00, 0x00, 0x00, 0x04, 0x20, 0xc0, 0x00, 0x00, 0x00,
   0x00, 0x00, 0x04, 0x20, 0xc0, 0x00, 0x00, 0x00, 0x00, 0x00, 0x04, 0x20,
   0xc0, 0x00, 0x00, 0x00, 0x00, 0x00, 0x02, 0x20, 0xc0, 0xff, 0xff, 0xff,
   0xff, 0x03, 0x01, 0x20, 0xc0, 0xff, 0xff, 0xff, 0xff, 0x83, 0x00, 0x20,
   0x00, 0x00, 0x00, 0x40, 0x00, 0x43, 0x00, 0x20, 0x00, 0x00, 0x00, 0x40,
   0x00, 0x23, 0x00, 0x20, 0x00, 0x00, 0x00, 0x40, 0x00, 0x1f, 0x00, 0x20,
   0x00, 0x00, 0x00, 0x40, 0x00, 0x00, 0x00, 0x20, 0x00, 0x00, 0x00, 0x40,
   0x00, 0x00, 0x00, 0x20, 0x00, 0x00, 0x00, 0x40, 0x00, 0x00, 0x00, 0x20,
   0x00, 0x00, 0x00, 0x40, 0x00, 0x00, 0x00, 0x20, 0x00, 0x00, 0x00, 0x40,
   0x00, 0x00, 0x00, 0x20, 0x00, 0x00, 0x00, 0x40, 0x00, 0x00, 0x00, 0x20,
   0x00, 0x00, 0x00, 0x40, 0x00, 0x80, 0x01, 0x20, 0xe0, 0xe0, 0x00, 0x40,
   0x00, 0x80, 0x01, 0x20, 0xe0, 0xe0, 0x00, 0xc0, 0xff, 0xff, 0xff, 0x3f,
   0xe0, 0xf1, 0x00, 0x00, 0x00, 0x00, 0x00, 0x00, 0xe0, 0xf1, 0xe0, 0xc3,
   0x03, 0x8f, 0xc1, 0x07, 0xe0, 0xf1, 0xf0, 0xe7, 0x83, 0x9f, 0xe1, 0x07,
   0x60, 0xdb, 0x38, 0x6e, 0x80, 0x98, 0x71, 0x00, 0x60, 0xdb, 0x18, 0xec,
   0x01, 0x9f, 0x31, 0x00, 0x60, 0xdb, 0x18, 0xcc, 0x83, 0x9f, 0x31, 0x00,
   0x60, 0xde, 0x18, 0x0c, 0xc7, 0x98, 0x31, 0x00, 0x60, 0xce, 0x38, 0x2e,
   0xc6, 0x98, 0x71, 0x04, 0x60, 0xce, 0xf0, 0xe7, 0xc7, 0xbf, 0xe1, 0x07,
   0x60, 0xc0, 0xe0, 0xc3, 0x83, 0xb3, 0xc1, 0x03};
