#define busy_4_width 18
#define busy_4_height 18
#define busy_4_x_hot 8
#define busy_4_y_hot 8
static char busy_4_bits[] = {
   0x00, 0x00, 0x00, 0xfe, 0xff, 0x01, 0x14, 0xa0, 0x00, 0x14, 0xa0, 0x00,
   0x14, 0xa0, 0x00, 0x24, 0x93, 0x00, 0xe4, 0x9f, 0x00, 0xc4, 0x8f, 0x00,
   0x84, 0x87, 0x00, 0x84, 0x87, 0x00, 0x44, 0x8b, 0x00, 0x24, 0x93, 0x00,
   0x24, 0x93, 0x00, 0x94, 0xa7, 0x00, 0xf4, 0xaf, 0x00, 0xf4, 0xbf, 0x00,
   0xfe, 0xff, 0x01, 0x00, 0x00, 0x00};
