#define busy_8_mask_width 18
#define busy_8_mask_height 18
static unsigned char busy_8_mask_bits[] = {
  0x07, 0x80, 0x03, 0xff, 0xff, 0x03, 0xff, 0xff, 0x03, 0xff, 0xff, 0x03,
  0x7f, 0xf8, 0x03, 0xff, 0xfc, 0x03, 0xe7, 0x9f, 0x03, 0x87, 0x87, 0x03,
  0x07, 0xff, 0x03, 0x07, 0xff, 0x03, 0x87, 0xff, 0x03, 0xe7, 0xff, 0x03,
  0xff, 0xfc, 0x03, 0x7f, 0xf8, 0x03, 0xff, 0xff, 0x03, 0xff, 0xff, 0x03,
  0xff, 0xff, 0x03, 0x07, 0x80, 0x03, };
