#define busy_8_width 18
#define busy_8_height 18
#define busy_8_x_hot 8
#define busy_8_y_hot 9
static char busy_8_bits[] = {
   0x00, 0x00, 0x00, 0x02, 0x00, 0x01, 0xfe, 0xff, 0x01, 0x02, 0x00, 0x01,
   0x1e, 0xe0, 0x01, 0x62, 0x18, 0x01, 0x82, 0x04, 0x01, 0x02, 0x03, 0x01,
   0x02, 0x00, 0x01, 0x02, 0xfe, 0x01, 0x02, 0xff, 0x01, 0x82, 0xfc, 0x01,
   0x62, 0xf8, 0x01, 0x1e, 0xe0, 0x01, 0x02, 0x00, 0x01, 0xfe, 0xff, 0x01,
   0x02, 0x00, 0x01, 0x00, 0x00, 0x00};
