#define busy_6_width 18
#define busy_6_height 18
#define busy_6_x_hot 8
#define busy_6_y_hot 8
static char busy_6_bits[] = {
   0x00, 0x00, 0x00, 0xfe, 0xff, 0x01, 0x14, 0xa0, 0x00, 0x14, 0xa0, 0x00,
   0x14, 0xa0, 0x00, 0x24, 0x90, 0x00, 0x24, 0x90, 0x00, 0x44, 0x88, 0x00,
   0x84, 0x84, 0x00, 0x84, 0x84, 0x00, 0x44, 0x88, 0x00, 0x24, 0x93, 0x00,
   0xa4, 0x9f, 0x00, 0xf4, 0xbf, 0x00, 0xf4, 0xbf, 0x00, 0xf4, 0xbf, 0x00,
   0xfe, 0xff, 0x01, 0x00, 0x00, 0x00};
