#define gopher_ftp_width 20
#define gopher_ftp_height 23
static char gopher_ftp_bits[] = {
   0x00, 0x00, 0x00, 0x00, 0x00, 0x00, 0x00, 0x00, 0x00, 0x00, 0x00, 0x00,
   0xfe, 0xff, 0x07, 0x02, 0x00, 0x0c, 0xba, 0xf7, 0x0c, 0xba, 0xf7, 0x0d,
   0x1a, 0xb3, 0x0d, 0x3a, 0xb3, 0x0d, 0x3a, 0xf3, 0x0d, 0x1a, 0xf3, 0x0c,
   0x1a, 0x33, 0x0c, 0x1a, 0x33, 0x0c, 0x02, 0x00, 0x0c, 0xfe, 0xff, 0x0f,
   0xfc, 0xff, 0x0f, 0x00, 0x00, 0x00, 0x04, 0x00, 0x02, 0xfe, 0xff, 0x07,
   0xff, 0xff, 0x0f, 0xfe, 0xff, 0x07, 0x04, 0x00, 0x02};
