#define hotlist_width 64
#define hotlist_height 64
static char hotlist_bits[] = {
   0x00, 0x00, 0x00, 0x00, 0x00, 0x00, 0x00, 0x00, 0x00, 0x00, 0x00, 0x00,
   0x00, 0x00, 0x00, 0x00, 0x00, 0x00, 0x00, 0x00, 0x00, 0x00, 0x00, 0x00,
   0x00, 0x00, 0x0e, 0xf8, 0xff, 0xff, 0xff, 0x7f, 0x00, 0x00, 0x0f, 0x08,
   0x00, 0x00, 0x00, 0x40, 0x00, 0x80, 0x0f, 0x0c, 0x00, 0x00, 0x00, 0x40,
   0x00, 0xc0, 0x07, 0x8c, 0x00, 0x01, 0x00, 0x40, 0x00, 0xc0, 0xc3, 0x8f,
   0x00, 0x01, 0x80, 0x40, 0x00, 0xe0, 0x61, 0x8c, 0x00, 0x01, 0x80, 0x40,
   0x00, 0xe0, 0x61, 0x8c, 0x00, 0xe1, 0xe1, 0x47, 0x00, 0xf0, 0x60, 0x8c,
   0x00, 0x11, 0x82, 0x40, 0x0e, 0x70, 0x60, 0x8c, 0xff, 0x09, 0x84, 0x40,
   0x1e, 0x78, 0x60, 0x8c, 0x00, 0x09, 0x84, 0x40, 0x1e, 0x38, 0x60, 0x8c,
   0x00, 0x09, 0x84, 0x40, 0x3e, 0x3c, 0x60, 0x8c, 0x00, 0x09, 0x84, 0x40,
   0x7c, 0x1c, 0x60, 0x8c, 0x00, 0x09, 0x84, 0x40, 0xf8, 0x1e, 0xe0, 0x8f,
   0x00, 0x11, 0x02, 0x41, 0xf0, 0x0f, 0xe0, 0x8f, 0x00, 0xe1, 0x01, 0x46,
   0xf0, 0x0f, 0x00, 0x0c, 0x00, 0x00, 0x00, 0x40, 0xc0, 0x07, 0x00, 0x0c,
   0x00, 0x00, 0x00, 0x40, 0xc0, 0x07, 0x00, 0xfc, 0xff, 0xff, 0xff, 0x7f,
   0x80, 0x03, 0x00, 0xfc, 0xff, 0xff, 0xff, 0x1f, 0x00, 0x00, 0x00, 0x00,
   0x00, 0x00, 0x00, 0x00, 0x00, 0x00, 0x00, 0x00, 0x00, 0x00, 0x00, 0x00,
   0x00, 0x00, 0x00, 0x00, 0x00, 0x00, 0x00, 0x00, 0x00, 0x00, 0x00, 0x00,
   0x00, 0x00, 0x00, 0x00, 0x00, 0x00, 0x0e, 0xf8, 0xff, 0xff, 0xff, 0x7f,
   0x00, 0x00, 0x0f, 0x08, 0x00, 0x00, 0x00, 0x40, 0x00, 0x80, 0x0f, 0x0c,
   0x00, 0x00, 0x00, 0x40, 0x00, 0xc0, 0x07, 0x8c, 0x00, 0x04, 0x00, 0x40,
   0x00, 0xc0, 0xc3, 0x8f, 0x00, 0x04, 0x00, 0x41, 0x00, 0xe0, 0x61, 0x8c,
   0x00, 0x00, 0x00, 0x41, 0x00, 0xe0, 0x61, 0x8c, 0x00, 0xc4, 0xc7, 0x4f,
   0x00, 0xf0, 0x60, 0x8c, 0x00, 0x24, 0x08, 0x41, 0x0e, 0x70, 0x60, 0x8c,
   0x00, 0x24, 0x08, 0x41, 0x1e, 0x78, 0x60, 0x8c, 0x00, 0x24, 0x00, 0x41,
   0x1e, 0x38, 0x60, 0x8c, 0x00, 0xc4, 0x03, 0x41, 0x3e, 0x3c, 0x60, 0x8c,
   0x00, 0x04, 0x04, 0x41, 0x7c, 0x1c, 0x60, 0x8c, 0x00, 0x24, 0x08, 0x41,
   0xf8, 0x1e, 0xe0, 0x8f, 0x00, 0x24, 0x08, 0x42, 0xf0, 0x0f, 0xe0, 0x8f,
   0x7f, 0xc4, 0x07, 0x4c, 0xf0, 0x0f, 0x00, 0x0c, 0x00, 0x00, 0x00, 0x40,
   0xc0, 0x07, 0x00, 0x0c, 0x00, 0x00, 0x00, 0x40, 0xc0, 0x07, 0x00, 0xfc,
   0xff, 0xff, 0xff, 0x7f, 0x80, 0x03, 0x00, 0xfc, 0xff, 0xff, 0xff, 0x1f,
   0x00, 0x00, 0x00, 0x00, 0x00, 0x00, 0x00, 0x00, 0x00, 0x00, 0x00, 0x00,
   0x00, 0x00, 0x00, 0x00, 0x00, 0x00, 0x00, 0x00, 0x00, 0x00, 0x00, 0x00,
   0x00, 0x00, 0x00, 0x00, 0x00, 0x00, 0x00, 0x00, 0x00, 0x00, 0x00, 0x00,
   0x00, 0x00, 0x00, 0x00, 0x00, 0x00, 0x00, 0x00, 0x00, 0x00, 0x00, 0x00,
   0x00, 0x00, 0x00, 0x00, 0x00, 0x00, 0x00, 0x00, 0xe0, 0xe0, 0x00, 0x00,
   0x00, 0x80, 0x01, 0x00, 0xe0, 0xe0, 0x00, 0x00, 0x00, 0x80, 0x01, 0x00,
   0xe0, 0xf1, 0x00, 0x00, 0x00, 0x00, 0x00, 0x00, 0xe0, 0xf1, 0xe0, 0xc3,
   0x03, 0x8f, 0xc1, 0x07, 0xe0, 0xf1, 0xf0, 0xe7, 0x83, 0x9f, 0xe1, 0x07,
   0x60, 0xdb, 0x38, 0x6e, 0x80, 0x98, 0x71, 0x00, 0x60, 0xdb, 0x18, 0xec,
   0x01, 0x9f, 0x31, 0x00, 0x60, 0xdb, 0x18, 0xcc, 0x83, 0x9f, 0x31, 0x00,
   0x60, 0xde, 0x18, 0x0c, 0xc7, 0x98, 0x31, 0x00, 0x60, 0xce, 0x38, 0x2e,
   0xc6, 0x98, 0x71, 0x04, 0x60, 0xce, 0xf0, 0xe7, 0xc7, 0xbf, 0xe1, 0x07,
   0x60, 0xc0, 0xe0, 0xc3, 0x83, 0xb3, 0xc1, 0x03};
