#define xmosaic_left_width 64
#define xmosaic_left_height 64
static char xmosaic_left_bits[] = {
   0x00, 0x00, 0x00, 0x00, 0x00, 0x00, 0x00, 0x00, 0x00, 0x00, 0x00, 0x00,
   0x00, 0x00, 0x00, 0x00, 0x00, 0x00, 0x00, 0x00, 0x00, 0x00, 0x00, 0x00,
   0x18, 0x00, 0x00, 0x00, 0x00, 0x00, 0x00, 0x00, 0x3c, 0x00, 0x00, 0x00,
   0x00, 0x00, 0x00, 0x00, 0x7d, 0x00, 0x00, 0x00, 0x00, 0x00, 0x00, 0x00,
   0x70, 0x1e, 0x00, 0x00, 0x00, 0x00, 0x00, 0x00, 0xaa, 0x3f, 0x00, 0x00,
   0x00, 0x00, 0x00, 0x00, 0x20, 0x38, 0x00, 0x00, 0x00, 0x50, 0x00, 0x00,
   0x75, 0x35, 0x0f, 0x00, 0xa0, 0xa0, 0x03, 0x00, 0x30, 0xd0, 0x0f, 0x00,
   0x20, 0x43, 0x1c, 0x00, 0x79, 0x9a, 0x1e, 0x00, 0x00, 0x9d, 0x7a, 0x00,
   0x30, 0x18, 0x0c, 0x00, 0x9c, 0xe0, 0xe2, 0x00, 0xb5, 0x1c, 0x0d, 0x00,
   0xf4, 0xaa, 0xd5, 0x01, 0x30, 0x18, 0x04, 0x00, 0x82, 0x0b, 0x87, 0x03,
   0xb9, 0xba, 0x06, 0x00, 0xa8, 0x67, 0x9e, 0x07, 0x30, 0x18, 0x06, 0x00,
   0x20, 0x1e, 0x0c, 0x0e, 0xb5, 0x3c, 0x07, 0x00, 0x00, 0xbd, 0x7e, 0x0f,
   0x30, 0x18, 0x06, 0x00, 0x80, 0x78, 0x38, 0x1c, 0xb9, 0xba, 0x06, 0x00,
   0x00, 0x78, 0xf5, 0x3e, 0x30, 0x18, 0x06, 0x00, 0x00, 0xe2, 0x70, 0x38,
   0xb5, 0x3c, 0x07, 0x00, 0x00, 0xf0, 0xea, 0x35, 0x30, 0x18, 0x06, 0xc0,
   0x0f, 0xc4, 0xe1, 0x70, 0xb9, 0xba, 0x06, 0xf0, 0x3f, 0xe0, 0xc5, 0x7b,
   0x30, 0x18, 0x06, 0x0c, 0x7c, 0x88, 0xc3, 0x61, 0xb5, 0x3c, 0x07, 0x52,
   0xf5, 0xc0, 0xdb, 0xf5, 0x30, 0x18, 0x06, 0x01, 0xe0, 0x11, 0x83, 0xe1,
   0xb9, 0xba, 0x46, 0xaa, 0xea, 0x83, 0xab, 0xe5, 0x30, 0x18, 0x06, 0x00,
   0x80, 0x13, 0x83, 0xc1, 0xb5, 0x3c, 0x27, 0x55, 0x55, 0x47, 0xcb, 0xd5,
   0x30, 0x18, 0x06, 0x00, 0x00, 0x17, 0x83, 0xc1, 0xb9, 0xba, 0xa6, 0xaa,
   0xaa, 0x86, 0xab, 0xe5, 0x30, 0x18, 0x06, 0x00, 0x00, 0x16, 0x83, 0xc1,
   0xb5, 0x3c, 0x27, 0x55, 0x55, 0x47, 0xcb, 0xd5, 0x30, 0x18, 0x0e, 0x00,
   0x00, 0x16, 0x83, 0xc1, 0xb9, 0xba, 0xae, 0xaa, 0xaa, 0x82, 0xab, 0xe5,
   0x30, 0x18, 0x0c, 0x00, 0x00, 0x12, 0x83, 0xc1, 0xb5, 0x5c, 0x2d, 0x55,
   0x55, 0x43, 0xcb, 0xd5, 0x30, 0x18, 0x0c, 0x00, 0x00, 0x11, 0x83, 0xc1,
   0xb9, 0x5a, 0x5e, 0xa8, 0xaa, 0x80, 0xab, 0xe5, 0x70, 0x18, 0x1c, 0x00,
   0x00, 0x10, 0x83, 0xc1, 0x75, 0x7d, 0x9d, 0x40, 0x25, 0x40, 0xcb, 0xd5,
   0x60, 0x38, 0x18, 0x00, 0x00, 0x10, 0x83, 0xc1, 0x6a, 0xb9, 0x3a, 0x02,
   0x08, 0x80, 0xab, 0xe5, 0xe0, 0x70, 0x78, 0xa8, 0x02, 0x10, 0x83, 0xc1,
   0xf4, 0x75, 0x75, 0x00, 0x00, 0x40, 0xcb, 0xd5, 0xc0, 0xe3, 0xe0, 0x00,
   0x00, 0x10, 0x83, 0xc1, 0xa8, 0xe3, 0xe4, 0x01, 0x00, 0x80, 0xab, 0xe5,
   0x80, 0x8b, 0x81, 0x03, 0x00, 0x10, 0x83, 0xc1, 0x50, 0x47, 0x53, 0x0f,
   0x00, 0x40, 0xcb, 0xd5, 0x00, 0x2e, 0x0e, 0x1c, 0x00, 0x10, 0x83, 0xc1,
   0x20, 0x9e, 0x5a, 0xea, 0x01, 0xa0, 0xaf, 0xe5, 0x80, 0x70, 0x60, 0x21,
   0x00, 0x08, 0x87, 0xc1, 0x00, 0xe8, 0xd2, 0x55, 0x00, 0x40, 0xcf, 0xd5,
   0x00, 0x02, 0x06, 0x00, 0x00, 0x08, 0x82, 0xc1, 0x00, 0x48, 0x55, 0x00,
   0x00, 0x80, 0xa8, 0xe7, 0x00, 0xa0, 0x00, 0x00, 0x00, 0x10, 0x81, 0xc3,
   0x00, 0x00, 0x0a, 0x00, 0x00, 0x40, 0x54, 0xd5, 0x00, 0x00, 0x00, 0x00,
   0x00, 0x00, 0x00, 0xc0, 0x00, 0x00, 0x00, 0x00, 0x00, 0x00, 0x88, 0xea,
   0x00, 0x00, 0x00, 0x00, 0x00, 0x00, 0x20, 0x00, 0x00, 0x00, 0x00, 0x00,
   0x00, 0x00, 0x00, 0x52, 0x00, 0x00, 0x00, 0x00, 0x00, 0x00, 0x00, 0x00,
   0x00, 0x00, 0x00, 0x00, 0x00, 0x00, 0x00, 0x28};
